M48
;DRILL file {KiCad 4.0.5} date 05/02/17 17:06:53
;FORMAT={3:3/ absolute / metric / suppress leading zeros}
FMAT,2
METRIC,TZ
T1C0.500
T2C1.000
T3C1.001
T4C1.016
T5C2.200
%
G90
G05
M71
T1
X35400Y-59100
X35500Y-64400
X41300Y-78800
X42500Y-55500
X42700Y-51700
X43600Y-53300
X49800Y-68400
X49900Y-77600
X58600Y-60900
X59800Y-50600
X60300Y-75000
X61800Y-78600
X63200Y-77600
X64100Y-79900
X65000Y-70300
X66300Y-71600
X67700Y-50600
X67900Y-87500
X69200Y-78200
X69900Y-87400
X70400Y-79300
X71700Y-87000
X76100Y-72100
X77600Y-72000
X79500Y-81700
X79900Y-50500
X80400Y-70100
X80500Y-56200
X80500Y-57800
X81800Y-55000
X82100Y-47300
X82200Y-50500
X84800Y-83600
X86400Y-91300
X87400Y-77100
X87800Y-70000
X88400Y-87600
X88500Y-62600
X89100Y-72800
X90800Y-55100
X91300Y-83700
X104100Y-83100
T2
X65200Y-47400
X67740Y-47400
X70280Y-47400
X84360Y-49800
X86900Y-49800
T3
X75200Y-97799
X77699Y-97799
X97800Y-97799
X100299Y-97799
T4
X43300Y-96110
X43300Y-98650
X45840Y-96110
X45840Y-98650
X48380Y-96110
X48380Y-98650
X50920Y-96110
X50920Y-98650
X53460Y-96110
X53460Y-98650
T5
X70100Y-102063
X80298Y-102063
X92700Y-102063
X102898Y-102063
T0
M30
