G04 #@! TF.FileFunction,Soldermask,Top*
%FSLAX46Y46*%
G04 Gerber Fmt 4.6, Leading zero omitted, Abs format (unit mm)*
G04 Created by KiCad (PCBNEW 4.0.5) date 05/02/17 17:06:42*
%MOMM*%
%LPD*%
G01*
G04 APERTURE LIST*
%ADD10C,0.100000*%
%ADD11R,1.500000X1.250000*%
%ADD12R,1.250000X1.500000*%
%ADD13O,3.500120X7.000240*%
%ADD14O,1.600200X2.499360*%
%ADD15R,1.700000X1.700000*%
%ADD16O,1.700000X1.700000*%
%ADD17R,2.300000X0.500000*%
%ADD18R,2.500000X2.000000*%
%ADD19C,0.900000*%
%ADD20R,1.700000X2.000000*%
%ADD21R,2.000000X3.800000*%
%ADD22R,2.000000X1.500000*%
%ADD23R,1.550000X0.300000*%
%ADD24R,0.300000X1.550000*%
%ADD25R,2.000000X7.875000*%
%ADD26R,1.727200X1.727200*%
%ADD27O,1.727200X1.727200*%
%ADD28R,3.200000X1.500000*%
%ADD29C,3.000000*%
G04 APERTURE END LIST*
D10*
D11*
X42150000Y-64500000D03*
X39650000Y-64500000D03*
X39850000Y-76900000D03*
X42350000Y-76900000D03*
D12*
X60600000Y-63850000D03*
X60600000Y-61350000D03*
X60600000Y-56350000D03*
X60600000Y-58850000D03*
X49800000Y-62950000D03*
X49800000Y-65450000D03*
X49800000Y-73450000D03*
X49800000Y-70950000D03*
D11*
X64450000Y-50700000D03*
X61950000Y-50700000D03*
X70250000Y-50500000D03*
X72750000Y-50500000D03*
X75550000Y-50500000D03*
X78050000Y-50500000D03*
X86550000Y-53700000D03*
X89050000Y-53700000D03*
D12*
X86800000Y-60050000D03*
X86800000Y-62550000D03*
X86900000Y-65650000D03*
X86900000Y-68150000D03*
D11*
X84050000Y-75300000D03*
X86550000Y-75300000D03*
X82950000Y-77500000D03*
X85450000Y-77500000D03*
X72950000Y-76500000D03*
X70450000Y-76500000D03*
X86550000Y-56600000D03*
X89050000Y-56600000D03*
X65750000Y-76500000D03*
X68250000Y-76500000D03*
D12*
X59900000Y-69150000D03*
X59900000Y-71650000D03*
X58800000Y-56350000D03*
X58800000Y-58850000D03*
D13*
X80297780Y-102063400D03*
X70099680Y-102063400D03*
D14*
X75200000Y-97798740D03*
X77699360Y-97798740D03*
D13*
X102897780Y-102063400D03*
X92699680Y-102063400D03*
D14*
X97800000Y-97798740D03*
X100299360Y-97798740D03*
D15*
X65200000Y-47400000D03*
D16*
X67740000Y-47400000D03*
X70280000Y-47400000D03*
D15*
X86900000Y-49800000D03*
D16*
X84360000Y-49800000D03*
D17*
X40200000Y-50600000D03*
X40200000Y-51400000D03*
X40200000Y-52200000D03*
X40200000Y-53000000D03*
X40200000Y-53800000D03*
D18*
X40100000Y-47750000D03*
X34600000Y-47750000D03*
X40100000Y-56650000D03*
X34600000Y-56650000D03*
D19*
X37600000Y-50000000D03*
X37600000Y-54400000D03*
D20*
X57600000Y-66800000D03*
X57600000Y-70800000D03*
D21*
X35750000Y-69300000D03*
D22*
X42050000Y-69300000D03*
X42050000Y-67000000D03*
X42050000Y-71600000D03*
D23*
X62800000Y-54650000D03*
X62800000Y-55150000D03*
X62800000Y-55650000D03*
X62800000Y-56150000D03*
X62800000Y-56650000D03*
X62800000Y-57150000D03*
X62800000Y-57650000D03*
X62800000Y-58150000D03*
X62800000Y-58650000D03*
X62800000Y-59150000D03*
X62800000Y-59650000D03*
X62800000Y-60150000D03*
X62800000Y-60650000D03*
X62800000Y-61150000D03*
X62800000Y-61650000D03*
X62800000Y-62150000D03*
X62800000Y-62650000D03*
X62800000Y-63150000D03*
X62800000Y-63650000D03*
X62800000Y-64150000D03*
X62800000Y-64650000D03*
X62800000Y-65150000D03*
X62800000Y-65650000D03*
X62800000Y-66150000D03*
X62800000Y-66650000D03*
X62800000Y-67150000D03*
X62800000Y-67650000D03*
X62800000Y-68150000D03*
X62800000Y-68650000D03*
X62800000Y-69150000D03*
X62800000Y-69650000D03*
X62800000Y-70150000D03*
X62800000Y-70650000D03*
X62800000Y-71150000D03*
X62800000Y-71650000D03*
X62800000Y-72150000D03*
D24*
X64750000Y-74100000D03*
X65250000Y-74100000D03*
X65750000Y-74100000D03*
X66250000Y-74100000D03*
X66750000Y-74100000D03*
X67250000Y-74100000D03*
X67750000Y-74100000D03*
X68250000Y-74100000D03*
X68750000Y-74100000D03*
X69250000Y-74100000D03*
X69750000Y-74100000D03*
X70250000Y-74100000D03*
X70750000Y-74100000D03*
X71250000Y-74100000D03*
X71750000Y-74100000D03*
X72250000Y-74100000D03*
X72750000Y-74100000D03*
X73250000Y-74100000D03*
X73750000Y-74100000D03*
X74250000Y-74100000D03*
X74750000Y-74100000D03*
X75250000Y-74100000D03*
X75750000Y-74100000D03*
X76250000Y-74100000D03*
X76750000Y-74100000D03*
X77250000Y-74100000D03*
X77750000Y-74100000D03*
X78250000Y-74100000D03*
X78750000Y-74100000D03*
X79250000Y-74100000D03*
X79750000Y-74100000D03*
X80250000Y-74100000D03*
X80750000Y-74100000D03*
X81250000Y-74100000D03*
X81750000Y-74100000D03*
X82250000Y-74100000D03*
D23*
X84200000Y-72150000D03*
X84200000Y-71650000D03*
X84200000Y-71150000D03*
X84200000Y-70650000D03*
X84200000Y-70150000D03*
X84200000Y-69650000D03*
X84200000Y-69150000D03*
X84200000Y-68650000D03*
X84200000Y-68150000D03*
X84200000Y-67650000D03*
X84200000Y-67150000D03*
X84200000Y-66650000D03*
X84200000Y-66150000D03*
X84200000Y-65650000D03*
X84200000Y-65150000D03*
X84200000Y-64650000D03*
X84200000Y-64150000D03*
X84200000Y-63650000D03*
X84200000Y-63150000D03*
X84200000Y-62650000D03*
X84200000Y-62150000D03*
X84200000Y-61650000D03*
X84200000Y-61150000D03*
X84200000Y-60650000D03*
X84200000Y-60150000D03*
X84200000Y-59650000D03*
X84200000Y-59150000D03*
X84200000Y-58650000D03*
X84200000Y-58150000D03*
X84200000Y-57650000D03*
X84200000Y-57150000D03*
X84200000Y-56650000D03*
X84200000Y-56150000D03*
X84200000Y-55650000D03*
X84200000Y-55150000D03*
X84200000Y-54650000D03*
D24*
X82250000Y-52700000D03*
X81750000Y-52700000D03*
X81250000Y-52700000D03*
X80750000Y-52700000D03*
X80250000Y-52700000D03*
X79750000Y-52700000D03*
X79250000Y-52700000D03*
X78750000Y-52700000D03*
X78250000Y-52700000D03*
X77750000Y-52700000D03*
X77250000Y-52700000D03*
X76750000Y-52700000D03*
X76250000Y-52700000D03*
X75750000Y-52700000D03*
X75250000Y-52700000D03*
X74750000Y-52700000D03*
X74250000Y-52700000D03*
X73750000Y-52700000D03*
X73250000Y-52700000D03*
X72750000Y-52700000D03*
X72250000Y-52700000D03*
X71750000Y-52700000D03*
X71250000Y-52700000D03*
X70750000Y-52700000D03*
X70250000Y-52700000D03*
X69750000Y-52700000D03*
X69250000Y-52700000D03*
X68750000Y-52700000D03*
X68250000Y-52700000D03*
X67750000Y-52700000D03*
X67250000Y-52700000D03*
X66750000Y-52700000D03*
X66250000Y-52700000D03*
X65750000Y-52700000D03*
X65250000Y-52700000D03*
X64750000Y-52700000D03*
D25*
X53600000Y-62762500D03*
X53600000Y-74637500D03*
D26*
X43300000Y-98650000D03*
D27*
X43300000Y-96110000D03*
X45840000Y-98650000D03*
X45840000Y-96110000D03*
X48380000Y-98650000D03*
X48380000Y-96110000D03*
X50920000Y-98650000D03*
X50920000Y-96110000D03*
X53460000Y-98650000D03*
X53460000Y-96110000D03*
D20*
X38000000Y-91000000D03*
X38000000Y-87000000D03*
X41000000Y-91000000D03*
X41000000Y-87000000D03*
X44000000Y-91000000D03*
X44000000Y-87000000D03*
X47000000Y-91000000D03*
X47000000Y-87000000D03*
X50000000Y-91000000D03*
X50000000Y-87000000D03*
X53000000Y-91000000D03*
X53000000Y-87000000D03*
X56000000Y-91000000D03*
X56000000Y-87000000D03*
X59000000Y-91000000D03*
X59000000Y-87000000D03*
D28*
X41300000Y-61900000D03*
X37300000Y-61900000D03*
X37500000Y-74500000D03*
X41500000Y-74500000D03*
D29*
X45900000Y-67000000D03*
X45800000Y-71500000D03*
M02*
