G04 #@! TF.FileFunction,Soldermask,Bot*
%FSLAX46Y46*%
G04 Gerber Fmt 4.6, Leading zero omitted, Abs format (unit mm)*
G04 Created by KiCad (PCBNEW 4.0.5) date 05/02/17 17:06:42*
%MOMM*%
%LPD*%
G01*
G04 APERTURE LIST*
%ADD10C,0.100000*%
%ADD11R,1.250000X1.500000*%
%ADD12R,1.500000X3.200000*%
%ADD13R,1.500000X1.250000*%
%ADD14R,0.900000X0.800000*%
%ADD15O,3.500120X7.000240*%
%ADD16O,1.600200X2.499360*%
%ADD17R,1.700000X1.700000*%
%ADD18O,1.700000X1.700000*%
%ADD19C,0.900000*%
%ADD20R,1.700000X2.000000*%
%ADD21R,2.000000X1.700000*%
%ADD22R,1.143000X0.508000*%
%ADD23R,1.727200X1.727200*%
%ADD24O,1.727200X1.727200*%
%ADD25C,3.000000*%
%ADD26R,2.500000X2.000000*%
G04 APERTURE END LIST*
D10*
D11*
X72500000Y-90750000D03*
X72500000Y-93250000D03*
X100600000Y-90950000D03*
X100600000Y-93450000D03*
D12*
X55000000Y-71500000D03*
X55000000Y-75500000D03*
X58000000Y-71500000D03*
X58000000Y-75500000D03*
D11*
X60300000Y-70450000D03*
X60300000Y-72950000D03*
X62300000Y-72950000D03*
X62300000Y-70450000D03*
D13*
X77650000Y-76600000D03*
X75150000Y-76600000D03*
D14*
X82600000Y-86750000D03*
X82600000Y-88650000D03*
X80600000Y-87700000D03*
X90200000Y-88750000D03*
X90200000Y-86850000D03*
X92200000Y-87800000D03*
D15*
X80297780Y-102063400D03*
X70099680Y-102063400D03*
D16*
X75200000Y-97798740D03*
X77699360Y-97798740D03*
D15*
X102897780Y-102063400D03*
X92699680Y-102063400D03*
D16*
X97800000Y-97798740D03*
X100299360Y-97798740D03*
D17*
X65200000Y-47400000D03*
D18*
X67740000Y-47400000D03*
X70280000Y-47400000D03*
D17*
X86900000Y-49800000D03*
D18*
X84360000Y-49800000D03*
D19*
X37600000Y-50000000D03*
X37600000Y-54400000D03*
D20*
X75100000Y-93900000D03*
X75100000Y-89900000D03*
D21*
X82100000Y-91300000D03*
X78100000Y-91300000D03*
X90700000Y-91400000D03*
X94700000Y-91400000D03*
D20*
X98100000Y-94100000D03*
X98100000Y-90100000D03*
D21*
X80400000Y-94000000D03*
X84400000Y-94000000D03*
D20*
X80000000Y-74300000D03*
X80000000Y-78300000D03*
X93300000Y-79700000D03*
X93300000Y-83700000D03*
D21*
X73200000Y-47400000D03*
X77200000Y-47400000D03*
X62000000Y-47500000D03*
X58000000Y-47500000D03*
D22*
X82998000Y-83210000D03*
X82998000Y-81940000D03*
X82998000Y-80670000D03*
X82998000Y-79400000D03*
X82998000Y-78130000D03*
X82998000Y-76860000D03*
X82998000Y-75590000D03*
X89348000Y-75590000D03*
X89348000Y-76860000D03*
X89348000Y-79400000D03*
X89348000Y-80670000D03*
X89348000Y-81940000D03*
X89348000Y-83210000D03*
X89348000Y-78130000D03*
D23*
X43300000Y-98650000D03*
D24*
X43300000Y-96110000D03*
X45840000Y-98650000D03*
X45840000Y-96110000D03*
X48380000Y-98650000D03*
X48380000Y-96110000D03*
X50920000Y-98650000D03*
X50920000Y-96110000D03*
X53460000Y-98650000D03*
X53460000Y-96110000D03*
D21*
X95200000Y-94000000D03*
X91200000Y-94000000D03*
D11*
X77700000Y-88750000D03*
X77700000Y-86250000D03*
X95300000Y-86650000D03*
X95300000Y-89150000D03*
D21*
X72500000Y-79200000D03*
X76500000Y-79200000D03*
X76600000Y-83200000D03*
X72600000Y-83200000D03*
X101100000Y-83100000D03*
X97100000Y-83100000D03*
X97000000Y-79100000D03*
X101000000Y-79100000D03*
D25*
X85900000Y-86700000D03*
X84800000Y-72400000D03*
X93400000Y-75200000D03*
X103600000Y-86800000D03*
D26*
X51700000Y-70700000D03*
X51700000Y-74700000D03*
M02*
