G04 #@! TF.FileFunction,Copper,L2,Bot,Signal*
%FSLAX46Y46*%
G04 Gerber Fmt 4.6, Leading zero omitted, Abs format (unit mm)*
G04 Created by KiCad (PCBNEW 4.0.5) date 05/02/17 17:06:41*
%MOMM*%
%LPD*%
G01*
G04 APERTURE LIST*
%ADD10C,0.100000*%
%ADD11R,1.250000X1.500000*%
%ADD12R,1.500000X3.200000*%
%ADD13R,1.500000X1.250000*%
%ADD14R,0.900000X0.800000*%
%ADD15O,3.500120X7.000240*%
%ADD16O,1.600200X2.499360*%
%ADD17R,1.700000X1.700000*%
%ADD18O,1.700000X1.700000*%
%ADD19R,1.700000X2.000000*%
%ADD20R,2.000000X1.700000*%
%ADD21R,1.143000X0.508000*%
%ADD22R,1.727200X1.727200*%
%ADD23O,1.727200X1.727200*%
%ADD24C,3.000000*%
%ADD25R,2.500000X2.000000*%
%ADD26C,1.000000*%
%ADD27C,0.300000*%
%ADD28C,0.254000*%
G04 APERTURE END LIST*
D10*
D11*
X72500000Y-90750000D03*
X72500000Y-93250000D03*
X100600000Y-90950000D03*
X100600000Y-93450000D03*
D12*
X55000000Y-71500000D03*
X55000000Y-75500000D03*
X58000000Y-71500000D03*
X58000000Y-75500000D03*
D11*
X60300000Y-70450000D03*
X60300000Y-72950000D03*
X62300000Y-72950000D03*
X62300000Y-70450000D03*
D13*
X77650000Y-76600000D03*
X75150000Y-76600000D03*
D14*
X82600000Y-86750000D03*
X82600000Y-88650000D03*
X80600000Y-87700000D03*
X90200000Y-88750000D03*
X90200000Y-86850000D03*
X92200000Y-87800000D03*
D15*
X80297780Y-102063400D03*
X70099680Y-102063400D03*
D16*
X75200000Y-97798740D03*
X77699360Y-97798740D03*
D15*
X102897780Y-102063400D03*
X92699680Y-102063400D03*
D16*
X97800000Y-97798740D03*
X100299360Y-97798740D03*
D17*
X65200000Y-47400000D03*
D18*
X67740000Y-47400000D03*
X70280000Y-47400000D03*
D17*
X86900000Y-49800000D03*
D18*
X84360000Y-49800000D03*
D19*
X75100000Y-93900000D03*
X75100000Y-89900000D03*
D20*
X82100000Y-91300000D03*
X78100000Y-91300000D03*
X90700000Y-91400000D03*
X94700000Y-91400000D03*
D19*
X98100000Y-94100000D03*
X98100000Y-90100000D03*
D20*
X80400000Y-94000000D03*
X84400000Y-94000000D03*
D19*
X80000000Y-74300000D03*
X80000000Y-78300000D03*
X93300000Y-79700000D03*
X93300000Y-83700000D03*
D20*
X73200000Y-47400000D03*
X77200000Y-47400000D03*
X62000000Y-47500000D03*
X58000000Y-47500000D03*
D21*
X82998000Y-83210000D03*
X82998000Y-81940000D03*
X82998000Y-80670000D03*
X82998000Y-79400000D03*
X82998000Y-78130000D03*
X82998000Y-76860000D03*
X82998000Y-75590000D03*
X89348000Y-75590000D03*
X89348000Y-76860000D03*
X89348000Y-79400000D03*
X89348000Y-80670000D03*
X89348000Y-81940000D03*
X89348000Y-83210000D03*
X89348000Y-78130000D03*
D22*
X43300000Y-98650000D03*
D23*
X43300000Y-96110000D03*
X45840000Y-98650000D03*
X45840000Y-96110000D03*
X48380000Y-98650000D03*
X48380000Y-96110000D03*
X50920000Y-98650000D03*
X50920000Y-96110000D03*
X53460000Y-98650000D03*
X53460000Y-96110000D03*
D20*
X95200000Y-94000000D03*
X91200000Y-94000000D03*
D11*
X77700000Y-88750000D03*
X77700000Y-86250000D03*
X95300000Y-86650000D03*
X95300000Y-89150000D03*
D20*
X72500000Y-79200000D03*
X76500000Y-79200000D03*
X76600000Y-83200000D03*
X72600000Y-83200000D03*
X101100000Y-83100000D03*
X97100000Y-83100000D03*
X97000000Y-79100000D03*
X101000000Y-79100000D03*
D24*
X85900000Y-86700000D03*
X84800000Y-72400000D03*
X93400000Y-75200000D03*
X103600000Y-86800000D03*
D25*
X51700000Y-70700000D03*
X51700000Y-74700000D03*
D26*
X42500000Y-55500000D03*
X59800000Y-50600000D03*
X35400000Y-59100000D03*
X69200000Y-78200000D03*
X60300000Y-75000000D03*
X66300000Y-71600000D03*
X58600000Y-60900000D03*
X76100000Y-72100000D03*
X88500000Y-62600000D03*
X87800000Y-70000000D03*
X89100000Y-72800000D03*
X90800000Y-55100000D03*
X79900000Y-50500000D03*
X49800000Y-68400000D03*
X41300000Y-78800000D03*
X35500000Y-64400000D03*
X82100000Y-47300000D03*
X70400000Y-79300000D03*
X49900000Y-77600000D03*
X77600000Y-72000000D03*
X104100000Y-83100000D03*
X88400000Y-87600000D03*
X79500000Y-81700000D03*
X86400000Y-91300000D03*
X65000000Y-70300000D03*
X67700000Y-50600000D03*
X81800000Y-55000000D03*
X82200000Y-50500000D03*
X80500000Y-57800000D03*
X42700000Y-51700000D03*
X80500000Y-56200000D03*
X43600000Y-53300000D03*
X61800000Y-78600000D03*
X69900000Y-87400000D03*
X84800000Y-83600000D03*
X80400000Y-70100000D03*
X91300000Y-83700000D03*
X67900000Y-87500000D03*
X64100000Y-79900000D03*
X63200000Y-77600000D03*
X71700000Y-87000000D03*
X87400000Y-77100000D03*
D27*
X80600000Y-87700000D02*
X80600000Y-81700000D01*
X81630000Y-80670000D02*
X82998000Y-80670000D01*
X80600000Y-81700000D02*
X81630000Y-80670000D01*
X72500000Y-90750000D02*
X74250000Y-90750000D01*
X74250000Y-90750000D02*
X75100000Y-89900000D01*
X77700000Y-88750000D02*
X79550000Y-88750000D01*
X79550000Y-88750000D02*
X80600000Y-87700000D01*
X80400000Y-94000000D02*
X79900000Y-94000000D01*
X79900000Y-94000000D02*
X78100000Y-92200000D01*
X78100000Y-92200000D02*
X78100000Y-91300000D01*
X78100000Y-91300000D02*
X78100000Y-89150000D01*
X78100000Y-89150000D02*
X77700000Y-88750000D01*
X75100000Y-89900000D02*
X75400000Y-89900000D01*
X75400000Y-89900000D02*
X76800000Y-91300000D01*
X76800000Y-91300000D02*
X78100000Y-91300000D01*
X92200000Y-87800000D02*
X93400000Y-87800000D01*
X94550000Y-86650000D02*
X95300000Y-86650000D01*
X93400000Y-87800000D02*
X94550000Y-86650000D01*
X98100000Y-90100000D02*
X98100000Y-89800000D01*
X98100000Y-89800000D02*
X96900000Y-88600000D01*
X96900000Y-88600000D02*
X96900000Y-87600000D01*
X96900000Y-87600000D02*
X95950000Y-86650000D01*
X95950000Y-86650000D02*
X95300000Y-86650000D01*
X92200000Y-87800000D02*
X92200000Y-86800000D01*
X87670000Y-78130000D02*
X89348000Y-78130000D01*
X87000000Y-78800000D02*
X87670000Y-78130000D01*
X87000000Y-83900000D02*
X87000000Y-78800000D01*
X88800000Y-85700000D02*
X87000000Y-83900000D01*
X91100000Y-85700000D02*
X88800000Y-85700000D01*
X92200000Y-86800000D02*
X91100000Y-85700000D01*
X92200000Y-87800000D02*
X92400000Y-87800000D01*
X95200000Y-94000000D02*
X95200000Y-91900000D01*
X95200000Y-91900000D02*
X94700000Y-91400000D01*
X94700000Y-91400000D02*
X96800000Y-91400000D01*
X96800000Y-91400000D02*
X98100000Y-90100000D01*
X100600000Y-90950000D02*
X98950000Y-90950000D01*
X98950000Y-90950000D02*
X98100000Y-90100000D01*
X82000000Y-47400000D02*
X82100000Y-47300000D01*
X77200000Y-47400000D02*
X82000000Y-47400000D01*
X70500000Y-79200000D02*
X70400000Y-79300000D01*
X72500000Y-79200000D02*
X70500000Y-79200000D01*
X51700000Y-74700000D02*
X51700000Y-75800000D01*
X51700000Y-75800000D02*
X49900000Y-77600000D01*
X77650000Y-76600000D02*
X77650000Y-72050000D01*
X77650000Y-72050000D02*
X77600000Y-72000000D01*
X101100000Y-83100000D02*
X104100000Y-83100000D01*
X90200000Y-86850000D02*
X89150000Y-86850000D01*
X89150000Y-86850000D02*
X88400000Y-87600000D01*
X82998000Y-79400000D02*
X81800000Y-79400000D01*
X81800000Y-79400000D02*
X79500000Y-81700000D01*
X82600000Y-88650000D02*
X82600000Y-90800000D01*
X82600000Y-90800000D02*
X82100000Y-91300000D01*
X90700000Y-91400000D02*
X86500000Y-91400000D01*
X86400000Y-91300000D02*
X82100000Y-91300000D01*
X86500000Y-91400000D02*
X86400000Y-91300000D01*
X62300000Y-70450000D02*
X64850000Y-70450000D01*
X64850000Y-70450000D02*
X65000000Y-70300000D01*
X60300000Y-70450000D02*
X62300000Y-70450000D01*
X60300000Y-70450000D02*
X59050000Y-70450000D01*
X59050000Y-70450000D02*
X58000000Y-71500000D01*
X55000000Y-71500000D02*
X58000000Y-71500000D01*
X51700000Y-70700000D02*
X54200000Y-70700000D01*
X54200000Y-70700000D02*
X55000000Y-71500000D01*
X70280000Y-47400000D02*
X73200000Y-47400000D01*
X67700000Y-47440000D02*
X67700000Y-50600000D01*
X67700000Y-47440000D02*
X67740000Y-47400000D01*
X62000000Y-47500000D02*
X65100000Y-47500000D01*
X65100000Y-47500000D02*
X65200000Y-47400000D01*
X81800000Y-55000000D02*
X81900000Y-55000000D01*
X86900000Y-50900000D02*
X86900000Y-49800000D01*
X85900000Y-51900000D02*
X86900000Y-50900000D01*
X85000000Y-51900000D02*
X85900000Y-51900000D01*
X81900000Y-55000000D02*
X85000000Y-51900000D01*
X82200000Y-50500000D02*
X83660000Y-50500000D01*
X83660000Y-50500000D02*
X84360000Y-49800000D01*
X80500000Y-57800000D02*
X46500000Y-57800000D01*
X42500000Y-51900000D02*
X42700000Y-51700000D01*
X42500000Y-53800000D02*
X42500000Y-51900000D01*
X46500000Y-57800000D02*
X42500000Y-53800000D01*
X80500000Y-56200000D02*
X46500000Y-56200000D01*
X46500000Y-56200000D02*
X43600000Y-53300000D01*
X82998000Y-83210000D02*
X82998000Y-83798000D01*
X82998000Y-83798000D02*
X85900000Y-86700000D01*
X69900000Y-87300000D02*
X68800000Y-86200000D01*
X68800000Y-86200000D02*
X68800000Y-83100000D01*
X68800000Y-83100000D02*
X64300000Y-78600000D01*
X64300000Y-78600000D02*
X61800000Y-78600000D01*
X84410000Y-83210000D02*
X82998000Y-83210000D01*
X84410000Y-83210000D02*
X84800000Y-83600000D01*
X69900000Y-87400000D02*
X69900000Y-87300000D01*
X82998000Y-81940000D02*
X84160000Y-81940000D01*
X84030000Y-78130000D02*
X82998000Y-78130000D01*
X84600000Y-78700000D02*
X84030000Y-78130000D01*
X84600000Y-81500000D02*
X84600000Y-78700000D01*
X84160000Y-81940000D02*
X84600000Y-81500000D01*
X82998000Y-83210000D02*
X82998000Y-81940000D01*
X72500000Y-93250000D02*
X74450000Y-93250000D01*
X74450000Y-93250000D02*
X75100000Y-93900000D01*
X75200000Y-97798740D02*
X75200000Y-94000000D01*
X75200000Y-94000000D02*
X75100000Y-93900000D01*
X100600000Y-93450000D02*
X98750000Y-93450000D01*
X98750000Y-93450000D02*
X98100000Y-94100000D01*
X97800000Y-97798740D02*
X97800000Y-94400000D01*
X97800000Y-94400000D02*
X98100000Y-94100000D01*
X76600000Y-83200000D02*
X76600000Y-79300000D01*
X76600000Y-79300000D02*
X76500000Y-79200000D01*
X76500000Y-79200000D02*
X79100000Y-79200000D01*
X79100000Y-79200000D02*
X80000000Y-78300000D01*
X80000000Y-78300000D02*
X80400000Y-78300000D01*
X80400000Y-78300000D02*
X81840000Y-76860000D01*
X81840000Y-76860000D02*
X82998000Y-76860000D01*
X97100000Y-83100000D02*
X97100000Y-79200000D01*
X97100000Y-79200000D02*
X97000000Y-79100000D01*
X97000000Y-79100000D02*
X93900000Y-79100000D01*
X93900000Y-79100000D02*
X93300000Y-79700000D01*
X93300000Y-79700000D02*
X93100000Y-79700000D01*
X93100000Y-79700000D02*
X90860000Y-81940000D01*
X90860000Y-81940000D02*
X89348000Y-81940000D01*
X82700000Y-72400000D02*
X80400000Y-70100000D01*
X82700000Y-72400000D02*
X84800000Y-72400000D01*
X82998000Y-75590000D02*
X83310000Y-75590000D01*
X83310000Y-75590000D02*
X84800000Y-74100000D01*
X84800000Y-74100000D02*
X84800000Y-72400000D01*
X80000000Y-74300000D02*
X80900000Y-74300000D01*
X82190000Y-75590000D02*
X82998000Y-75590000D01*
X80900000Y-74300000D02*
X82190000Y-75590000D01*
X90810000Y-83210000D02*
X91300000Y-83700000D01*
X89348000Y-83210000D02*
X90810000Y-83210000D01*
X67900000Y-87500000D02*
X67900000Y-83700000D01*
X67900000Y-83700000D02*
X64100000Y-79900000D01*
X89348000Y-83210000D02*
X90190000Y-83210000D01*
X92200000Y-82600000D02*
X93300000Y-83700000D01*
X90800000Y-82600000D02*
X92200000Y-82600000D01*
X90190000Y-83210000D02*
X90800000Y-82600000D01*
X93300000Y-83700000D02*
X94500000Y-83700000D01*
X94500000Y-83700000D02*
X95100000Y-84300000D01*
X95100000Y-84300000D02*
X97900000Y-84300000D01*
X97900000Y-84300000D02*
X100400000Y-86800000D01*
X100400000Y-86800000D02*
X103600000Y-86800000D01*
X71500000Y-87000000D02*
X69800000Y-85300000D01*
X69800000Y-85300000D02*
X69800000Y-82600000D01*
X69800000Y-82600000D02*
X64800000Y-77600000D01*
X64800000Y-77600000D02*
X63200000Y-77600000D01*
X87400000Y-77100000D02*
X88910000Y-75590000D01*
X71700000Y-87000000D02*
X71500000Y-87000000D01*
X89348000Y-75590000D02*
X88910000Y-75590000D01*
X89348000Y-75590000D02*
X93010000Y-75590000D01*
X93010000Y-75590000D02*
X93400000Y-75200000D01*
X89348000Y-80670000D02*
X90530000Y-80670000D01*
X90660000Y-76860000D02*
X89348000Y-76860000D01*
X91400000Y-77600000D02*
X90660000Y-76860000D01*
X91400000Y-79800000D02*
X91400000Y-77600000D01*
X90530000Y-80670000D02*
X91400000Y-79800000D01*
X89348000Y-75590000D02*
X89348000Y-76860000D01*
D28*
G36*
X111315000Y-109315000D02*
X32685000Y-109315000D01*
X32685000Y-102190400D01*
X67714620Y-102190400D01*
X67714620Y-103940460D01*
X67944773Y-104843516D01*
X68502991Y-105589755D01*
X69304290Y-106065569D01*
X69601667Y-106145946D01*
X69972680Y-106036145D01*
X69972680Y-102190400D01*
X70226680Y-102190400D01*
X70226680Y-106036145D01*
X70597693Y-106145946D01*
X70895070Y-106065569D01*
X71696369Y-105589755D01*
X72254587Y-104843516D01*
X72484740Y-103940460D01*
X72484740Y-102190400D01*
X77912720Y-102190400D01*
X77912720Y-103940460D01*
X78142873Y-104843516D01*
X78701091Y-105589755D01*
X79502390Y-106065569D01*
X79799767Y-106145946D01*
X80170780Y-106036145D01*
X80170780Y-102190400D01*
X80424780Y-102190400D01*
X80424780Y-106036145D01*
X80795793Y-106145946D01*
X81093170Y-106065569D01*
X81894469Y-105589755D01*
X82452687Y-104843516D01*
X82682840Y-103940460D01*
X82682840Y-102190400D01*
X90314620Y-102190400D01*
X90314620Y-103940460D01*
X90544773Y-104843516D01*
X91102991Y-105589755D01*
X91904290Y-106065569D01*
X92201667Y-106145946D01*
X92572680Y-106036145D01*
X92572680Y-102190400D01*
X92826680Y-102190400D01*
X92826680Y-106036145D01*
X93197693Y-106145946D01*
X93495070Y-106065569D01*
X94296369Y-105589755D01*
X94854587Y-104843516D01*
X95084740Y-103940460D01*
X95084740Y-102190400D01*
X100512720Y-102190400D01*
X100512720Y-103940460D01*
X100742873Y-104843516D01*
X101301091Y-105589755D01*
X102102390Y-106065569D01*
X102399767Y-106145946D01*
X102770780Y-106036145D01*
X102770780Y-102190400D01*
X103024780Y-102190400D01*
X103024780Y-106036145D01*
X103395793Y-106145946D01*
X103693170Y-106065569D01*
X104494469Y-105589755D01*
X105052687Y-104843516D01*
X105282840Y-103940460D01*
X105282840Y-102190400D01*
X103024780Y-102190400D01*
X102770780Y-102190400D01*
X100512720Y-102190400D01*
X95084740Y-102190400D01*
X92826680Y-102190400D01*
X92572680Y-102190400D01*
X90314620Y-102190400D01*
X82682840Y-102190400D01*
X80424780Y-102190400D01*
X80170780Y-102190400D01*
X77912720Y-102190400D01*
X72484740Y-102190400D01*
X70226680Y-102190400D01*
X69972680Y-102190400D01*
X67714620Y-102190400D01*
X32685000Y-102190400D01*
X32685000Y-100186340D01*
X67714620Y-100186340D01*
X67714620Y-101936400D01*
X69972680Y-101936400D01*
X69972680Y-98090655D01*
X70226680Y-98090655D01*
X70226680Y-101936400D01*
X72484740Y-101936400D01*
X72484740Y-100186340D01*
X72254587Y-99283284D01*
X71696369Y-98537045D01*
X70895070Y-98061231D01*
X70597693Y-97980854D01*
X70226680Y-98090655D01*
X69972680Y-98090655D01*
X69601667Y-97980854D01*
X69304290Y-98061231D01*
X68502991Y-98537045D01*
X67944773Y-99283284D01*
X67714620Y-100186340D01*
X32685000Y-100186340D01*
X32685000Y-97786400D01*
X41788960Y-97786400D01*
X41788960Y-99513600D01*
X41833238Y-99748917D01*
X41972310Y-99965041D01*
X42184510Y-100110031D01*
X42436400Y-100161040D01*
X44163600Y-100161040D01*
X44398917Y-100116762D01*
X44615041Y-99977690D01*
X44760031Y-99765490D01*
X44768908Y-99721655D01*
X45237152Y-100034526D01*
X45810641Y-100148600D01*
X45869359Y-100148600D01*
X46442848Y-100034526D01*
X46929029Y-99709670D01*
X47110000Y-99438828D01*
X47290971Y-99709670D01*
X47777152Y-100034526D01*
X48350641Y-100148600D01*
X48409359Y-100148600D01*
X48982848Y-100034526D01*
X49469029Y-99709670D01*
X49650000Y-99438828D01*
X49830971Y-99709670D01*
X50317152Y-100034526D01*
X50890641Y-100148600D01*
X50949359Y-100148600D01*
X51522848Y-100034526D01*
X52009029Y-99709670D01*
X52190000Y-99438828D01*
X52370971Y-99709670D01*
X52857152Y-100034526D01*
X53430641Y-100148600D01*
X53489359Y-100148600D01*
X54062848Y-100034526D01*
X54549029Y-99709670D01*
X54873885Y-99223489D01*
X54987959Y-98650000D01*
X54873885Y-98076511D01*
X54549029Y-97590330D01*
X54234248Y-97380000D01*
X54549029Y-97169670D01*
X54873885Y-96683489D01*
X54987959Y-96110000D01*
X54873885Y-95536511D01*
X54549029Y-95050330D01*
X54062848Y-94725474D01*
X53489359Y-94611400D01*
X53430641Y-94611400D01*
X52857152Y-94725474D01*
X52370971Y-95050330D01*
X52190000Y-95321172D01*
X52009029Y-95050330D01*
X51522848Y-94725474D01*
X50949359Y-94611400D01*
X50890641Y-94611400D01*
X50317152Y-94725474D01*
X49830971Y-95050330D01*
X49650000Y-95321172D01*
X49469029Y-95050330D01*
X48982848Y-94725474D01*
X48409359Y-94611400D01*
X48350641Y-94611400D01*
X47777152Y-94725474D01*
X47290971Y-95050330D01*
X47110000Y-95321172D01*
X46929029Y-95050330D01*
X46442848Y-94725474D01*
X45869359Y-94611400D01*
X45810641Y-94611400D01*
X45237152Y-94725474D01*
X44750971Y-95050330D01*
X44570008Y-95321161D01*
X44188490Y-94903179D01*
X43659027Y-94655032D01*
X43427000Y-94775531D01*
X43427000Y-95983000D01*
X43447000Y-95983000D01*
X43447000Y-96237000D01*
X43427000Y-96237000D01*
X43427000Y-96257000D01*
X43173000Y-96257000D01*
X43173000Y-96237000D01*
X41966183Y-96237000D01*
X41845042Y-96469026D01*
X42017312Y-96884947D01*
X42276609Y-97169027D01*
X42201083Y-97183238D01*
X41984959Y-97322310D01*
X41839969Y-97534510D01*
X41788960Y-97786400D01*
X32685000Y-97786400D01*
X32685000Y-95750974D01*
X41845042Y-95750974D01*
X41966183Y-95983000D01*
X43173000Y-95983000D01*
X43173000Y-94775531D01*
X42940973Y-94655032D01*
X42411510Y-94903179D01*
X42017312Y-95335053D01*
X41845042Y-95750974D01*
X32685000Y-95750974D01*
X32685000Y-90000000D01*
X71227560Y-90000000D01*
X71227560Y-91500000D01*
X71271838Y-91735317D01*
X71410910Y-91951441D01*
X71480711Y-91999134D01*
X71423559Y-92035910D01*
X71278569Y-92248110D01*
X71227560Y-92500000D01*
X71227560Y-94000000D01*
X71271838Y-94235317D01*
X71410910Y-94451441D01*
X71623110Y-94596431D01*
X71875000Y-94647440D01*
X73125000Y-94647440D01*
X73360317Y-94603162D01*
X73576441Y-94464090D01*
X73602560Y-94425864D01*
X73602560Y-94900000D01*
X73646838Y-95135317D01*
X73785910Y-95351441D01*
X73998110Y-95496431D01*
X74250000Y-95547440D01*
X74415000Y-95547440D01*
X74415000Y-96143941D01*
X74185231Y-96297468D01*
X73874140Y-96763048D01*
X73764900Y-97312237D01*
X73764900Y-98285243D01*
X73874140Y-98834432D01*
X74185231Y-99300012D01*
X74650811Y-99611103D01*
X75200000Y-99720343D01*
X75749189Y-99611103D01*
X76214769Y-99300012D01*
X76449428Y-98948821D01*
X76774393Y-99352892D01*
X77267503Y-99622781D01*
X77350305Y-99640323D01*
X77572360Y-99518336D01*
X77572360Y-97925740D01*
X77826360Y-97925740D01*
X77826360Y-99518336D01*
X78048415Y-99640323D01*
X78052076Y-99639547D01*
X77912720Y-100186340D01*
X77912720Y-101936400D01*
X80170780Y-101936400D01*
X80170780Y-98090655D01*
X80424780Y-98090655D01*
X80424780Y-101936400D01*
X82682840Y-101936400D01*
X82682840Y-100186340D01*
X90314620Y-100186340D01*
X90314620Y-101936400D01*
X92572680Y-101936400D01*
X92572680Y-98090655D01*
X92826680Y-98090655D01*
X92826680Y-101936400D01*
X95084740Y-101936400D01*
X95084740Y-100186340D01*
X94854587Y-99283284D01*
X94296369Y-98537045D01*
X93495070Y-98061231D01*
X93197693Y-97980854D01*
X92826680Y-98090655D01*
X92572680Y-98090655D01*
X92201667Y-97980854D01*
X91904290Y-98061231D01*
X91102991Y-98537045D01*
X90544773Y-99283284D01*
X90314620Y-100186340D01*
X82682840Y-100186340D01*
X82452687Y-99283284D01*
X81894469Y-98537045D01*
X81093170Y-98061231D01*
X80795793Y-97980854D01*
X80424780Y-98090655D01*
X80170780Y-98090655D01*
X79799767Y-97980854D01*
X79502390Y-98061231D01*
X79134460Y-98279709D01*
X79134460Y-97925740D01*
X77826360Y-97925740D01*
X77572360Y-97925740D01*
X77552360Y-97925740D01*
X77552360Y-97671740D01*
X77572360Y-97671740D01*
X77572360Y-96079144D01*
X77826360Y-96079144D01*
X77826360Y-97671740D01*
X79134460Y-97671740D01*
X79134460Y-97222160D01*
X78976619Y-96682638D01*
X78624327Y-96244588D01*
X78131217Y-95974699D01*
X78048415Y-95957157D01*
X77826360Y-96079144D01*
X77572360Y-96079144D01*
X77350305Y-95957157D01*
X77267503Y-95974699D01*
X76774393Y-96244588D01*
X76449428Y-96648659D01*
X76214769Y-96297468D01*
X75985000Y-96143941D01*
X75985000Y-95540854D01*
X76185317Y-95503162D01*
X76401441Y-95364090D01*
X76546431Y-95151890D01*
X76597440Y-94900000D01*
X76597440Y-92900000D01*
X76553162Y-92664683D01*
X76414090Y-92448559D01*
X76201890Y-92303569D01*
X75950000Y-92252560D01*
X74250000Y-92252560D01*
X74014683Y-92296838D01*
X73798559Y-92435910D01*
X73778683Y-92465000D01*
X73765854Y-92465000D01*
X73728162Y-92264683D01*
X73589090Y-92048559D01*
X73519289Y-92000866D01*
X73576441Y-91964090D01*
X73721431Y-91751890D01*
X73765352Y-91535000D01*
X74188569Y-91535000D01*
X74250000Y-91547440D01*
X75937282Y-91547440D01*
X76244921Y-91855079D01*
X76452560Y-91993819D01*
X76452560Y-92150000D01*
X76496838Y-92385317D01*
X76635910Y-92601441D01*
X76848110Y-92746431D01*
X77100000Y-92797440D01*
X77587282Y-92797440D01*
X78752560Y-93962718D01*
X78752560Y-94850000D01*
X78796838Y-95085317D01*
X78935910Y-95301441D01*
X79148110Y-95446431D01*
X79400000Y-95497440D01*
X81400000Y-95497440D01*
X81635317Y-95453162D01*
X81851441Y-95314090D01*
X81996431Y-95101890D01*
X82047440Y-94850000D01*
X82047440Y-94285750D01*
X82765000Y-94285750D01*
X82765000Y-94976310D01*
X82861673Y-95209699D01*
X83040302Y-95388327D01*
X83273691Y-95485000D01*
X84114250Y-95485000D01*
X84273000Y-95326250D01*
X84273000Y-94127000D01*
X84527000Y-94127000D01*
X84527000Y-95326250D01*
X84685750Y-95485000D01*
X85526309Y-95485000D01*
X85759698Y-95388327D01*
X85938327Y-95209699D01*
X86035000Y-94976310D01*
X86035000Y-94285750D01*
X89565000Y-94285750D01*
X89565000Y-94976310D01*
X89661673Y-95209699D01*
X89840302Y-95388327D01*
X90073691Y-95485000D01*
X90914250Y-95485000D01*
X91073000Y-95326250D01*
X91073000Y-94127000D01*
X91327000Y-94127000D01*
X91327000Y-95326250D01*
X91485750Y-95485000D01*
X92326309Y-95485000D01*
X92559698Y-95388327D01*
X92738327Y-95209699D01*
X92835000Y-94976310D01*
X92835000Y-94285750D01*
X92676250Y-94127000D01*
X91327000Y-94127000D01*
X91073000Y-94127000D01*
X89723750Y-94127000D01*
X89565000Y-94285750D01*
X86035000Y-94285750D01*
X85876250Y-94127000D01*
X84527000Y-94127000D01*
X84273000Y-94127000D01*
X82923750Y-94127000D01*
X82765000Y-94285750D01*
X82047440Y-94285750D01*
X82047440Y-93150000D01*
X82003162Y-92914683D01*
X81927718Y-92797440D01*
X82858716Y-92797440D01*
X82765000Y-93023690D01*
X82765000Y-93714250D01*
X82923750Y-93873000D01*
X84273000Y-93873000D01*
X84273000Y-92673750D01*
X84527000Y-92673750D01*
X84527000Y-93873000D01*
X85876250Y-93873000D01*
X86035000Y-93714250D01*
X86035000Y-93023690D01*
X85938327Y-92790301D01*
X85759698Y-92611673D01*
X85526309Y-92515000D01*
X84685750Y-92515000D01*
X84527000Y-92673750D01*
X84273000Y-92673750D01*
X84114250Y-92515000D01*
X83619146Y-92515000D01*
X83696431Y-92401890D01*
X83747440Y-92150000D01*
X83747440Y-92085000D01*
X85579898Y-92085000D01*
X85756235Y-92261645D01*
X86173244Y-92434803D01*
X86624775Y-92435197D01*
X87042086Y-92262767D01*
X87119989Y-92185000D01*
X89052560Y-92185000D01*
X89052560Y-92250000D01*
X89096838Y-92485317D01*
X89235910Y-92701441D01*
X89448110Y-92846431D01*
X89623695Y-92881988D01*
X89565000Y-93023690D01*
X89565000Y-93714250D01*
X89723750Y-93873000D01*
X91073000Y-93873000D01*
X91073000Y-93853000D01*
X91327000Y-93853000D01*
X91327000Y-93873000D01*
X92676250Y-93873000D01*
X92835000Y-93714250D01*
X92835000Y-93023690D01*
X92738327Y-92790301D01*
X92559698Y-92611673D01*
X92326309Y-92515000D01*
X92287473Y-92515000D01*
X92296431Y-92501890D01*
X92347440Y-92250000D01*
X92347440Y-90550000D01*
X92303162Y-90314683D01*
X92164090Y-90098559D01*
X91951890Y-89953569D01*
X91700000Y-89902560D01*
X89700000Y-89902560D01*
X89464683Y-89946838D01*
X89248559Y-90085910D01*
X89103569Y-90298110D01*
X89052560Y-90550000D01*
X89052560Y-90615000D01*
X87319928Y-90615000D01*
X87043765Y-90338355D01*
X86626756Y-90165197D01*
X86175225Y-90164803D01*
X85757914Y-90337233D01*
X85579837Y-90515000D01*
X83747440Y-90515000D01*
X83747440Y-90450000D01*
X83703162Y-90214683D01*
X83564090Y-89998559D01*
X83385000Y-89876192D01*
X83385000Y-89589018D01*
X83501441Y-89514090D01*
X83646431Y-89301890D01*
X83697440Y-89050000D01*
X83697440Y-89035750D01*
X89115000Y-89035750D01*
X89115000Y-89276310D01*
X89211673Y-89509699D01*
X89390302Y-89688327D01*
X89623691Y-89785000D01*
X89914250Y-89785000D01*
X90073000Y-89626250D01*
X90073000Y-88877000D01*
X90327000Y-88877000D01*
X90327000Y-89626250D01*
X90485750Y-89785000D01*
X90776309Y-89785000D01*
X91009698Y-89688327D01*
X91188327Y-89509699D01*
X91285000Y-89276310D01*
X91285000Y-89035750D01*
X91126250Y-88877000D01*
X90327000Y-88877000D01*
X90073000Y-88877000D01*
X89273750Y-88877000D01*
X89115000Y-89035750D01*
X83697440Y-89035750D01*
X83697440Y-88250000D01*
X83653162Y-88014683D01*
X83514090Y-87798559D01*
X83374250Y-87703010D01*
X83409698Y-87688327D01*
X83588327Y-87509699D01*
X83685000Y-87276310D01*
X83685000Y-87035750D01*
X83526250Y-86877000D01*
X82727000Y-86877000D01*
X82727000Y-86897000D01*
X82473000Y-86897000D01*
X82473000Y-86877000D01*
X81673750Y-86877000D01*
X81587738Y-86963012D01*
X81514090Y-86848559D01*
X81385000Y-86760356D01*
X81385000Y-86223690D01*
X81515000Y-86223690D01*
X81515000Y-86464250D01*
X81673750Y-86623000D01*
X82473000Y-86623000D01*
X82473000Y-85873750D01*
X82727000Y-85873750D01*
X82727000Y-86623000D01*
X83526250Y-86623000D01*
X83685000Y-86464250D01*
X83685000Y-86223690D01*
X83588327Y-85990301D01*
X83409698Y-85811673D01*
X83176309Y-85715000D01*
X82885750Y-85715000D01*
X82727000Y-85873750D01*
X82473000Y-85873750D01*
X82314250Y-85715000D01*
X82023691Y-85715000D01*
X81790302Y-85811673D01*
X81611673Y-85990301D01*
X81515000Y-86223690D01*
X81385000Y-86223690D01*
X81385000Y-82025158D01*
X81793001Y-81617157D01*
X81779060Y-81686000D01*
X81779060Y-82194000D01*
X81823338Y-82429317D01*
X81917666Y-82575907D01*
X81830069Y-82704110D01*
X81779060Y-82956000D01*
X81779060Y-83464000D01*
X81823338Y-83699317D01*
X81962410Y-83915441D01*
X82174610Y-84060431D01*
X82269003Y-84079546D01*
X82272755Y-84098407D01*
X82442921Y-84353079D01*
X83940807Y-85850965D01*
X83765372Y-86273459D01*
X83764630Y-87122815D01*
X84088980Y-87907800D01*
X84689041Y-88508909D01*
X85473459Y-88834628D01*
X86322815Y-88835370D01*
X87107800Y-88511020D01*
X87419703Y-88199661D01*
X87437233Y-88242086D01*
X87756235Y-88561645D01*
X88173244Y-88734803D01*
X88624775Y-88735197D01*
X89042086Y-88562767D01*
X89127876Y-88477126D01*
X89273750Y-88623000D01*
X90073000Y-88623000D01*
X90073000Y-88603000D01*
X90327000Y-88603000D01*
X90327000Y-88623000D01*
X91126250Y-88623000D01*
X91212262Y-88536988D01*
X91285910Y-88651441D01*
X91498110Y-88796431D01*
X91750000Y-88847440D01*
X92650000Y-88847440D01*
X92885317Y-88803162D01*
X93101441Y-88664090D01*
X93155481Y-88585000D01*
X93400000Y-88585000D01*
X93700407Y-88525245D01*
X93955079Y-88355079D01*
X94042498Y-88267660D01*
X94040000Y-88273691D01*
X94040000Y-88864250D01*
X94198750Y-89023000D01*
X95173000Y-89023000D01*
X95173000Y-89003000D01*
X95427000Y-89003000D01*
X95427000Y-89023000D01*
X95447000Y-89023000D01*
X95447000Y-89277000D01*
X95427000Y-89277000D01*
X95427000Y-89297000D01*
X95173000Y-89297000D01*
X95173000Y-89277000D01*
X94198750Y-89277000D01*
X94040000Y-89435750D01*
X94040000Y-89902560D01*
X93700000Y-89902560D01*
X93464683Y-89946838D01*
X93248559Y-90085910D01*
X93103569Y-90298110D01*
X93052560Y-90550000D01*
X93052560Y-92250000D01*
X93096838Y-92485317D01*
X93235910Y-92701441D01*
X93448110Y-92846431D01*
X93615692Y-92880367D01*
X93603569Y-92898110D01*
X93552560Y-93150000D01*
X93552560Y-94850000D01*
X93596838Y-95085317D01*
X93735910Y-95301441D01*
X93948110Y-95446431D01*
X94200000Y-95497440D01*
X96200000Y-95497440D01*
X96435317Y-95453162D01*
X96643772Y-95319025D01*
X96646838Y-95335317D01*
X96785910Y-95551441D01*
X96998110Y-95696431D01*
X97015000Y-95699851D01*
X97015000Y-96143941D01*
X96785231Y-96297468D01*
X96474140Y-96763048D01*
X96364900Y-97312237D01*
X96364900Y-98285243D01*
X96474140Y-98834432D01*
X96785231Y-99300012D01*
X97250811Y-99611103D01*
X97800000Y-99720343D01*
X98349189Y-99611103D01*
X98814769Y-99300012D01*
X99049428Y-98948821D01*
X99374393Y-99352892D01*
X99867503Y-99622781D01*
X99950305Y-99640323D01*
X100172360Y-99518336D01*
X100172360Y-97925740D01*
X100426360Y-97925740D01*
X100426360Y-99518336D01*
X100648415Y-99640323D01*
X100652076Y-99639547D01*
X100512720Y-100186340D01*
X100512720Y-101936400D01*
X102770780Y-101936400D01*
X102770780Y-98090655D01*
X103024780Y-98090655D01*
X103024780Y-101936400D01*
X105282840Y-101936400D01*
X105282840Y-100186340D01*
X105052687Y-99283284D01*
X104494469Y-98537045D01*
X103693170Y-98061231D01*
X103395793Y-97980854D01*
X103024780Y-98090655D01*
X102770780Y-98090655D01*
X102399767Y-97980854D01*
X102102390Y-98061231D01*
X101734460Y-98279709D01*
X101734460Y-97925740D01*
X100426360Y-97925740D01*
X100172360Y-97925740D01*
X100152360Y-97925740D01*
X100152360Y-97671740D01*
X100172360Y-97671740D01*
X100172360Y-96079144D01*
X100426360Y-96079144D01*
X100426360Y-97671740D01*
X101734460Y-97671740D01*
X101734460Y-97222160D01*
X101576619Y-96682638D01*
X101224327Y-96244588D01*
X100731217Y-95974699D01*
X100648415Y-95957157D01*
X100426360Y-96079144D01*
X100172360Y-96079144D01*
X99950305Y-95957157D01*
X99867503Y-95974699D01*
X99374393Y-96244588D01*
X99049428Y-96648659D01*
X98814769Y-96297468D01*
X98585000Y-96143941D01*
X98585000Y-95747440D01*
X98950000Y-95747440D01*
X99185317Y-95703162D01*
X99401441Y-95564090D01*
X99546431Y-95351890D01*
X99597440Y-95100000D01*
X99597440Y-94710564D01*
X99723110Y-94796431D01*
X99975000Y-94847440D01*
X101225000Y-94847440D01*
X101460317Y-94803162D01*
X101676441Y-94664090D01*
X101821431Y-94451890D01*
X101872440Y-94200000D01*
X101872440Y-92700000D01*
X101828162Y-92464683D01*
X101689090Y-92248559D01*
X101619289Y-92200866D01*
X101676441Y-92164090D01*
X101821431Y-91951890D01*
X101872440Y-91700000D01*
X101872440Y-90200000D01*
X101828162Y-89964683D01*
X101689090Y-89748559D01*
X101476890Y-89603569D01*
X101225000Y-89552560D01*
X99975000Y-89552560D01*
X99739683Y-89596838D01*
X99597440Y-89688369D01*
X99597440Y-89100000D01*
X99553162Y-88864683D01*
X99414090Y-88648559D01*
X99201890Y-88503569D01*
X98950000Y-88452560D01*
X97862718Y-88452560D01*
X97685000Y-88274842D01*
X97685000Y-87600000D01*
X97625245Y-87299594D01*
X97455079Y-87044921D01*
X96572440Y-86162282D01*
X96572440Y-85900000D01*
X96528162Y-85664683D01*
X96389090Y-85448559D01*
X96176890Y-85303569D01*
X95925000Y-85252560D01*
X94675000Y-85252560D01*
X94439683Y-85296838D01*
X94223559Y-85435910D01*
X94078569Y-85648110D01*
X94027560Y-85900000D01*
X94027560Y-86073112D01*
X93994921Y-86094921D01*
X93124737Y-86965105D01*
X93114090Y-86948559D01*
X92985000Y-86860356D01*
X92985000Y-86800000D01*
X92925245Y-86499594D01*
X92755079Y-86244921D01*
X91655079Y-85144921D01*
X91400407Y-84974755D01*
X91100000Y-84915000D01*
X89125158Y-84915000D01*
X87785000Y-83574842D01*
X87785000Y-79125158D01*
X87995158Y-78915000D01*
X88184864Y-78915000D01*
X88141500Y-79019691D01*
X88141500Y-79114250D01*
X88300250Y-79273000D01*
X89221000Y-79273000D01*
X89221000Y-79253000D01*
X89475000Y-79253000D01*
X89475000Y-79273000D01*
X90395750Y-79273000D01*
X90554500Y-79114250D01*
X90554500Y-79019691D01*
X90457827Y-78786302D01*
X90431291Y-78759765D01*
X90515931Y-78635890D01*
X90566940Y-78384000D01*
X90566940Y-77877098D01*
X90615000Y-77925158D01*
X90615000Y-79474842D01*
X90479296Y-79610546D01*
X90395750Y-79527000D01*
X89475000Y-79527000D01*
X89475000Y-79547000D01*
X89221000Y-79547000D01*
X89221000Y-79527000D01*
X88300250Y-79527000D01*
X88141500Y-79685750D01*
X88141500Y-79780309D01*
X88238173Y-80013698D01*
X88264709Y-80040235D01*
X88180069Y-80164110D01*
X88129060Y-80416000D01*
X88129060Y-80924000D01*
X88173338Y-81159317D01*
X88267666Y-81305907D01*
X88180069Y-81434110D01*
X88129060Y-81686000D01*
X88129060Y-82194000D01*
X88173338Y-82429317D01*
X88267666Y-82575907D01*
X88180069Y-82704110D01*
X88129060Y-82956000D01*
X88129060Y-83464000D01*
X88173338Y-83699317D01*
X88312410Y-83915441D01*
X88524610Y-84060431D01*
X88776500Y-84111440D01*
X89919500Y-84111440D01*
X90154817Y-84067162D01*
X90209182Y-84032179D01*
X90337233Y-84342086D01*
X90656235Y-84661645D01*
X91073244Y-84834803D01*
X91524775Y-84835197D01*
X91806125Y-84718945D01*
X91846838Y-84935317D01*
X91985910Y-85151441D01*
X92198110Y-85296431D01*
X92450000Y-85347440D01*
X94150000Y-85347440D01*
X94385317Y-85303162D01*
X94601441Y-85164090D01*
X94728683Y-84977865D01*
X94799593Y-85025245D01*
X95100000Y-85085000D01*
X97574842Y-85085000D01*
X99844921Y-87355079D01*
X100099594Y-87525245D01*
X100400000Y-87585000D01*
X101614282Y-87585000D01*
X101788980Y-88007800D01*
X102389041Y-88608909D01*
X103173459Y-88934628D01*
X104022815Y-88935370D01*
X104807800Y-88611020D01*
X105408909Y-88010959D01*
X105734628Y-87226541D01*
X105735370Y-86377185D01*
X105411020Y-85592200D01*
X104810959Y-84991091D01*
X104026541Y-84665372D01*
X103177185Y-84664630D01*
X102392200Y-84988980D01*
X101791091Y-85589041D01*
X101614217Y-86015000D01*
X100725158Y-86015000D01*
X98732741Y-84022583D01*
X98747440Y-83950000D01*
X98747440Y-82250000D01*
X99452560Y-82250000D01*
X99452560Y-83950000D01*
X99496838Y-84185317D01*
X99635910Y-84401441D01*
X99848110Y-84546431D01*
X100100000Y-84597440D01*
X102100000Y-84597440D01*
X102335317Y-84553162D01*
X102551441Y-84414090D01*
X102696431Y-84201890D01*
X102747440Y-83950000D01*
X102747440Y-83885000D01*
X103279898Y-83885000D01*
X103456235Y-84061645D01*
X103873244Y-84234803D01*
X104324775Y-84235197D01*
X104742086Y-84062767D01*
X105061645Y-83743765D01*
X105234803Y-83326756D01*
X105235197Y-82875225D01*
X105062767Y-82457914D01*
X104743765Y-82138355D01*
X104326756Y-81965197D01*
X103875225Y-81964803D01*
X103457914Y-82137233D01*
X103279837Y-82315000D01*
X102747440Y-82315000D01*
X102747440Y-82250000D01*
X102703162Y-82014683D01*
X102564090Y-81798559D01*
X102351890Y-81653569D01*
X102100000Y-81602560D01*
X100100000Y-81602560D01*
X99864683Y-81646838D01*
X99648559Y-81785910D01*
X99503569Y-81998110D01*
X99452560Y-82250000D01*
X98747440Y-82250000D01*
X98703162Y-82014683D01*
X98564090Y-81798559D01*
X98351890Y-81653569D01*
X98100000Y-81602560D01*
X97885000Y-81602560D01*
X97885000Y-80597440D01*
X98000000Y-80597440D01*
X98235317Y-80553162D01*
X98451441Y-80414090D01*
X98596431Y-80201890D01*
X98647440Y-79950000D01*
X98647440Y-79385750D01*
X99365000Y-79385750D01*
X99365000Y-80076310D01*
X99461673Y-80309699D01*
X99640302Y-80488327D01*
X99873691Y-80585000D01*
X100714250Y-80585000D01*
X100873000Y-80426250D01*
X100873000Y-79227000D01*
X101127000Y-79227000D01*
X101127000Y-80426250D01*
X101285750Y-80585000D01*
X102126309Y-80585000D01*
X102359698Y-80488327D01*
X102538327Y-80309699D01*
X102635000Y-80076310D01*
X102635000Y-79385750D01*
X102476250Y-79227000D01*
X101127000Y-79227000D01*
X100873000Y-79227000D01*
X99523750Y-79227000D01*
X99365000Y-79385750D01*
X98647440Y-79385750D01*
X98647440Y-78250000D01*
X98623674Y-78123690D01*
X99365000Y-78123690D01*
X99365000Y-78814250D01*
X99523750Y-78973000D01*
X100873000Y-78973000D01*
X100873000Y-77773750D01*
X101127000Y-77773750D01*
X101127000Y-78973000D01*
X102476250Y-78973000D01*
X102635000Y-78814250D01*
X102635000Y-78123690D01*
X102538327Y-77890301D01*
X102359698Y-77711673D01*
X102126309Y-77615000D01*
X101285750Y-77615000D01*
X101127000Y-77773750D01*
X100873000Y-77773750D01*
X100714250Y-77615000D01*
X99873691Y-77615000D01*
X99640302Y-77711673D01*
X99461673Y-77890301D01*
X99365000Y-78123690D01*
X98623674Y-78123690D01*
X98603162Y-78014683D01*
X98464090Y-77798559D01*
X98251890Y-77653569D01*
X98000000Y-77602560D01*
X96000000Y-77602560D01*
X95764683Y-77646838D01*
X95548559Y-77785910D01*
X95403569Y-77998110D01*
X95352560Y-78250000D01*
X95352560Y-78315000D01*
X94656844Y-78315000D01*
X94614090Y-78248559D01*
X94401890Y-78103569D01*
X94150000Y-78052560D01*
X92450000Y-78052560D01*
X92214683Y-78096838D01*
X92185000Y-78115938D01*
X92185000Y-77600000D01*
X92148217Y-77415079D01*
X92125245Y-77299593D01*
X91955079Y-77044921D01*
X91285158Y-76375000D01*
X91575427Y-76375000D01*
X91588980Y-76407800D01*
X92189041Y-77008909D01*
X92973459Y-77334628D01*
X93822815Y-77335370D01*
X94607800Y-77011020D01*
X95208909Y-76410959D01*
X95534628Y-75626541D01*
X95535370Y-74777185D01*
X95211020Y-73992200D01*
X94610959Y-73391091D01*
X93826541Y-73065372D01*
X92977185Y-73064630D01*
X92192200Y-73388980D01*
X91591091Y-73989041D01*
X91265372Y-74773459D01*
X91265344Y-74805000D01*
X90267151Y-74805000D01*
X90171390Y-74739569D01*
X89919500Y-74688560D01*
X88776500Y-74688560D01*
X88541183Y-74732838D01*
X88325059Y-74871910D01*
X88180069Y-75084110D01*
X88148160Y-75241683D01*
X87424822Y-75965021D01*
X87175225Y-75964803D01*
X86757914Y-76137233D01*
X86438355Y-76456235D01*
X86265197Y-76873244D01*
X86264803Y-77324775D01*
X86437233Y-77742086D01*
X86692272Y-77997570D01*
X86444921Y-78244921D01*
X86274755Y-78499593D01*
X86239913Y-78674755D01*
X86215000Y-78800000D01*
X86215000Y-83900000D01*
X86274755Y-84200407D01*
X86444921Y-84455079D01*
X86717593Y-84727751D01*
X86326541Y-84565372D01*
X85477185Y-84564630D01*
X85050918Y-84740760D01*
X85039338Y-84729180D01*
X85442086Y-84562767D01*
X85761645Y-84243765D01*
X85934803Y-83826756D01*
X85935197Y-83375225D01*
X85762767Y-82957914D01*
X85443765Y-82638355D01*
X85026756Y-82465197D01*
X84745207Y-82464951D01*
X85155079Y-82055079D01*
X85325245Y-81800407D01*
X85385000Y-81500000D01*
X85385000Y-78700000D01*
X85325245Y-78399594D01*
X85155079Y-78144921D01*
X84585079Y-77574921D01*
X84330407Y-77404755D01*
X84162233Y-77371303D01*
X84165931Y-77365890D01*
X84216940Y-77114000D01*
X84216940Y-76606000D01*
X84172662Y-76370683D01*
X84078334Y-76224093D01*
X84165931Y-76095890D01*
X84216940Y-75844000D01*
X84216940Y-75793218D01*
X85355079Y-74655079D01*
X85516014Y-74414222D01*
X86007800Y-74211020D01*
X86608909Y-73610959D01*
X86934628Y-72826541D01*
X86935370Y-71977185D01*
X86611020Y-71192200D01*
X86010959Y-70591091D01*
X85226541Y-70265372D01*
X84377185Y-70264630D01*
X83592200Y-70588980D01*
X82991091Y-71189041D01*
X82876108Y-71465950D01*
X81534979Y-70124821D01*
X81535197Y-69875225D01*
X81362767Y-69457914D01*
X81043765Y-69138355D01*
X80626756Y-68965197D01*
X80175225Y-68964803D01*
X79757914Y-69137233D01*
X79438355Y-69456235D01*
X79265197Y-69873244D01*
X79264803Y-70324775D01*
X79437233Y-70742086D01*
X79756235Y-71061645D01*
X80173244Y-71234803D01*
X80424865Y-71235023D01*
X82144921Y-72955079D01*
X82399593Y-73125245D01*
X82700000Y-73185000D01*
X82814282Y-73185000D01*
X82988980Y-73607800D01*
X83584991Y-74204851D01*
X83101282Y-74688560D01*
X82426500Y-74688560D01*
X82403117Y-74692960D01*
X81497440Y-73787282D01*
X81497440Y-73300000D01*
X81453162Y-73064683D01*
X81314090Y-72848559D01*
X81101890Y-72703569D01*
X80850000Y-72652560D01*
X79150000Y-72652560D01*
X78914683Y-72696838D01*
X78698559Y-72835910D01*
X78553569Y-73048110D01*
X78502560Y-73300000D01*
X78502560Y-75300000D01*
X78512014Y-75350243D01*
X78435000Y-75334648D01*
X78435000Y-72770189D01*
X78561645Y-72643765D01*
X78734803Y-72226756D01*
X78735197Y-71775225D01*
X78562767Y-71357914D01*
X78243765Y-71038355D01*
X77826756Y-70865197D01*
X77375225Y-70864803D01*
X76957914Y-71037233D01*
X76638355Y-71356235D01*
X76465197Y-71773244D01*
X76464803Y-72224775D01*
X76637233Y-72642086D01*
X76865000Y-72870251D01*
X76865000Y-75334146D01*
X76664683Y-75371838D01*
X76448559Y-75510910D01*
X76402031Y-75579006D01*
X76259698Y-75436673D01*
X76026309Y-75340000D01*
X75435750Y-75340000D01*
X75277000Y-75498750D01*
X75277000Y-76473000D01*
X75297000Y-76473000D01*
X75297000Y-76727000D01*
X75277000Y-76727000D01*
X75277000Y-76747000D01*
X75023000Y-76747000D01*
X75023000Y-76727000D01*
X73923750Y-76727000D01*
X73765000Y-76885750D01*
X73765000Y-77351310D01*
X73861673Y-77584699D01*
X74040302Y-77763327D01*
X74273691Y-77860000D01*
X74864250Y-77860000D01*
X75022998Y-77701252D01*
X75022998Y-77860000D01*
X75088824Y-77860000D01*
X75048559Y-77885910D01*
X74903569Y-78098110D01*
X74852560Y-78350000D01*
X74852560Y-80050000D01*
X74896838Y-80285317D01*
X75035910Y-80501441D01*
X75248110Y-80646431D01*
X75500000Y-80697440D01*
X75815000Y-80697440D01*
X75815000Y-81702560D01*
X75600000Y-81702560D01*
X75364683Y-81746838D01*
X75148559Y-81885910D01*
X75003569Y-82098110D01*
X74952560Y-82350000D01*
X74952560Y-84050000D01*
X74996838Y-84285317D01*
X75135910Y-84501441D01*
X75348110Y-84646431D01*
X75600000Y-84697440D01*
X77600000Y-84697440D01*
X77835317Y-84653162D01*
X78051441Y-84514090D01*
X78196431Y-84301890D01*
X78247440Y-84050000D01*
X78247440Y-82350000D01*
X78203162Y-82114683D01*
X78064090Y-81898559D01*
X77851890Y-81753569D01*
X77600000Y-81702560D01*
X77385000Y-81702560D01*
X77385000Y-80697440D01*
X77500000Y-80697440D01*
X77735317Y-80653162D01*
X77951441Y-80514090D01*
X78096431Y-80301890D01*
X78147440Y-80050000D01*
X78147440Y-79985000D01*
X79100000Y-79985000D01*
X79288826Y-79947440D01*
X80142402Y-79947440D01*
X79524821Y-80565021D01*
X79275225Y-80564803D01*
X78857914Y-80737233D01*
X78538355Y-81056235D01*
X78365197Y-81473244D01*
X78364803Y-81924775D01*
X78537233Y-82342086D01*
X78856235Y-82661645D01*
X79273244Y-82834803D01*
X79724775Y-82835197D01*
X79815000Y-82797917D01*
X79815000Y-86760982D01*
X79698559Y-86835910D01*
X79553569Y-87048110D01*
X79502560Y-87300000D01*
X79502560Y-87687282D01*
X79224842Y-87965000D01*
X78965854Y-87965000D01*
X78928162Y-87764683D01*
X78789090Y-87548559D01*
X78720994Y-87502031D01*
X78863327Y-87359698D01*
X78960000Y-87126309D01*
X78960000Y-86535750D01*
X78801250Y-86377000D01*
X77827000Y-86377000D01*
X77827000Y-86397000D01*
X77573000Y-86397000D01*
X77573000Y-86377000D01*
X76598750Y-86377000D01*
X76440000Y-86535750D01*
X76440000Y-87126309D01*
X76536673Y-87359698D01*
X76677910Y-87500936D01*
X76623559Y-87535910D01*
X76478569Y-87748110D01*
X76427560Y-88000000D01*
X76427560Y-88469492D01*
X76414090Y-88448559D01*
X76201890Y-88303569D01*
X75950000Y-88252560D01*
X74250000Y-88252560D01*
X74014683Y-88296838D01*
X73798559Y-88435910D01*
X73653569Y-88648110D01*
X73602560Y-88900000D01*
X73602560Y-89569492D01*
X73589090Y-89548559D01*
X73376890Y-89403569D01*
X73125000Y-89352560D01*
X71875000Y-89352560D01*
X71639683Y-89396838D01*
X71423559Y-89535910D01*
X71278569Y-89748110D01*
X71227560Y-90000000D01*
X32685000Y-90000000D01*
X32685000Y-78824775D01*
X60664803Y-78824775D01*
X60837233Y-79242086D01*
X61156235Y-79561645D01*
X61573244Y-79734803D01*
X62024775Y-79735197D01*
X62442086Y-79562767D01*
X62620163Y-79385000D01*
X63084887Y-79385000D01*
X62965197Y-79673244D01*
X62964803Y-80124775D01*
X63137233Y-80542086D01*
X63456235Y-80861645D01*
X63873244Y-81034803D01*
X64124865Y-81035023D01*
X67115000Y-84025157D01*
X67115000Y-86679898D01*
X66938355Y-86856235D01*
X66765197Y-87273244D01*
X66764803Y-87724775D01*
X66937233Y-88142086D01*
X67256235Y-88461645D01*
X67673244Y-88634803D01*
X68124775Y-88635197D01*
X68542086Y-88462767D01*
X68861645Y-88143765D01*
X68920591Y-88001809D01*
X68937233Y-88042086D01*
X69256235Y-88361645D01*
X69673244Y-88534803D01*
X70124775Y-88535197D01*
X70542086Y-88362767D01*
X70861645Y-88043765D01*
X70942891Y-87848103D01*
X71056235Y-87961645D01*
X71473244Y-88134803D01*
X71924775Y-88135197D01*
X72342086Y-87962767D01*
X72661645Y-87643765D01*
X72834803Y-87226756D01*
X72835197Y-86775225D01*
X72662767Y-86357914D01*
X72343765Y-86038355D01*
X71926756Y-85865197D01*
X71475225Y-85864803D01*
X71475038Y-85864880D01*
X70983849Y-85373691D01*
X76440000Y-85373691D01*
X76440000Y-85964250D01*
X76598750Y-86123000D01*
X77573000Y-86123000D01*
X77573000Y-85023750D01*
X77827000Y-85023750D01*
X77827000Y-86123000D01*
X78801250Y-86123000D01*
X78960000Y-85964250D01*
X78960000Y-85373691D01*
X78863327Y-85140302D01*
X78684699Y-84961673D01*
X78451310Y-84865000D01*
X77985750Y-84865000D01*
X77827000Y-85023750D01*
X77573000Y-85023750D01*
X77414250Y-84865000D01*
X76948690Y-84865000D01*
X76715301Y-84961673D01*
X76536673Y-85140302D01*
X76440000Y-85373691D01*
X70983849Y-85373691D01*
X70585000Y-84974842D01*
X70585000Y-83485750D01*
X70965000Y-83485750D01*
X70965000Y-84176310D01*
X71061673Y-84409699D01*
X71240302Y-84588327D01*
X71473691Y-84685000D01*
X72314250Y-84685000D01*
X72473000Y-84526250D01*
X72473000Y-83327000D01*
X72727000Y-83327000D01*
X72727000Y-84526250D01*
X72885750Y-84685000D01*
X73726309Y-84685000D01*
X73959698Y-84588327D01*
X74138327Y-84409699D01*
X74235000Y-84176310D01*
X74235000Y-83485750D01*
X74076250Y-83327000D01*
X72727000Y-83327000D01*
X72473000Y-83327000D01*
X71123750Y-83327000D01*
X70965000Y-83485750D01*
X70585000Y-83485750D01*
X70585000Y-82600000D01*
X70525245Y-82299594D01*
X70474528Y-82223690D01*
X70965000Y-82223690D01*
X70965000Y-82914250D01*
X71123750Y-83073000D01*
X72473000Y-83073000D01*
X72473000Y-81873750D01*
X72727000Y-81873750D01*
X72727000Y-83073000D01*
X74076250Y-83073000D01*
X74235000Y-82914250D01*
X74235000Y-82223690D01*
X74138327Y-81990301D01*
X73959698Y-81811673D01*
X73726309Y-81715000D01*
X72885750Y-81715000D01*
X72727000Y-81873750D01*
X72473000Y-81873750D01*
X72314250Y-81715000D01*
X71473691Y-81715000D01*
X71240302Y-81811673D01*
X71061673Y-81990301D01*
X70965000Y-82223690D01*
X70474528Y-82223690D01*
X70355079Y-82044921D01*
X67834933Y-79524775D01*
X69264803Y-79524775D01*
X69437233Y-79942086D01*
X69756235Y-80261645D01*
X70173244Y-80434803D01*
X70624775Y-80435197D01*
X70915883Y-80314913D01*
X71035910Y-80501441D01*
X71248110Y-80646431D01*
X71500000Y-80697440D01*
X73500000Y-80697440D01*
X73735317Y-80653162D01*
X73951441Y-80514090D01*
X74096431Y-80301890D01*
X74147440Y-80050000D01*
X74147440Y-78350000D01*
X74103162Y-78114683D01*
X73964090Y-77898559D01*
X73751890Y-77753569D01*
X73500000Y-77702560D01*
X71500000Y-77702560D01*
X71264683Y-77746838D01*
X71048559Y-77885910D01*
X70903569Y-78098110D01*
X70869566Y-78266021D01*
X70626756Y-78165197D01*
X70175225Y-78164803D01*
X69757914Y-78337233D01*
X69438355Y-78656235D01*
X69265197Y-79073244D01*
X69264803Y-79524775D01*
X67834933Y-79524775D01*
X65355079Y-77044921D01*
X65100407Y-76874755D01*
X64800000Y-76815000D01*
X64020102Y-76815000D01*
X63843765Y-76638355D01*
X63426756Y-76465197D01*
X62975225Y-76464803D01*
X62557914Y-76637233D01*
X62238355Y-76956235D01*
X62065197Y-77373244D01*
X62065103Y-77481120D01*
X62026756Y-77465197D01*
X61575225Y-77464803D01*
X61157914Y-77637233D01*
X60838355Y-77956235D01*
X60665197Y-78373244D01*
X60664803Y-78824775D01*
X32685000Y-78824775D01*
X32685000Y-77824775D01*
X48764803Y-77824775D01*
X48937233Y-78242086D01*
X49256235Y-78561645D01*
X49673244Y-78734803D01*
X50124775Y-78735197D01*
X50542086Y-78562767D01*
X50861645Y-78243765D01*
X51034803Y-77826756D01*
X51035023Y-77575135D01*
X52255079Y-76355079D01*
X52260183Y-76347440D01*
X52950000Y-76347440D01*
X53185317Y-76303162D01*
X53401441Y-76164090D01*
X53546431Y-75951890D01*
X53580075Y-75785750D01*
X53615000Y-75785750D01*
X53615000Y-77226309D01*
X53711673Y-77459698D01*
X53890301Y-77638327D01*
X54123690Y-77735000D01*
X54714250Y-77735000D01*
X54873000Y-77576250D01*
X54873000Y-75627000D01*
X55127000Y-75627000D01*
X55127000Y-77576250D01*
X55285750Y-77735000D01*
X55876310Y-77735000D01*
X56109699Y-77638327D01*
X56288327Y-77459698D01*
X56385000Y-77226309D01*
X56385000Y-75785750D01*
X56615000Y-75785750D01*
X56615000Y-77226309D01*
X56711673Y-77459698D01*
X56890301Y-77638327D01*
X57123690Y-77735000D01*
X57714250Y-77735000D01*
X57873000Y-77576250D01*
X57873000Y-75627000D01*
X58127000Y-75627000D01*
X58127000Y-77576250D01*
X58285750Y-77735000D01*
X58876310Y-77735000D01*
X59109699Y-77638327D01*
X59288327Y-77459698D01*
X59385000Y-77226309D01*
X59385000Y-75848690D01*
X73765000Y-75848690D01*
X73765000Y-76314250D01*
X73923750Y-76473000D01*
X75023000Y-76473000D01*
X75023000Y-75498750D01*
X74864250Y-75340000D01*
X74273691Y-75340000D01*
X74040302Y-75436673D01*
X73861673Y-75615301D01*
X73765000Y-75848690D01*
X59385000Y-75848690D01*
X59385000Y-75785750D01*
X59226250Y-75627000D01*
X58127000Y-75627000D01*
X57873000Y-75627000D01*
X56773750Y-75627000D01*
X56615000Y-75785750D01*
X56385000Y-75785750D01*
X56226250Y-75627000D01*
X55127000Y-75627000D01*
X54873000Y-75627000D01*
X53773750Y-75627000D01*
X53615000Y-75785750D01*
X53580075Y-75785750D01*
X53597440Y-75700000D01*
X53597440Y-73700000D01*
X53553162Y-73464683D01*
X53414090Y-73248559D01*
X53201890Y-73103569D01*
X52950000Y-73052560D01*
X50450000Y-73052560D01*
X50214683Y-73096838D01*
X49998559Y-73235910D01*
X49853569Y-73448110D01*
X49802560Y-73700000D01*
X49802560Y-75700000D01*
X49846838Y-75935317D01*
X49985910Y-76151441D01*
X50135910Y-76253932D01*
X49924821Y-76465021D01*
X49675225Y-76464803D01*
X49257914Y-76637233D01*
X48938355Y-76956235D01*
X48765197Y-77373244D01*
X48764803Y-77824775D01*
X32685000Y-77824775D01*
X32685000Y-69700000D01*
X49802560Y-69700000D01*
X49802560Y-71700000D01*
X49846838Y-71935317D01*
X49985910Y-72151441D01*
X50198110Y-72296431D01*
X50450000Y-72347440D01*
X52950000Y-72347440D01*
X53185317Y-72303162D01*
X53401441Y-72164090D01*
X53546431Y-71951890D01*
X53597440Y-71700000D01*
X53597440Y-71485000D01*
X53602560Y-71485000D01*
X53602560Y-73100000D01*
X53646838Y-73335317D01*
X53752482Y-73499493D01*
X53711673Y-73540302D01*
X53615000Y-73773691D01*
X53615000Y-75214250D01*
X53773750Y-75373000D01*
X54873000Y-75373000D01*
X54873000Y-75353000D01*
X55127000Y-75353000D01*
X55127000Y-75373000D01*
X56226250Y-75373000D01*
X56385000Y-75214250D01*
X56385000Y-73773691D01*
X56288327Y-73540302D01*
X56246366Y-73498340D01*
X56346431Y-73351890D01*
X56397440Y-73100000D01*
X56397440Y-72285000D01*
X56602560Y-72285000D01*
X56602560Y-73100000D01*
X56646838Y-73335317D01*
X56752482Y-73499493D01*
X56711673Y-73540302D01*
X56615000Y-73773691D01*
X56615000Y-75214250D01*
X56773750Y-75373000D01*
X57873000Y-75373000D01*
X57873000Y-75353000D01*
X58127000Y-75353000D01*
X58127000Y-75373000D01*
X59226250Y-75373000D01*
X59385000Y-75214250D01*
X59385000Y-74267197D01*
X59548690Y-74335000D01*
X60014250Y-74335000D01*
X60173000Y-74176250D01*
X60173000Y-73077000D01*
X60427000Y-73077000D01*
X60427000Y-74176250D01*
X60585750Y-74335000D01*
X61051310Y-74335000D01*
X61284699Y-74238327D01*
X61300000Y-74223026D01*
X61315301Y-74238327D01*
X61548690Y-74335000D01*
X62014250Y-74335000D01*
X62173000Y-74176250D01*
X62173000Y-73077000D01*
X62427000Y-73077000D01*
X62427000Y-74176250D01*
X62585750Y-74335000D01*
X63051310Y-74335000D01*
X63284699Y-74238327D01*
X63463327Y-74059698D01*
X63560000Y-73826309D01*
X63560000Y-73235750D01*
X63401250Y-73077000D01*
X62427000Y-73077000D01*
X62173000Y-73077000D01*
X60427000Y-73077000D01*
X60173000Y-73077000D01*
X60153000Y-73077000D01*
X60153000Y-72823000D01*
X60173000Y-72823000D01*
X60173000Y-72803000D01*
X60427000Y-72803000D01*
X60427000Y-72823000D01*
X62173000Y-72823000D01*
X62173000Y-72803000D01*
X62427000Y-72803000D01*
X62427000Y-72823000D01*
X63401250Y-72823000D01*
X63560000Y-72664250D01*
X63560000Y-72073691D01*
X63463327Y-71840302D01*
X63322090Y-71699064D01*
X63376441Y-71664090D01*
X63521431Y-71451890D01*
X63565352Y-71235000D01*
X64329636Y-71235000D01*
X64356235Y-71261645D01*
X64773244Y-71434803D01*
X65224775Y-71435197D01*
X65642086Y-71262767D01*
X65961645Y-70943765D01*
X66134803Y-70526756D01*
X66135197Y-70075225D01*
X65962767Y-69657914D01*
X65643765Y-69338355D01*
X65226756Y-69165197D01*
X64775225Y-69164803D01*
X64357914Y-69337233D01*
X64038355Y-69656235D01*
X64034715Y-69665000D01*
X63565854Y-69665000D01*
X63528162Y-69464683D01*
X63389090Y-69248559D01*
X63176890Y-69103569D01*
X62925000Y-69052560D01*
X61675000Y-69052560D01*
X61439683Y-69096838D01*
X61299273Y-69187190D01*
X61176890Y-69103569D01*
X60925000Y-69052560D01*
X59675000Y-69052560D01*
X59439683Y-69096838D01*
X59223559Y-69235910D01*
X59121492Y-69385290D01*
X59001890Y-69303569D01*
X58750000Y-69252560D01*
X57250000Y-69252560D01*
X57014683Y-69296838D01*
X56798559Y-69435910D01*
X56653569Y-69648110D01*
X56602560Y-69900000D01*
X56602560Y-70715000D01*
X56397440Y-70715000D01*
X56397440Y-69900000D01*
X56353162Y-69664683D01*
X56214090Y-69448559D01*
X56001890Y-69303569D01*
X55750000Y-69252560D01*
X54250000Y-69252560D01*
X54014683Y-69296838D01*
X53798559Y-69435910D01*
X53653569Y-69648110D01*
X53602560Y-69900000D01*
X53602560Y-69915000D01*
X53597440Y-69915000D01*
X53597440Y-69700000D01*
X53553162Y-69464683D01*
X53414090Y-69248559D01*
X53201890Y-69103569D01*
X52950000Y-69052560D01*
X50450000Y-69052560D01*
X50214683Y-69096838D01*
X49998559Y-69235910D01*
X49853569Y-69448110D01*
X49802560Y-69700000D01*
X32685000Y-69700000D01*
X32685000Y-54614873D01*
X36514812Y-54614873D01*
X36679646Y-55013800D01*
X36984595Y-55319282D01*
X37383233Y-55484811D01*
X37814873Y-55485188D01*
X38213800Y-55320354D01*
X38519282Y-55015405D01*
X38684811Y-54616767D01*
X38685188Y-54185127D01*
X38520354Y-53786200D01*
X38215405Y-53480718D01*
X37816767Y-53315189D01*
X37385127Y-53314812D01*
X36986200Y-53479646D01*
X36680718Y-53784595D01*
X36515189Y-54183233D01*
X36514812Y-54614873D01*
X32685000Y-54614873D01*
X32685000Y-51924775D01*
X41564803Y-51924775D01*
X41715000Y-52288278D01*
X41715000Y-53800000D01*
X41774755Y-54100407D01*
X41944921Y-54355079D01*
X45944921Y-58355079D01*
X46199593Y-58525245D01*
X46500000Y-58585000D01*
X79679898Y-58585000D01*
X79856235Y-58761645D01*
X80273244Y-58934803D01*
X80724775Y-58935197D01*
X81142086Y-58762767D01*
X81461645Y-58443765D01*
X81634803Y-58026756D01*
X81635197Y-57575225D01*
X81462767Y-57157914D01*
X81305133Y-57000004D01*
X81461645Y-56843765D01*
X81634803Y-56426756D01*
X81635058Y-56134857D01*
X82024775Y-56135197D01*
X82442086Y-55962767D01*
X82761645Y-55643765D01*
X82934803Y-55226756D01*
X82934935Y-55075223D01*
X85325158Y-52685000D01*
X85900000Y-52685000D01*
X86200407Y-52625245D01*
X86455079Y-52455079D01*
X87455079Y-51455079D01*
X87560409Y-51297440D01*
X87750000Y-51297440D01*
X87985317Y-51253162D01*
X88201441Y-51114090D01*
X88346431Y-50901890D01*
X88397440Y-50650000D01*
X88397440Y-48950000D01*
X88353162Y-48714683D01*
X88214090Y-48498559D01*
X88001890Y-48353569D01*
X87750000Y-48302560D01*
X86050000Y-48302560D01*
X85814683Y-48346838D01*
X85598559Y-48485910D01*
X85453569Y-48698110D01*
X85439914Y-48765541D01*
X85410054Y-48720853D01*
X84928285Y-48398946D01*
X84360000Y-48285907D01*
X83791715Y-48398946D01*
X83309946Y-48720853D01*
X82988039Y-49202622D01*
X82908382Y-49603085D01*
X82843765Y-49538355D01*
X82426756Y-49365197D01*
X81975225Y-49364803D01*
X81557914Y-49537233D01*
X81238355Y-49856235D01*
X81065197Y-50273244D01*
X81064803Y-50724775D01*
X81237233Y-51142086D01*
X81556235Y-51461645D01*
X81973244Y-51634803D01*
X82424775Y-51635197D01*
X82842086Y-51462767D01*
X83020163Y-51285000D01*
X83660000Y-51285000D01*
X83936869Y-51229927D01*
X84360000Y-51314093D01*
X84546612Y-51276974D01*
X84444921Y-51344921D01*
X81924734Y-53865108D01*
X81575225Y-53864803D01*
X81157914Y-54037233D01*
X80838355Y-54356235D01*
X80665197Y-54773244D01*
X80664942Y-55065143D01*
X80275225Y-55064803D01*
X79857914Y-55237233D01*
X79679837Y-55415000D01*
X46825158Y-55415000D01*
X44734979Y-53324821D01*
X44735197Y-53075225D01*
X44562767Y-52657914D01*
X44243765Y-52338355D01*
X43826756Y-52165197D01*
X43735826Y-52165118D01*
X43834803Y-51926756D01*
X43835197Y-51475225D01*
X43662767Y-51057914D01*
X43343765Y-50738355D01*
X42926756Y-50565197D01*
X42475225Y-50564803D01*
X42057914Y-50737233D01*
X41738355Y-51056235D01*
X41565197Y-51473244D01*
X41564803Y-51924775D01*
X32685000Y-51924775D01*
X32685000Y-50214873D01*
X36514812Y-50214873D01*
X36679646Y-50613800D01*
X36984595Y-50919282D01*
X37383233Y-51084811D01*
X37814873Y-51085188D01*
X38213800Y-50920354D01*
X38519282Y-50615405D01*
X38684811Y-50216767D01*
X38685188Y-49785127D01*
X38520354Y-49386200D01*
X38215405Y-49080718D01*
X37816767Y-48915189D01*
X37385127Y-48914812D01*
X36986200Y-49079646D01*
X36680718Y-49384595D01*
X36515189Y-49783233D01*
X36514812Y-50214873D01*
X32685000Y-50214873D01*
X32685000Y-47785750D01*
X56365000Y-47785750D01*
X56365000Y-48476310D01*
X56461673Y-48709699D01*
X56640302Y-48888327D01*
X56873691Y-48985000D01*
X57714250Y-48985000D01*
X57873000Y-48826250D01*
X57873000Y-47627000D01*
X58127000Y-47627000D01*
X58127000Y-48826250D01*
X58285750Y-48985000D01*
X59126309Y-48985000D01*
X59359698Y-48888327D01*
X59538327Y-48709699D01*
X59635000Y-48476310D01*
X59635000Y-47785750D01*
X59476250Y-47627000D01*
X58127000Y-47627000D01*
X57873000Y-47627000D01*
X56523750Y-47627000D01*
X56365000Y-47785750D01*
X32685000Y-47785750D01*
X32685000Y-46523690D01*
X56365000Y-46523690D01*
X56365000Y-47214250D01*
X56523750Y-47373000D01*
X57873000Y-47373000D01*
X57873000Y-46173750D01*
X58127000Y-46173750D01*
X58127000Y-47373000D01*
X59476250Y-47373000D01*
X59635000Y-47214250D01*
X59635000Y-46650000D01*
X60352560Y-46650000D01*
X60352560Y-48350000D01*
X60396838Y-48585317D01*
X60535910Y-48801441D01*
X60748110Y-48946431D01*
X61000000Y-48997440D01*
X63000000Y-48997440D01*
X63235317Y-48953162D01*
X63451441Y-48814090D01*
X63596431Y-48601890D01*
X63647440Y-48350000D01*
X63647440Y-48285000D01*
X63709146Y-48285000D01*
X63746838Y-48485317D01*
X63885910Y-48701441D01*
X64098110Y-48846431D01*
X64350000Y-48897440D01*
X66050000Y-48897440D01*
X66285317Y-48853162D01*
X66501441Y-48714090D01*
X66646431Y-48501890D01*
X66660086Y-48434459D01*
X66689946Y-48479147D01*
X66915000Y-48629523D01*
X66915000Y-49779898D01*
X66738355Y-49956235D01*
X66565197Y-50373244D01*
X66564803Y-50824775D01*
X66737233Y-51242086D01*
X67056235Y-51561645D01*
X67473244Y-51734803D01*
X67924775Y-51735197D01*
X68342086Y-51562767D01*
X68661645Y-51243765D01*
X68834803Y-50826756D01*
X68835197Y-50375225D01*
X68662767Y-49957914D01*
X68485000Y-49779837D01*
X68485000Y-48682977D01*
X68790054Y-48479147D01*
X69010000Y-48149974D01*
X69229946Y-48479147D01*
X69711715Y-48801054D01*
X70280000Y-48914093D01*
X70848285Y-48801054D01*
X71330054Y-48479147D01*
X71526596Y-48185000D01*
X71552560Y-48185000D01*
X71552560Y-48250000D01*
X71596838Y-48485317D01*
X71735910Y-48701441D01*
X71948110Y-48846431D01*
X72200000Y-48897440D01*
X74200000Y-48897440D01*
X74435317Y-48853162D01*
X74651441Y-48714090D01*
X74796431Y-48501890D01*
X74847440Y-48250000D01*
X74847440Y-46550000D01*
X75552560Y-46550000D01*
X75552560Y-48250000D01*
X75596838Y-48485317D01*
X75735910Y-48701441D01*
X75948110Y-48846431D01*
X76200000Y-48897440D01*
X78200000Y-48897440D01*
X78435317Y-48853162D01*
X78651441Y-48714090D01*
X78796431Y-48501890D01*
X78847440Y-48250000D01*
X78847440Y-48185000D01*
X81379724Y-48185000D01*
X81456235Y-48261645D01*
X81873244Y-48434803D01*
X82324775Y-48435197D01*
X82742086Y-48262767D01*
X83061645Y-47943765D01*
X83234803Y-47526756D01*
X83235197Y-47075225D01*
X83062767Y-46657914D01*
X82743765Y-46338355D01*
X82326756Y-46165197D01*
X81875225Y-46164803D01*
X81457914Y-46337233D01*
X81179662Y-46615000D01*
X78847440Y-46615000D01*
X78847440Y-46550000D01*
X78803162Y-46314683D01*
X78664090Y-46098559D01*
X78451890Y-45953569D01*
X78200000Y-45902560D01*
X76200000Y-45902560D01*
X75964683Y-45946838D01*
X75748559Y-46085910D01*
X75603569Y-46298110D01*
X75552560Y-46550000D01*
X74847440Y-46550000D01*
X74803162Y-46314683D01*
X74664090Y-46098559D01*
X74451890Y-45953569D01*
X74200000Y-45902560D01*
X72200000Y-45902560D01*
X71964683Y-45946838D01*
X71748559Y-46085910D01*
X71603569Y-46298110D01*
X71552560Y-46550000D01*
X71552560Y-46615000D01*
X71526596Y-46615000D01*
X71330054Y-46320853D01*
X70848285Y-45998946D01*
X70280000Y-45885907D01*
X69711715Y-45998946D01*
X69229946Y-46320853D01*
X69010000Y-46650026D01*
X68790054Y-46320853D01*
X68308285Y-45998946D01*
X67740000Y-45885907D01*
X67171715Y-45998946D01*
X66689946Y-46320853D01*
X66662150Y-46362452D01*
X66653162Y-46314683D01*
X66514090Y-46098559D01*
X66301890Y-45953569D01*
X66050000Y-45902560D01*
X64350000Y-45902560D01*
X64114683Y-45946838D01*
X63898559Y-46085910D01*
X63753569Y-46298110D01*
X63702560Y-46550000D01*
X63702560Y-46715000D01*
X63647440Y-46715000D01*
X63647440Y-46650000D01*
X63603162Y-46414683D01*
X63464090Y-46198559D01*
X63251890Y-46053569D01*
X63000000Y-46002560D01*
X61000000Y-46002560D01*
X60764683Y-46046838D01*
X60548559Y-46185910D01*
X60403569Y-46398110D01*
X60352560Y-46650000D01*
X59635000Y-46650000D01*
X59635000Y-46523690D01*
X59538327Y-46290301D01*
X59359698Y-46111673D01*
X59126309Y-46015000D01*
X58285750Y-46015000D01*
X58127000Y-46173750D01*
X57873000Y-46173750D01*
X57714250Y-46015000D01*
X56873691Y-46015000D01*
X56640302Y-46111673D01*
X56461673Y-46290301D01*
X56365000Y-46523690D01*
X32685000Y-46523690D01*
X32685000Y-45685000D01*
X111315000Y-45685000D01*
X111315000Y-109315000D01*
X111315000Y-109315000D01*
G37*
X111315000Y-109315000D02*
X32685000Y-109315000D01*
X32685000Y-102190400D01*
X67714620Y-102190400D01*
X67714620Y-103940460D01*
X67944773Y-104843516D01*
X68502991Y-105589755D01*
X69304290Y-106065569D01*
X69601667Y-106145946D01*
X69972680Y-106036145D01*
X69972680Y-102190400D01*
X70226680Y-102190400D01*
X70226680Y-106036145D01*
X70597693Y-106145946D01*
X70895070Y-106065569D01*
X71696369Y-105589755D01*
X72254587Y-104843516D01*
X72484740Y-103940460D01*
X72484740Y-102190400D01*
X77912720Y-102190400D01*
X77912720Y-103940460D01*
X78142873Y-104843516D01*
X78701091Y-105589755D01*
X79502390Y-106065569D01*
X79799767Y-106145946D01*
X80170780Y-106036145D01*
X80170780Y-102190400D01*
X80424780Y-102190400D01*
X80424780Y-106036145D01*
X80795793Y-106145946D01*
X81093170Y-106065569D01*
X81894469Y-105589755D01*
X82452687Y-104843516D01*
X82682840Y-103940460D01*
X82682840Y-102190400D01*
X90314620Y-102190400D01*
X90314620Y-103940460D01*
X90544773Y-104843516D01*
X91102991Y-105589755D01*
X91904290Y-106065569D01*
X92201667Y-106145946D01*
X92572680Y-106036145D01*
X92572680Y-102190400D01*
X92826680Y-102190400D01*
X92826680Y-106036145D01*
X93197693Y-106145946D01*
X93495070Y-106065569D01*
X94296369Y-105589755D01*
X94854587Y-104843516D01*
X95084740Y-103940460D01*
X95084740Y-102190400D01*
X100512720Y-102190400D01*
X100512720Y-103940460D01*
X100742873Y-104843516D01*
X101301091Y-105589755D01*
X102102390Y-106065569D01*
X102399767Y-106145946D01*
X102770780Y-106036145D01*
X102770780Y-102190400D01*
X103024780Y-102190400D01*
X103024780Y-106036145D01*
X103395793Y-106145946D01*
X103693170Y-106065569D01*
X104494469Y-105589755D01*
X105052687Y-104843516D01*
X105282840Y-103940460D01*
X105282840Y-102190400D01*
X103024780Y-102190400D01*
X102770780Y-102190400D01*
X100512720Y-102190400D01*
X95084740Y-102190400D01*
X92826680Y-102190400D01*
X92572680Y-102190400D01*
X90314620Y-102190400D01*
X82682840Y-102190400D01*
X80424780Y-102190400D01*
X80170780Y-102190400D01*
X77912720Y-102190400D01*
X72484740Y-102190400D01*
X70226680Y-102190400D01*
X69972680Y-102190400D01*
X67714620Y-102190400D01*
X32685000Y-102190400D01*
X32685000Y-100186340D01*
X67714620Y-100186340D01*
X67714620Y-101936400D01*
X69972680Y-101936400D01*
X69972680Y-98090655D01*
X70226680Y-98090655D01*
X70226680Y-101936400D01*
X72484740Y-101936400D01*
X72484740Y-100186340D01*
X72254587Y-99283284D01*
X71696369Y-98537045D01*
X70895070Y-98061231D01*
X70597693Y-97980854D01*
X70226680Y-98090655D01*
X69972680Y-98090655D01*
X69601667Y-97980854D01*
X69304290Y-98061231D01*
X68502991Y-98537045D01*
X67944773Y-99283284D01*
X67714620Y-100186340D01*
X32685000Y-100186340D01*
X32685000Y-97786400D01*
X41788960Y-97786400D01*
X41788960Y-99513600D01*
X41833238Y-99748917D01*
X41972310Y-99965041D01*
X42184510Y-100110031D01*
X42436400Y-100161040D01*
X44163600Y-100161040D01*
X44398917Y-100116762D01*
X44615041Y-99977690D01*
X44760031Y-99765490D01*
X44768908Y-99721655D01*
X45237152Y-100034526D01*
X45810641Y-100148600D01*
X45869359Y-100148600D01*
X46442848Y-100034526D01*
X46929029Y-99709670D01*
X47110000Y-99438828D01*
X47290971Y-99709670D01*
X47777152Y-100034526D01*
X48350641Y-100148600D01*
X48409359Y-100148600D01*
X48982848Y-100034526D01*
X49469029Y-99709670D01*
X49650000Y-99438828D01*
X49830971Y-99709670D01*
X50317152Y-100034526D01*
X50890641Y-100148600D01*
X50949359Y-100148600D01*
X51522848Y-100034526D01*
X52009029Y-99709670D01*
X52190000Y-99438828D01*
X52370971Y-99709670D01*
X52857152Y-100034526D01*
X53430641Y-100148600D01*
X53489359Y-100148600D01*
X54062848Y-100034526D01*
X54549029Y-99709670D01*
X54873885Y-99223489D01*
X54987959Y-98650000D01*
X54873885Y-98076511D01*
X54549029Y-97590330D01*
X54234248Y-97380000D01*
X54549029Y-97169670D01*
X54873885Y-96683489D01*
X54987959Y-96110000D01*
X54873885Y-95536511D01*
X54549029Y-95050330D01*
X54062848Y-94725474D01*
X53489359Y-94611400D01*
X53430641Y-94611400D01*
X52857152Y-94725474D01*
X52370971Y-95050330D01*
X52190000Y-95321172D01*
X52009029Y-95050330D01*
X51522848Y-94725474D01*
X50949359Y-94611400D01*
X50890641Y-94611400D01*
X50317152Y-94725474D01*
X49830971Y-95050330D01*
X49650000Y-95321172D01*
X49469029Y-95050330D01*
X48982848Y-94725474D01*
X48409359Y-94611400D01*
X48350641Y-94611400D01*
X47777152Y-94725474D01*
X47290971Y-95050330D01*
X47110000Y-95321172D01*
X46929029Y-95050330D01*
X46442848Y-94725474D01*
X45869359Y-94611400D01*
X45810641Y-94611400D01*
X45237152Y-94725474D01*
X44750971Y-95050330D01*
X44570008Y-95321161D01*
X44188490Y-94903179D01*
X43659027Y-94655032D01*
X43427000Y-94775531D01*
X43427000Y-95983000D01*
X43447000Y-95983000D01*
X43447000Y-96237000D01*
X43427000Y-96237000D01*
X43427000Y-96257000D01*
X43173000Y-96257000D01*
X43173000Y-96237000D01*
X41966183Y-96237000D01*
X41845042Y-96469026D01*
X42017312Y-96884947D01*
X42276609Y-97169027D01*
X42201083Y-97183238D01*
X41984959Y-97322310D01*
X41839969Y-97534510D01*
X41788960Y-97786400D01*
X32685000Y-97786400D01*
X32685000Y-95750974D01*
X41845042Y-95750974D01*
X41966183Y-95983000D01*
X43173000Y-95983000D01*
X43173000Y-94775531D01*
X42940973Y-94655032D01*
X42411510Y-94903179D01*
X42017312Y-95335053D01*
X41845042Y-95750974D01*
X32685000Y-95750974D01*
X32685000Y-90000000D01*
X71227560Y-90000000D01*
X71227560Y-91500000D01*
X71271838Y-91735317D01*
X71410910Y-91951441D01*
X71480711Y-91999134D01*
X71423559Y-92035910D01*
X71278569Y-92248110D01*
X71227560Y-92500000D01*
X71227560Y-94000000D01*
X71271838Y-94235317D01*
X71410910Y-94451441D01*
X71623110Y-94596431D01*
X71875000Y-94647440D01*
X73125000Y-94647440D01*
X73360317Y-94603162D01*
X73576441Y-94464090D01*
X73602560Y-94425864D01*
X73602560Y-94900000D01*
X73646838Y-95135317D01*
X73785910Y-95351441D01*
X73998110Y-95496431D01*
X74250000Y-95547440D01*
X74415000Y-95547440D01*
X74415000Y-96143941D01*
X74185231Y-96297468D01*
X73874140Y-96763048D01*
X73764900Y-97312237D01*
X73764900Y-98285243D01*
X73874140Y-98834432D01*
X74185231Y-99300012D01*
X74650811Y-99611103D01*
X75200000Y-99720343D01*
X75749189Y-99611103D01*
X76214769Y-99300012D01*
X76449428Y-98948821D01*
X76774393Y-99352892D01*
X77267503Y-99622781D01*
X77350305Y-99640323D01*
X77572360Y-99518336D01*
X77572360Y-97925740D01*
X77826360Y-97925740D01*
X77826360Y-99518336D01*
X78048415Y-99640323D01*
X78052076Y-99639547D01*
X77912720Y-100186340D01*
X77912720Y-101936400D01*
X80170780Y-101936400D01*
X80170780Y-98090655D01*
X80424780Y-98090655D01*
X80424780Y-101936400D01*
X82682840Y-101936400D01*
X82682840Y-100186340D01*
X90314620Y-100186340D01*
X90314620Y-101936400D01*
X92572680Y-101936400D01*
X92572680Y-98090655D01*
X92826680Y-98090655D01*
X92826680Y-101936400D01*
X95084740Y-101936400D01*
X95084740Y-100186340D01*
X94854587Y-99283284D01*
X94296369Y-98537045D01*
X93495070Y-98061231D01*
X93197693Y-97980854D01*
X92826680Y-98090655D01*
X92572680Y-98090655D01*
X92201667Y-97980854D01*
X91904290Y-98061231D01*
X91102991Y-98537045D01*
X90544773Y-99283284D01*
X90314620Y-100186340D01*
X82682840Y-100186340D01*
X82452687Y-99283284D01*
X81894469Y-98537045D01*
X81093170Y-98061231D01*
X80795793Y-97980854D01*
X80424780Y-98090655D01*
X80170780Y-98090655D01*
X79799767Y-97980854D01*
X79502390Y-98061231D01*
X79134460Y-98279709D01*
X79134460Y-97925740D01*
X77826360Y-97925740D01*
X77572360Y-97925740D01*
X77552360Y-97925740D01*
X77552360Y-97671740D01*
X77572360Y-97671740D01*
X77572360Y-96079144D01*
X77826360Y-96079144D01*
X77826360Y-97671740D01*
X79134460Y-97671740D01*
X79134460Y-97222160D01*
X78976619Y-96682638D01*
X78624327Y-96244588D01*
X78131217Y-95974699D01*
X78048415Y-95957157D01*
X77826360Y-96079144D01*
X77572360Y-96079144D01*
X77350305Y-95957157D01*
X77267503Y-95974699D01*
X76774393Y-96244588D01*
X76449428Y-96648659D01*
X76214769Y-96297468D01*
X75985000Y-96143941D01*
X75985000Y-95540854D01*
X76185317Y-95503162D01*
X76401441Y-95364090D01*
X76546431Y-95151890D01*
X76597440Y-94900000D01*
X76597440Y-92900000D01*
X76553162Y-92664683D01*
X76414090Y-92448559D01*
X76201890Y-92303569D01*
X75950000Y-92252560D01*
X74250000Y-92252560D01*
X74014683Y-92296838D01*
X73798559Y-92435910D01*
X73778683Y-92465000D01*
X73765854Y-92465000D01*
X73728162Y-92264683D01*
X73589090Y-92048559D01*
X73519289Y-92000866D01*
X73576441Y-91964090D01*
X73721431Y-91751890D01*
X73765352Y-91535000D01*
X74188569Y-91535000D01*
X74250000Y-91547440D01*
X75937282Y-91547440D01*
X76244921Y-91855079D01*
X76452560Y-91993819D01*
X76452560Y-92150000D01*
X76496838Y-92385317D01*
X76635910Y-92601441D01*
X76848110Y-92746431D01*
X77100000Y-92797440D01*
X77587282Y-92797440D01*
X78752560Y-93962718D01*
X78752560Y-94850000D01*
X78796838Y-95085317D01*
X78935910Y-95301441D01*
X79148110Y-95446431D01*
X79400000Y-95497440D01*
X81400000Y-95497440D01*
X81635317Y-95453162D01*
X81851441Y-95314090D01*
X81996431Y-95101890D01*
X82047440Y-94850000D01*
X82047440Y-94285750D01*
X82765000Y-94285750D01*
X82765000Y-94976310D01*
X82861673Y-95209699D01*
X83040302Y-95388327D01*
X83273691Y-95485000D01*
X84114250Y-95485000D01*
X84273000Y-95326250D01*
X84273000Y-94127000D01*
X84527000Y-94127000D01*
X84527000Y-95326250D01*
X84685750Y-95485000D01*
X85526309Y-95485000D01*
X85759698Y-95388327D01*
X85938327Y-95209699D01*
X86035000Y-94976310D01*
X86035000Y-94285750D01*
X89565000Y-94285750D01*
X89565000Y-94976310D01*
X89661673Y-95209699D01*
X89840302Y-95388327D01*
X90073691Y-95485000D01*
X90914250Y-95485000D01*
X91073000Y-95326250D01*
X91073000Y-94127000D01*
X91327000Y-94127000D01*
X91327000Y-95326250D01*
X91485750Y-95485000D01*
X92326309Y-95485000D01*
X92559698Y-95388327D01*
X92738327Y-95209699D01*
X92835000Y-94976310D01*
X92835000Y-94285750D01*
X92676250Y-94127000D01*
X91327000Y-94127000D01*
X91073000Y-94127000D01*
X89723750Y-94127000D01*
X89565000Y-94285750D01*
X86035000Y-94285750D01*
X85876250Y-94127000D01*
X84527000Y-94127000D01*
X84273000Y-94127000D01*
X82923750Y-94127000D01*
X82765000Y-94285750D01*
X82047440Y-94285750D01*
X82047440Y-93150000D01*
X82003162Y-92914683D01*
X81927718Y-92797440D01*
X82858716Y-92797440D01*
X82765000Y-93023690D01*
X82765000Y-93714250D01*
X82923750Y-93873000D01*
X84273000Y-93873000D01*
X84273000Y-92673750D01*
X84527000Y-92673750D01*
X84527000Y-93873000D01*
X85876250Y-93873000D01*
X86035000Y-93714250D01*
X86035000Y-93023690D01*
X85938327Y-92790301D01*
X85759698Y-92611673D01*
X85526309Y-92515000D01*
X84685750Y-92515000D01*
X84527000Y-92673750D01*
X84273000Y-92673750D01*
X84114250Y-92515000D01*
X83619146Y-92515000D01*
X83696431Y-92401890D01*
X83747440Y-92150000D01*
X83747440Y-92085000D01*
X85579898Y-92085000D01*
X85756235Y-92261645D01*
X86173244Y-92434803D01*
X86624775Y-92435197D01*
X87042086Y-92262767D01*
X87119989Y-92185000D01*
X89052560Y-92185000D01*
X89052560Y-92250000D01*
X89096838Y-92485317D01*
X89235910Y-92701441D01*
X89448110Y-92846431D01*
X89623695Y-92881988D01*
X89565000Y-93023690D01*
X89565000Y-93714250D01*
X89723750Y-93873000D01*
X91073000Y-93873000D01*
X91073000Y-93853000D01*
X91327000Y-93853000D01*
X91327000Y-93873000D01*
X92676250Y-93873000D01*
X92835000Y-93714250D01*
X92835000Y-93023690D01*
X92738327Y-92790301D01*
X92559698Y-92611673D01*
X92326309Y-92515000D01*
X92287473Y-92515000D01*
X92296431Y-92501890D01*
X92347440Y-92250000D01*
X92347440Y-90550000D01*
X92303162Y-90314683D01*
X92164090Y-90098559D01*
X91951890Y-89953569D01*
X91700000Y-89902560D01*
X89700000Y-89902560D01*
X89464683Y-89946838D01*
X89248559Y-90085910D01*
X89103569Y-90298110D01*
X89052560Y-90550000D01*
X89052560Y-90615000D01*
X87319928Y-90615000D01*
X87043765Y-90338355D01*
X86626756Y-90165197D01*
X86175225Y-90164803D01*
X85757914Y-90337233D01*
X85579837Y-90515000D01*
X83747440Y-90515000D01*
X83747440Y-90450000D01*
X83703162Y-90214683D01*
X83564090Y-89998559D01*
X83385000Y-89876192D01*
X83385000Y-89589018D01*
X83501441Y-89514090D01*
X83646431Y-89301890D01*
X83697440Y-89050000D01*
X83697440Y-89035750D01*
X89115000Y-89035750D01*
X89115000Y-89276310D01*
X89211673Y-89509699D01*
X89390302Y-89688327D01*
X89623691Y-89785000D01*
X89914250Y-89785000D01*
X90073000Y-89626250D01*
X90073000Y-88877000D01*
X90327000Y-88877000D01*
X90327000Y-89626250D01*
X90485750Y-89785000D01*
X90776309Y-89785000D01*
X91009698Y-89688327D01*
X91188327Y-89509699D01*
X91285000Y-89276310D01*
X91285000Y-89035750D01*
X91126250Y-88877000D01*
X90327000Y-88877000D01*
X90073000Y-88877000D01*
X89273750Y-88877000D01*
X89115000Y-89035750D01*
X83697440Y-89035750D01*
X83697440Y-88250000D01*
X83653162Y-88014683D01*
X83514090Y-87798559D01*
X83374250Y-87703010D01*
X83409698Y-87688327D01*
X83588327Y-87509699D01*
X83685000Y-87276310D01*
X83685000Y-87035750D01*
X83526250Y-86877000D01*
X82727000Y-86877000D01*
X82727000Y-86897000D01*
X82473000Y-86897000D01*
X82473000Y-86877000D01*
X81673750Y-86877000D01*
X81587738Y-86963012D01*
X81514090Y-86848559D01*
X81385000Y-86760356D01*
X81385000Y-86223690D01*
X81515000Y-86223690D01*
X81515000Y-86464250D01*
X81673750Y-86623000D01*
X82473000Y-86623000D01*
X82473000Y-85873750D01*
X82727000Y-85873750D01*
X82727000Y-86623000D01*
X83526250Y-86623000D01*
X83685000Y-86464250D01*
X83685000Y-86223690D01*
X83588327Y-85990301D01*
X83409698Y-85811673D01*
X83176309Y-85715000D01*
X82885750Y-85715000D01*
X82727000Y-85873750D01*
X82473000Y-85873750D01*
X82314250Y-85715000D01*
X82023691Y-85715000D01*
X81790302Y-85811673D01*
X81611673Y-85990301D01*
X81515000Y-86223690D01*
X81385000Y-86223690D01*
X81385000Y-82025158D01*
X81793001Y-81617157D01*
X81779060Y-81686000D01*
X81779060Y-82194000D01*
X81823338Y-82429317D01*
X81917666Y-82575907D01*
X81830069Y-82704110D01*
X81779060Y-82956000D01*
X81779060Y-83464000D01*
X81823338Y-83699317D01*
X81962410Y-83915441D01*
X82174610Y-84060431D01*
X82269003Y-84079546D01*
X82272755Y-84098407D01*
X82442921Y-84353079D01*
X83940807Y-85850965D01*
X83765372Y-86273459D01*
X83764630Y-87122815D01*
X84088980Y-87907800D01*
X84689041Y-88508909D01*
X85473459Y-88834628D01*
X86322815Y-88835370D01*
X87107800Y-88511020D01*
X87419703Y-88199661D01*
X87437233Y-88242086D01*
X87756235Y-88561645D01*
X88173244Y-88734803D01*
X88624775Y-88735197D01*
X89042086Y-88562767D01*
X89127876Y-88477126D01*
X89273750Y-88623000D01*
X90073000Y-88623000D01*
X90073000Y-88603000D01*
X90327000Y-88603000D01*
X90327000Y-88623000D01*
X91126250Y-88623000D01*
X91212262Y-88536988D01*
X91285910Y-88651441D01*
X91498110Y-88796431D01*
X91750000Y-88847440D01*
X92650000Y-88847440D01*
X92885317Y-88803162D01*
X93101441Y-88664090D01*
X93155481Y-88585000D01*
X93400000Y-88585000D01*
X93700407Y-88525245D01*
X93955079Y-88355079D01*
X94042498Y-88267660D01*
X94040000Y-88273691D01*
X94040000Y-88864250D01*
X94198750Y-89023000D01*
X95173000Y-89023000D01*
X95173000Y-89003000D01*
X95427000Y-89003000D01*
X95427000Y-89023000D01*
X95447000Y-89023000D01*
X95447000Y-89277000D01*
X95427000Y-89277000D01*
X95427000Y-89297000D01*
X95173000Y-89297000D01*
X95173000Y-89277000D01*
X94198750Y-89277000D01*
X94040000Y-89435750D01*
X94040000Y-89902560D01*
X93700000Y-89902560D01*
X93464683Y-89946838D01*
X93248559Y-90085910D01*
X93103569Y-90298110D01*
X93052560Y-90550000D01*
X93052560Y-92250000D01*
X93096838Y-92485317D01*
X93235910Y-92701441D01*
X93448110Y-92846431D01*
X93615692Y-92880367D01*
X93603569Y-92898110D01*
X93552560Y-93150000D01*
X93552560Y-94850000D01*
X93596838Y-95085317D01*
X93735910Y-95301441D01*
X93948110Y-95446431D01*
X94200000Y-95497440D01*
X96200000Y-95497440D01*
X96435317Y-95453162D01*
X96643772Y-95319025D01*
X96646838Y-95335317D01*
X96785910Y-95551441D01*
X96998110Y-95696431D01*
X97015000Y-95699851D01*
X97015000Y-96143941D01*
X96785231Y-96297468D01*
X96474140Y-96763048D01*
X96364900Y-97312237D01*
X96364900Y-98285243D01*
X96474140Y-98834432D01*
X96785231Y-99300012D01*
X97250811Y-99611103D01*
X97800000Y-99720343D01*
X98349189Y-99611103D01*
X98814769Y-99300012D01*
X99049428Y-98948821D01*
X99374393Y-99352892D01*
X99867503Y-99622781D01*
X99950305Y-99640323D01*
X100172360Y-99518336D01*
X100172360Y-97925740D01*
X100426360Y-97925740D01*
X100426360Y-99518336D01*
X100648415Y-99640323D01*
X100652076Y-99639547D01*
X100512720Y-100186340D01*
X100512720Y-101936400D01*
X102770780Y-101936400D01*
X102770780Y-98090655D01*
X103024780Y-98090655D01*
X103024780Y-101936400D01*
X105282840Y-101936400D01*
X105282840Y-100186340D01*
X105052687Y-99283284D01*
X104494469Y-98537045D01*
X103693170Y-98061231D01*
X103395793Y-97980854D01*
X103024780Y-98090655D01*
X102770780Y-98090655D01*
X102399767Y-97980854D01*
X102102390Y-98061231D01*
X101734460Y-98279709D01*
X101734460Y-97925740D01*
X100426360Y-97925740D01*
X100172360Y-97925740D01*
X100152360Y-97925740D01*
X100152360Y-97671740D01*
X100172360Y-97671740D01*
X100172360Y-96079144D01*
X100426360Y-96079144D01*
X100426360Y-97671740D01*
X101734460Y-97671740D01*
X101734460Y-97222160D01*
X101576619Y-96682638D01*
X101224327Y-96244588D01*
X100731217Y-95974699D01*
X100648415Y-95957157D01*
X100426360Y-96079144D01*
X100172360Y-96079144D01*
X99950305Y-95957157D01*
X99867503Y-95974699D01*
X99374393Y-96244588D01*
X99049428Y-96648659D01*
X98814769Y-96297468D01*
X98585000Y-96143941D01*
X98585000Y-95747440D01*
X98950000Y-95747440D01*
X99185317Y-95703162D01*
X99401441Y-95564090D01*
X99546431Y-95351890D01*
X99597440Y-95100000D01*
X99597440Y-94710564D01*
X99723110Y-94796431D01*
X99975000Y-94847440D01*
X101225000Y-94847440D01*
X101460317Y-94803162D01*
X101676441Y-94664090D01*
X101821431Y-94451890D01*
X101872440Y-94200000D01*
X101872440Y-92700000D01*
X101828162Y-92464683D01*
X101689090Y-92248559D01*
X101619289Y-92200866D01*
X101676441Y-92164090D01*
X101821431Y-91951890D01*
X101872440Y-91700000D01*
X101872440Y-90200000D01*
X101828162Y-89964683D01*
X101689090Y-89748559D01*
X101476890Y-89603569D01*
X101225000Y-89552560D01*
X99975000Y-89552560D01*
X99739683Y-89596838D01*
X99597440Y-89688369D01*
X99597440Y-89100000D01*
X99553162Y-88864683D01*
X99414090Y-88648559D01*
X99201890Y-88503569D01*
X98950000Y-88452560D01*
X97862718Y-88452560D01*
X97685000Y-88274842D01*
X97685000Y-87600000D01*
X97625245Y-87299594D01*
X97455079Y-87044921D01*
X96572440Y-86162282D01*
X96572440Y-85900000D01*
X96528162Y-85664683D01*
X96389090Y-85448559D01*
X96176890Y-85303569D01*
X95925000Y-85252560D01*
X94675000Y-85252560D01*
X94439683Y-85296838D01*
X94223559Y-85435910D01*
X94078569Y-85648110D01*
X94027560Y-85900000D01*
X94027560Y-86073112D01*
X93994921Y-86094921D01*
X93124737Y-86965105D01*
X93114090Y-86948559D01*
X92985000Y-86860356D01*
X92985000Y-86800000D01*
X92925245Y-86499594D01*
X92755079Y-86244921D01*
X91655079Y-85144921D01*
X91400407Y-84974755D01*
X91100000Y-84915000D01*
X89125158Y-84915000D01*
X87785000Y-83574842D01*
X87785000Y-79125158D01*
X87995158Y-78915000D01*
X88184864Y-78915000D01*
X88141500Y-79019691D01*
X88141500Y-79114250D01*
X88300250Y-79273000D01*
X89221000Y-79273000D01*
X89221000Y-79253000D01*
X89475000Y-79253000D01*
X89475000Y-79273000D01*
X90395750Y-79273000D01*
X90554500Y-79114250D01*
X90554500Y-79019691D01*
X90457827Y-78786302D01*
X90431291Y-78759765D01*
X90515931Y-78635890D01*
X90566940Y-78384000D01*
X90566940Y-77877098D01*
X90615000Y-77925158D01*
X90615000Y-79474842D01*
X90479296Y-79610546D01*
X90395750Y-79527000D01*
X89475000Y-79527000D01*
X89475000Y-79547000D01*
X89221000Y-79547000D01*
X89221000Y-79527000D01*
X88300250Y-79527000D01*
X88141500Y-79685750D01*
X88141500Y-79780309D01*
X88238173Y-80013698D01*
X88264709Y-80040235D01*
X88180069Y-80164110D01*
X88129060Y-80416000D01*
X88129060Y-80924000D01*
X88173338Y-81159317D01*
X88267666Y-81305907D01*
X88180069Y-81434110D01*
X88129060Y-81686000D01*
X88129060Y-82194000D01*
X88173338Y-82429317D01*
X88267666Y-82575907D01*
X88180069Y-82704110D01*
X88129060Y-82956000D01*
X88129060Y-83464000D01*
X88173338Y-83699317D01*
X88312410Y-83915441D01*
X88524610Y-84060431D01*
X88776500Y-84111440D01*
X89919500Y-84111440D01*
X90154817Y-84067162D01*
X90209182Y-84032179D01*
X90337233Y-84342086D01*
X90656235Y-84661645D01*
X91073244Y-84834803D01*
X91524775Y-84835197D01*
X91806125Y-84718945D01*
X91846838Y-84935317D01*
X91985910Y-85151441D01*
X92198110Y-85296431D01*
X92450000Y-85347440D01*
X94150000Y-85347440D01*
X94385317Y-85303162D01*
X94601441Y-85164090D01*
X94728683Y-84977865D01*
X94799593Y-85025245D01*
X95100000Y-85085000D01*
X97574842Y-85085000D01*
X99844921Y-87355079D01*
X100099594Y-87525245D01*
X100400000Y-87585000D01*
X101614282Y-87585000D01*
X101788980Y-88007800D01*
X102389041Y-88608909D01*
X103173459Y-88934628D01*
X104022815Y-88935370D01*
X104807800Y-88611020D01*
X105408909Y-88010959D01*
X105734628Y-87226541D01*
X105735370Y-86377185D01*
X105411020Y-85592200D01*
X104810959Y-84991091D01*
X104026541Y-84665372D01*
X103177185Y-84664630D01*
X102392200Y-84988980D01*
X101791091Y-85589041D01*
X101614217Y-86015000D01*
X100725158Y-86015000D01*
X98732741Y-84022583D01*
X98747440Y-83950000D01*
X98747440Y-82250000D01*
X99452560Y-82250000D01*
X99452560Y-83950000D01*
X99496838Y-84185317D01*
X99635910Y-84401441D01*
X99848110Y-84546431D01*
X100100000Y-84597440D01*
X102100000Y-84597440D01*
X102335317Y-84553162D01*
X102551441Y-84414090D01*
X102696431Y-84201890D01*
X102747440Y-83950000D01*
X102747440Y-83885000D01*
X103279898Y-83885000D01*
X103456235Y-84061645D01*
X103873244Y-84234803D01*
X104324775Y-84235197D01*
X104742086Y-84062767D01*
X105061645Y-83743765D01*
X105234803Y-83326756D01*
X105235197Y-82875225D01*
X105062767Y-82457914D01*
X104743765Y-82138355D01*
X104326756Y-81965197D01*
X103875225Y-81964803D01*
X103457914Y-82137233D01*
X103279837Y-82315000D01*
X102747440Y-82315000D01*
X102747440Y-82250000D01*
X102703162Y-82014683D01*
X102564090Y-81798559D01*
X102351890Y-81653569D01*
X102100000Y-81602560D01*
X100100000Y-81602560D01*
X99864683Y-81646838D01*
X99648559Y-81785910D01*
X99503569Y-81998110D01*
X99452560Y-82250000D01*
X98747440Y-82250000D01*
X98703162Y-82014683D01*
X98564090Y-81798559D01*
X98351890Y-81653569D01*
X98100000Y-81602560D01*
X97885000Y-81602560D01*
X97885000Y-80597440D01*
X98000000Y-80597440D01*
X98235317Y-80553162D01*
X98451441Y-80414090D01*
X98596431Y-80201890D01*
X98647440Y-79950000D01*
X98647440Y-79385750D01*
X99365000Y-79385750D01*
X99365000Y-80076310D01*
X99461673Y-80309699D01*
X99640302Y-80488327D01*
X99873691Y-80585000D01*
X100714250Y-80585000D01*
X100873000Y-80426250D01*
X100873000Y-79227000D01*
X101127000Y-79227000D01*
X101127000Y-80426250D01*
X101285750Y-80585000D01*
X102126309Y-80585000D01*
X102359698Y-80488327D01*
X102538327Y-80309699D01*
X102635000Y-80076310D01*
X102635000Y-79385750D01*
X102476250Y-79227000D01*
X101127000Y-79227000D01*
X100873000Y-79227000D01*
X99523750Y-79227000D01*
X99365000Y-79385750D01*
X98647440Y-79385750D01*
X98647440Y-78250000D01*
X98623674Y-78123690D01*
X99365000Y-78123690D01*
X99365000Y-78814250D01*
X99523750Y-78973000D01*
X100873000Y-78973000D01*
X100873000Y-77773750D01*
X101127000Y-77773750D01*
X101127000Y-78973000D01*
X102476250Y-78973000D01*
X102635000Y-78814250D01*
X102635000Y-78123690D01*
X102538327Y-77890301D01*
X102359698Y-77711673D01*
X102126309Y-77615000D01*
X101285750Y-77615000D01*
X101127000Y-77773750D01*
X100873000Y-77773750D01*
X100714250Y-77615000D01*
X99873691Y-77615000D01*
X99640302Y-77711673D01*
X99461673Y-77890301D01*
X99365000Y-78123690D01*
X98623674Y-78123690D01*
X98603162Y-78014683D01*
X98464090Y-77798559D01*
X98251890Y-77653569D01*
X98000000Y-77602560D01*
X96000000Y-77602560D01*
X95764683Y-77646838D01*
X95548559Y-77785910D01*
X95403569Y-77998110D01*
X95352560Y-78250000D01*
X95352560Y-78315000D01*
X94656844Y-78315000D01*
X94614090Y-78248559D01*
X94401890Y-78103569D01*
X94150000Y-78052560D01*
X92450000Y-78052560D01*
X92214683Y-78096838D01*
X92185000Y-78115938D01*
X92185000Y-77600000D01*
X92148217Y-77415079D01*
X92125245Y-77299593D01*
X91955079Y-77044921D01*
X91285158Y-76375000D01*
X91575427Y-76375000D01*
X91588980Y-76407800D01*
X92189041Y-77008909D01*
X92973459Y-77334628D01*
X93822815Y-77335370D01*
X94607800Y-77011020D01*
X95208909Y-76410959D01*
X95534628Y-75626541D01*
X95535370Y-74777185D01*
X95211020Y-73992200D01*
X94610959Y-73391091D01*
X93826541Y-73065372D01*
X92977185Y-73064630D01*
X92192200Y-73388980D01*
X91591091Y-73989041D01*
X91265372Y-74773459D01*
X91265344Y-74805000D01*
X90267151Y-74805000D01*
X90171390Y-74739569D01*
X89919500Y-74688560D01*
X88776500Y-74688560D01*
X88541183Y-74732838D01*
X88325059Y-74871910D01*
X88180069Y-75084110D01*
X88148160Y-75241683D01*
X87424822Y-75965021D01*
X87175225Y-75964803D01*
X86757914Y-76137233D01*
X86438355Y-76456235D01*
X86265197Y-76873244D01*
X86264803Y-77324775D01*
X86437233Y-77742086D01*
X86692272Y-77997570D01*
X86444921Y-78244921D01*
X86274755Y-78499593D01*
X86239913Y-78674755D01*
X86215000Y-78800000D01*
X86215000Y-83900000D01*
X86274755Y-84200407D01*
X86444921Y-84455079D01*
X86717593Y-84727751D01*
X86326541Y-84565372D01*
X85477185Y-84564630D01*
X85050918Y-84740760D01*
X85039338Y-84729180D01*
X85442086Y-84562767D01*
X85761645Y-84243765D01*
X85934803Y-83826756D01*
X85935197Y-83375225D01*
X85762767Y-82957914D01*
X85443765Y-82638355D01*
X85026756Y-82465197D01*
X84745207Y-82464951D01*
X85155079Y-82055079D01*
X85325245Y-81800407D01*
X85385000Y-81500000D01*
X85385000Y-78700000D01*
X85325245Y-78399594D01*
X85155079Y-78144921D01*
X84585079Y-77574921D01*
X84330407Y-77404755D01*
X84162233Y-77371303D01*
X84165931Y-77365890D01*
X84216940Y-77114000D01*
X84216940Y-76606000D01*
X84172662Y-76370683D01*
X84078334Y-76224093D01*
X84165931Y-76095890D01*
X84216940Y-75844000D01*
X84216940Y-75793218D01*
X85355079Y-74655079D01*
X85516014Y-74414222D01*
X86007800Y-74211020D01*
X86608909Y-73610959D01*
X86934628Y-72826541D01*
X86935370Y-71977185D01*
X86611020Y-71192200D01*
X86010959Y-70591091D01*
X85226541Y-70265372D01*
X84377185Y-70264630D01*
X83592200Y-70588980D01*
X82991091Y-71189041D01*
X82876108Y-71465950D01*
X81534979Y-70124821D01*
X81535197Y-69875225D01*
X81362767Y-69457914D01*
X81043765Y-69138355D01*
X80626756Y-68965197D01*
X80175225Y-68964803D01*
X79757914Y-69137233D01*
X79438355Y-69456235D01*
X79265197Y-69873244D01*
X79264803Y-70324775D01*
X79437233Y-70742086D01*
X79756235Y-71061645D01*
X80173244Y-71234803D01*
X80424865Y-71235023D01*
X82144921Y-72955079D01*
X82399593Y-73125245D01*
X82700000Y-73185000D01*
X82814282Y-73185000D01*
X82988980Y-73607800D01*
X83584991Y-74204851D01*
X83101282Y-74688560D01*
X82426500Y-74688560D01*
X82403117Y-74692960D01*
X81497440Y-73787282D01*
X81497440Y-73300000D01*
X81453162Y-73064683D01*
X81314090Y-72848559D01*
X81101890Y-72703569D01*
X80850000Y-72652560D01*
X79150000Y-72652560D01*
X78914683Y-72696838D01*
X78698559Y-72835910D01*
X78553569Y-73048110D01*
X78502560Y-73300000D01*
X78502560Y-75300000D01*
X78512014Y-75350243D01*
X78435000Y-75334648D01*
X78435000Y-72770189D01*
X78561645Y-72643765D01*
X78734803Y-72226756D01*
X78735197Y-71775225D01*
X78562767Y-71357914D01*
X78243765Y-71038355D01*
X77826756Y-70865197D01*
X77375225Y-70864803D01*
X76957914Y-71037233D01*
X76638355Y-71356235D01*
X76465197Y-71773244D01*
X76464803Y-72224775D01*
X76637233Y-72642086D01*
X76865000Y-72870251D01*
X76865000Y-75334146D01*
X76664683Y-75371838D01*
X76448559Y-75510910D01*
X76402031Y-75579006D01*
X76259698Y-75436673D01*
X76026309Y-75340000D01*
X75435750Y-75340000D01*
X75277000Y-75498750D01*
X75277000Y-76473000D01*
X75297000Y-76473000D01*
X75297000Y-76727000D01*
X75277000Y-76727000D01*
X75277000Y-76747000D01*
X75023000Y-76747000D01*
X75023000Y-76727000D01*
X73923750Y-76727000D01*
X73765000Y-76885750D01*
X73765000Y-77351310D01*
X73861673Y-77584699D01*
X74040302Y-77763327D01*
X74273691Y-77860000D01*
X74864250Y-77860000D01*
X75022998Y-77701252D01*
X75022998Y-77860000D01*
X75088824Y-77860000D01*
X75048559Y-77885910D01*
X74903569Y-78098110D01*
X74852560Y-78350000D01*
X74852560Y-80050000D01*
X74896838Y-80285317D01*
X75035910Y-80501441D01*
X75248110Y-80646431D01*
X75500000Y-80697440D01*
X75815000Y-80697440D01*
X75815000Y-81702560D01*
X75600000Y-81702560D01*
X75364683Y-81746838D01*
X75148559Y-81885910D01*
X75003569Y-82098110D01*
X74952560Y-82350000D01*
X74952560Y-84050000D01*
X74996838Y-84285317D01*
X75135910Y-84501441D01*
X75348110Y-84646431D01*
X75600000Y-84697440D01*
X77600000Y-84697440D01*
X77835317Y-84653162D01*
X78051441Y-84514090D01*
X78196431Y-84301890D01*
X78247440Y-84050000D01*
X78247440Y-82350000D01*
X78203162Y-82114683D01*
X78064090Y-81898559D01*
X77851890Y-81753569D01*
X77600000Y-81702560D01*
X77385000Y-81702560D01*
X77385000Y-80697440D01*
X77500000Y-80697440D01*
X77735317Y-80653162D01*
X77951441Y-80514090D01*
X78096431Y-80301890D01*
X78147440Y-80050000D01*
X78147440Y-79985000D01*
X79100000Y-79985000D01*
X79288826Y-79947440D01*
X80142402Y-79947440D01*
X79524821Y-80565021D01*
X79275225Y-80564803D01*
X78857914Y-80737233D01*
X78538355Y-81056235D01*
X78365197Y-81473244D01*
X78364803Y-81924775D01*
X78537233Y-82342086D01*
X78856235Y-82661645D01*
X79273244Y-82834803D01*
X79724775Y-82835197D01*
X79815000Y-82797917D01*
X79815000Y-86760982D01*
X79698559Y-86835910D01*
X79553569Y-87048110D01*
X79502560Y-87300000D01*
X79502560Y-87687282D01*
X79224842Y-87965000D01*
X78965854Y-87965000D01*
X78928162Y-87764683D01*
X78789090Y-87548559D01*
X78720994Y-87502031D01*
X78863327Y-87359698D01*
X78960000Y-87126309D01*
X78960000Y-86535750D01*
X78801250Y-86377000D01*
X77827000Y-86377000D01*
X77827000Y-86397000D01*
X77573000Y-86397000D01*
X77573000Y-86377000D01*
X76598750Y-86377000D01*
X76440000Y-86535750D01*
X76440000Y-87126309D01*
X76536673Y-87359698D01*
X76677910Y-87500936D01*
X76623559Y-87535910D01*
X76478569Y-87748110D01*
X76427560Y-88000000D01*
X76427560Y-88469492D01*
X76414090Y-88448559D01*
X76201890Y-88303569D01*
X75950000Y-88252560D01*
X74250000Y-88252560D01*
X74014683Y-88296838D01*
X73798559Y-88435910D01*
X73653569Y-88648110D01*
X73602560Y-88900000D01*
X73602560Y-89569492D01*
X73589090Y-89548559D01*
X73376890Y-89403569D01*
X73125000Y-89352560D01*
X71875000Y-89352560D01*
X71639683Y-89396838D01*
X71423559Y-89535910D01*
X71278569Y-89748110D01*
X71227560Y-90000000D01*
X32685000Y-90000000D01*
X32685000Y-78824775D01*
X60664803Y-78824775D01*
X60837233Y-79242086D01*
X61156235Y-79561645D01*
X61573244Y-79734803D01*
X62024775Y-79735197D01*
X62442086Y-79562767D01*
X62620163Y-79385000D01*
X63084887Y-79385000D01*
X62965197Y-79673244D01*
X62964803Y-80124775D01*
X63137233Y-80542086D01*
X63456235Y-80861645D01*
X63873244Y-81034803D01*
X64124865Y-81035023D01*
X67115000Y-84025157D01*
X67115000Y-86679898D01*
X66938355Y-86856235D01*
X66765197Y-87273244D01*
X66764803Y-87724775D01*
X66937233Y-88142086D01*
X67256235Y-88461645D01*
X67673244Y-88634803D01*
X68124775Y-88635197D01*
X68542086Y-88462767D01*
X68861645Y-88143765D01*
X68920591Y-88001809D01*
X68937233Y-88042086D01*
X69256235Y-88361645D01*
X69673244Y-88534803D01*
X70124775Y-88535197D01*
X70542086Y-88362767D01*
X70861645Y-88043765D01*
X70942891Y-87848103D01*
X71056235Y-87961645D01*
X71473244Y-88134803D01*
X71924775Y-88135197D01*
X72342086Y-87962767D01*
X72661645Y-87643765D01*
X72834803Y-87226756D01*
X72835197Y-86775225D01*
X72662767Y-86357914D01*
X72343765Y-86038355D01*
X71926756Y-85865197D01*
X71475225Y-85864803D01*
X71475038Y-85864880D01*
X70983849Y-85373691D01*
X76440000Y-85373691D01*
X76440000Y-85964250D01*
X76598750Y-86123000D01*
X77573000Y-86123000D01*
X77573000Y-85023750D01*
X77827000Y-85023750D01*
X77827000Y-86123000D01*
X78801250Y-86123000D01*
X78960000Y-85964250D01*
X78960000Y-85373691D01*
X78863327Y-85140302D01*
X78684699Y-84961673D01*
X78451310Y-84865000D01*
X77985750Y-84865000D01*
X77827000Y-85023750D01*
X77573000Y-85023750D01*
X77414250Y-84865000D01*
X76948690Y-84865000D01*
X76715301Y-84961673D01*
X76536673Y-85140302D01*
X76440000Y-85373691D01*
X70983849Y-85373691D01*
X70585000Y-84974842D01*
X70585000Y-83485750D01*
X70965000Y-83485750D01*
X70965000Y-84176310D01*
X71061673Y-84409699D01*
X71240302Y-84588327D01*
X71473691Y-84685000D01*
X72314250Y-84685000D01*
X72473000Y-84526250D01*
X72473000Y-83327000D01*
X72727000Y-83327000D01*
X72727000Y-84526250D01*
X72885750Y-84685000D01*
X73726309Y-84685000D01*
X73959698Y-84588327D01*
X74138327Y-84409699D01*
X74235000Y-84176310D01*
X74235000Y-83485750D01*
X74076250Y-83327000D01*
X72727000Y-83327000D01*
X72473000Y-83327000D01*
X71123750Y-83327000D01*
X70965000Y-83485750D01*
X70585000Y-83485750D01*
X70585000Y-82600000D01*
X70525245Y-82299594D01*
X70474528Y-82223690D01*
X70965000Y-82223690D01*
X70965000Y-82914250D01*
X71123750Y-83073000D01*
X72473000Y-83073000D01*
X72473000Y-81873750D01*
X72727000Y-81873750D01*
X72727000Y-83073000D01*
X74076250Y-83073000D01*
X74235000Y-82914250D01*
X74235000Y-82223690D01*
X74138327Y-81990301D01*
X73959698Y-81811673D01*
X73726309Y-81715000D01*
X72885750Y-81715000D01*
X72727000Y-81873750D01*
X72473000Y-81873750D01*
X72314250Y-81715000D01*
X71473691Y-81715000D01*
X71240302Y-81811673D01*
X71061673Y-81990301D01*
X70965000Y-82223690D01*
X70474528Y-82223690D01*
X70355079Y-82044921D01*
X67834933Y-79524775D01*
X69264803Y-79524775D01*
X69437233Y-79942086D01*
X69756235Y-80261645D01*
X70173244Y-80434803D01*
X70624775Y-80435197D01*
X70915883Y-80314913D01*
X71035910Y-80501441D01*
X71248110Y-80646431D01*
X71500000Y-80697440D01*
X73500000Y-80697440D01*
X73735317Y-80653162D01*
X73951441Y-80514090D01*
X74096431Y-80301890D01*
X74147440Y-80050000D01*
X74147440Y-78350000D01*
X74103162Y-78114683D01*
X73964090Y-77898559D01*
X73751890Y-77753569D01*
X73500000Y-77702560D01*
X71500000Y-77702560D01*
X71264683Y-77746838D01*
X71048559Y-77885910D01*
X70903569Y-78098110D01*
X70869566Y-78266021D01*
X70626756Y-78165197D01*
X70175225Y-78164803D01*
X69757914Y-78337233D01*
X69438355Y-78656235D01*
X69265197Y-79073244D01*
X69264803Y-79524775D01*
X67834933Y-79524775D01*
X65355079Y-77044921D01*
X65100407Y-76874755D01*
X64800000Y-76815000D01*
X64020102Y-76815000D01*
X63843765Y-76638355D01*
X63426756Y-76465197D01*
X62975225Y-76464803D01*
X62557914Y-76637233D01*
X62238355Y-76956235D01*
X62065197Y-77373244D01*
X62065103Y-77481120D01*
X62026756Y-77465197D01*
X61575225Y-77464803D01*
X61157914Y-77637233D01*
X60838355Y-77956235D01*
X60665197Y-78373244D01*
X60664803Y-78824775D01*
X32685000Y-78824775D01*
X32685000Y-77824775D01*
X48764803Y-77824775D01*
X48937233Y-78242086D01*
X49256235Y-78561645D01*
X49673244Y-78734803D01*
X50124775Y-78735197D01*
X50542086Y-78562767D01*
X50861645Y-78243765D01*
X51034803Y-77826756D01*
X51035023Y-77575135D01*
X52255079Y-76355079D01*
X52260183Y-76347440D01*
X52950000Y-76347440D01*
X53185317Y-76303162D01*
X53401441Y-76164090D01*
X53546431Y-75951890D01*
X53580075Y-75785750D01*
X53615000Y-75785750D01*
X53615000Y-77226309D01*
X53711673Y-77459698D01*
X53890301Y-77638327D01*
X54123690Y-77735000D01*
X54714250Y-77735000D01*
X54873000Y-77576250D01*
X54873000Y-75627000D01*
X55127000Y-75627000D01*
X55127000Y-77576250D01*
X55285750Y-77735000D01*
X55876310Y-77735000D01*
X56109699Y-77638327D01*
X56288327Y-77459698D01*
X56385000Y-77226309D01*
X56385000Y-75785750D01*
X56615000Y-75785750D01*
X56615000Y-77226309D01*
X56711673Y-77459698D01*
X56890301Y-77638327D01*
X57123690Y-77735000D01*
X57714250Y-77735000D01*
X57873000Y-77576250D01*
X57873000Y-75627000D01*
X58127000Y-75627000D01*
X58127000Y-77576250D01*
X58285750Y-77735000D01*
X58876310Y-77735000D01*
X59109699Y-77638327D01*
X59288327Y-77459698D01*
X59385000Y-77226309D01*
X59385000Y-75848690D01*
X73765000Y-75848690D01*
X73765000Y-76314250D01*
X73923750Y-76473000D01*
X75023000Y-76473000D01*
X75023000Y-75498750D01*
X74864250Y-75340000D01*
X74273691Y-75340000D01*
X74040302Y-75436673D01*
X73861673Y-75615301D01*
X73765000Y-75848690D01*
X59385000Y-75848690D01*
X59385000Y-75785750D01*
X59226250Y-75627000D01*
X58127000Y-75627000D01*
X57873000Y-75627000D01*
X56773750Y-75627000D01*
X56615000Y-75785750D01*
X56385000Y-75785750D01*
X56226250Y-75627000D01*
X55127000Y-75627000D01*
X54873000Y-75627000D01*
X53773750Y-75627000D01*
X53615000Y-75785750D01*
X53580075Y-75785750D01*
X53597440Y-75700000D01*
X53597440Y-73700000D01*
X53553162Y-73464683D01*
X53414090Y-73248559D01*
X53201890Y-73103569D01*
X52950000Y-73052560D01*
X50450000Y-73052560D01*
X50214683Y-73096838D01*
X49998559Y-73235910D01*
X49853569Y-73448110D01*
X49802560Y-73700000D01*
X49802560Y-75700000D01*
X49846838Y-75935317D01*
X49985910Y-76151441D01*
X50135910Y-76253932D01*
X49924821Y-76465021D01*
X49675225Y-76464803D01*
X49257914Y-76637233D01*
X48938355Y-76956235D01*
X48765197Y-77373244D01*
X48764803Y-77824775D01*
X32685000Y-77824775D01*
X32685000Y-69700000D01*
X49802560Y-69700000D01*
X49802560Y-71700000D01*
X49846838Y-71935317D01*
X49985910Y-72151441D01*
X50198110Y-72296431D01*
X50450000Y-72347440D01*
X52950000Y-72347440D01*
X53185317Y-72303162D01*
X53401441Y-72164090D01*
X53546431Y-71951890D01*
X53597440Y-71700000D01*
X53597440Y-71485000D01*
X53602560Y-71485000D01*
X53602560Y-73100000D01*
X53646838Y-73335317D01*
X53752482Y-73499493D01*
X53711673Y-73540302D01*
X53615000Y-73773691D01*
X53615000Y-75214250D01*
X53773750Y-75373000D01*
X54873000Y-75373000D01*
X54873000Y-75353000D01*
X55127000Y-75353000D01*
X55127000Y-75373000D01*
X56226250Y-75373000D01*
X56385000Y-75214250D01*
X56385000Y-73773691D01*
X56288327Y-73540302D01*
X56246366Y-73498340D01*
X56346431Y-73351890D01*
X56397440Y-73100000D01*
X56397440Y-72285000D01*
X56602560Y-72285000D01*
X56602560Y-73100000D01*
X56646838Y-73335317D01*
X56752482Y-73499493D01*
X56711673Y-73540302D01*
X56615000Y-73773691D01*
X56615000Y-75214250D01*
X56773750Y-75373000D01*
X57873000Y-75373000D01*
X57873000Y-75353000D01*
X58127000Y-75353000D01*
X58127000Y-75373000D01*
X59226250Y-75373000D01*
X59385000Y-75214250D01*
X59385000Y-74267197D01*
X59548690Y-74335000D01*
X60014250Y-74335000D01*
X60173000Y-74176250D01*
X60173000Y-73077000D01*
X60427000Y-73077000D01*
X60427000Y-74176250D01*
X60585750Y-74335000D01*
X61051310Y-74335000D01*
X61284699Y-74238327D01*
X61300000Y-74223026D01*
X61315301Y-74238327D01*
X61548690Y-74335000D01*
X62014250Y-74335000D01*
X62173000Y-74176250D01*
X62173000Y-73077000D01*
X62427000Y-73077000D01*
X62427000Y-74176250D01*
X62585750Y-74335000D01*
X63051310Y-74335000D01*
X63284699Y-74238327D01*
X63463327Y-74059698D01*
X63560000Y-73826309D01*
X63560000Y-73235750D01*
X63401250Y-73077000D01*
X62427000Y-73077000D01*
X62173000Y-73077000D01*
X60427000Y-73077000D01*
X60173000Y-73077000D01*
X60153000Y-73077000D01*
X60153000Y-72823000D01*
X60173000Y-72823000D01*
X60173000Y-72803000D01*
X60427000Y-72803000D01*
X60427000Y-72823000D01*
X62173000Y-72823000D01*
X62173000Y-72803000D01*
X62427000Y-72803000D01*
X62427000Y-72823000D01*
X63401250Y-72823000D01*
X63560000Y-72664250D01*
X63560000Y-72073691D01*
X63463327Y-71840302D01*
X63322090Y-71699064D01*
X63376441Y-71664090D01*
X63521431Y-71451890D01*
X63565352Y-71235000D01*
X64329636Y-71235000D01*
X64356235Y-71261645D01*
X64773244Y-71434803D01*
X65224775Y-71435197D01*
X65642086Y-71262767D01*
X65961645Y-70943765D01*
X66134803Y-70526756D01*
X66135197Y-70075225D01*
X65962767Y-69657914D01*
X65643765Y-69338355D01*
X65226756Y-69165197D01*
X64775225Y-69164803D01*
X64357914Y-69337233D01*
X64038355Y-69656235D01*
X64034715Y-69665000D01*
X63565854Y-69665000D01*
X63528162Y-69464683D01*
X63389090Y-69248559D01*
X63176890Y-69103569D01*
X62925000Y-69052560D01*
X61675000Y-69052560D01*
X61439683Y-69096838D01*
X61299273Y-69187190D01*
X61176890Y-69103569D01*
X60925000Y-69052560D01*
X59675000Y-69052560D01*
X59439683Y-69096838D01*
X59223559Y-69235910D01*
X59121492Y-69385290D01*
X59001890Y-69303569D01*
X58750000Y-69252560D01*
X57250000Y-69252560D01*
X57014683Y-69296838D01*
X56798559Y-69435910D01*
X56653569Y-69648110D01*
X56602560Y-69900000D01*
X56602560Y-70715000D01*
X56397440Y-70715000D01*
X56397440Y-69900000D01*
X56353162Y-69664683D01*
X56214090Y-69448559D01*
X56001890Y-69303569D01*
X55750000Y-69252560D01*
X54250000Y-69252560D01*
X54014683Y-69296838D01*
X53798559Y-69435910D01*
X53653569Y-69648110D01*
X53602560Y-69900000D01*
X53602560Y-69915000D01*
X53597440Y-69915000D01*
X53597440Y-69700000D01*
X53553162Y-69464683D01*
X53414090Y-69248559D01*
X53201890Y-69103569D01*
X52950000Y-69052560D01*
X50450000Y-69052560D01*
X50214683Y-69096838D01*
X49998559Y-69235910D01*
X49853569Y-69448110D01*
X49802560Y-69700000D01*
X32685000Y-69700000D01*
X32685000Y-54614873D01*
X36514812Y-54614873D01*
X36679646Y-55013800D01*
X36984595Y-55319282D01*
X37383233Y-55484811D01*
X37814873Y-55485188D01*
X38213800Y-55320354D01*
X38519282Y-55015405D01*
X38684811Y-54616767D01*
X38685188Y-54185127D01*
X38520354Y-53786200D01*
X38215405Y-53480718D01*
X37816767Y-53315189D01*
X37385127Y-53314812D01*
X36986200Y-53479646D01*
X36680718Y-53784595D01*
X36515189Y-54183233D01*
X36514812Y-54614873D01*
X32685000Y-54614873D01*
X32685000Y-51924775D01*
X41564803Y-51924775D01*
X41715000Y-52288278D01*
X41715000Y-53800000D01*
X41774755Y-54100407D01*
X41944921Y-54355079D01*
X45944921Y-58355079D01*
X46199593Y-58525245D01*
X46500000Y-58585000D01*
X79679898Y-58585000D01*
X79856235Y-58761645D01*
X80273244Y-58934803D01*
X80724775Y-58935197D01*
X81142086Y-58762767D01*
X81461645Y-58443765D01*
X81634803Y-58026756D01*
X81635197Y-57575225D01*
X81462767Y-57157914D01*
X81305133Y-57000004D01*
X81461645Y-56843765D01*
X81634803Y-56426756D01*
X81635058Y-56134857D01*
X82024775Y-56135197D01*
X82442086Y-55962767D01*
X82761645Y-55643765D01*
X82934803Y-55226756D01*
X82934935Y-55075223D01*
X85325158Y-52685000D01*
X85900000Y-52685000D01*
X86200407Y-52625245D01*
X86455079Y-52455079D01*
X87455079Y-51455079D01*
X87560409Y-51297440D01*
X87750000Y-51297440D01*
X87985317Y-51253162D01*
X88201441Y-51114090D01*
X88346431Y-50901890D01*
X88397440Y-50650000D01*
X88397440Y-48950000D01*
X88353162Y-48714683D01*
X88214090Y-48498559D01*
X88001890Y-48353569D01*
X87750000Y-48302560D01*
X86050000Y-48302560D01*
X85814683Y-48346838D01*
X85598559Y-48485910D01*
X85453569Y-48698110D01*
X85439914Y-48765541D01*
X85410054Y-48720853D01*
X84928285Y-48398946D01*
X84360000Y-48285907D01*
X83791715Y-48398946D01*
X83309946Y-48720853D01*
X82988039Y-49202622D01*
X82908382Y-49603085D01*
X82843765Y-49538355D01*
X82426756Y-49365197D01*
X81975225Y-49364803D01*
X81557914Y-49537233D01*
X81238355Y-49856235D01*
X81065197Y-50273244D01*
X81064803Y-50724775D01*
X81237233Y-51142086D01*
X81556235Y-51461645D01*
X81973244Y-51634803D01*
X82424775Y-51635197D01*
X82842086Y-51462767D01*
X83020163Y-51285000D01*
X83660000Y-51285000D01*
X83936869Y-51229927D01*
X84360000Y-51314093D01*
X84546612Y-51276974D01*
X84444921Y-51344921D01*
X81924734Y-53865108D01*
X81575225Y-53864803D01*
X81157914Y-54037233D01*
X80838355Y-54356235D01*
X80665197Y-54773244D01*
X80664942Y-55065143D01*
X80275225Y-55064803D01*
X79857914Y-55237233D01*
X79679837Y-55415000D01*
X46825158Y-55415000D01*
X44734979Y-53324821D01*
X44735197Y-53075225D01*
X44562767Y-52657914D01*
X44243765Y-52338355D01*
X43826756Y-52165197D01*
X43735826Y-52165118D01*
X43834803Y-51926756D01*
X43835197Y-51475225D01*
X43662767Y-51057914D01*
X43343765Y-50738355D01*
X42926756Y-50565197D01*
X42475225Y-50564803D01*
X42057914Y-50737233D01*
X41738355Y-51056235D01*
X41565197Y-51473244D01*
X41564803Y-51924775D01*
X32685000Y-51924775D01*
X32685000Y-50214873D01*
X36514812Y-50214873D01*
X36679646Y-50613800D01*
X36984595Y-50919282D01*
X37383233Y-51084811D01*
X37814873Y-51085188D01*
X38213800Y-50920354D01*
X38519282Y-50615405D01*
X38684811Y-50216767D01*
X38685188Y-49785127D01*
X38520354Y-49386200D01*
X38215405Y-49080718D01*
X37816767Y-48915189D01*
X37385127Y-48914812D01*
X36986200Y-49079646D01*
X36680718Y-49384595D01*
X36515189Y-49783233D01*
X36514812Y-50214873D01*
X32685000Y-50214873D01*
X32685000Y-47785750D01*
X56365000Y-47785750D01*
X56365000Y-48476310D01*
X56461673Y-48709699D01*
X56640302Y-48888327D01*
X56873691Y-48985000D01*
X57714250Y-48985000D01*
X57873000Y-48826250D01*
X57873000Y-47627000D01*
X58127000Y-47627000D01*
X58127000Y-48826250D01*
X58285750Y-48985000D01*
X59126309Y-48985000D01*
X59359698Y-48888327D01*
X59538327Y-48709699D01*
X59635000Y-48476310D01*
X59635000Y-47785750D01*
X59476250Y-47627000D01*
X58127000Y-47627000D01*
X57873000Y-47627000D01*
X56523750Y-47627000D01*
X56365000Y-47785750D01*
X32685000Y-47785750D01*
X32685000Y-46523690D01*
X56365000Y-46523690D01*
X56365000Y-47214250D01*
X56523750Y-47373000D01*
X57873000Y-47373000D01*
X57873000Y-46173750D01*
X58127000Y-46173750D01*
X58127000Y-47373000D01*
X59476250Y-47373000D01*
X59635000Y-47214250D01*
X59635000Y-46650000D01*
X60352560Y-46650000D01*
X60352560Y-48350000D01*
X60396838Y-48585317D01*
X60535910Y-48801441D01*
X60748110Y-48946431D01*
X61000000Y-48997440D01*
X63000000Y-48997440D01*
X63235317Y-48953162D01*
X63451441Y-48814090D01*
X63596431Y-48601890D01*
X63647440Y-48350000D01*
X63647440Y-48285000D01*
X63709146Y-48285000D01*
X63746838Y-48485317D01*
X63885910Y-48701441D01*
X64098110Y-48846431D01*
X64350000Y-48897440D01*
X66050000Y-48897440D01*
X66285317Y-48853162D01*
X66501441Y-48714090D01*
X66646431Y-48501890D01*
X66660086Y-48434459D01*
X66689946Y-48479147D01*
X66915000Y-48629523D01*
X66915000Y-49779898D01*
X66738355Y-49956235D01*
X66565197Y-50373244D01*
X66564803Y-50824775D01*
X66737233Y-51242086D01*
X67056235Y-51561645D01*
X67473244Y-51734803D01*
X67924775Y-51735197D01*
X68342086Y-51562767D01*
X68661645Y-51243765D01*
X68834803Y-50826756D01*
X68835197Y-50375225D01*
X68662767Y-49957914D01*
X68485000Y-49779837D01*
X68485000Y-48682977D01*
X68790054Y-48479147D01*
X69010000Y-48149974D01*
X69229946Y-48479147D01*
X69711715Y-48801054D01*
X70280000Y-48914093D01*
X70848285Y-48801054D01*
X71330054Y-48479147D01*
X71526596Y-48185000D01*
X71552560Y-48185000D01*
X71552560Y-48250000D01*
X71596838Y-48485317D01*
X71735910Y-48701441D01*
X71948110Y-48846431D01*
X72200000Y-48897440D01*
X74200000Y-48897440D01*
X74435317Y-48853162D01*
X74651441Y-48714090D01*
X74796431Y-48501890D01*
X74847440Y-48250000D01*
X74847440Y-46550000D01*
X75552560Y-46550000D01*
X75552560Y-48250000D01*
X75596838Y-48485317D01*
X75735910Y-48701441D01*
X75948110Y-48846431D01*
X76200000Y-48897440D01*
X78200000Y-48897440D01*
X78435317Y-48853162D01*
X78651441Y-48714090D01*
X78796431Y-48501890D01*
X78847440Y-48250000D01*
X78847440Y-48185000D01*
X81379724Y-48185000D01*
X81456235Y-48261645D01*
X81873244Y-48434803D01*
X82324775Y-48435197D01*
X82742086Y-48262767D01*
X83061645Y-47943765D01*
X83234803Y-47526756D01*
X83235197Y-47075225D01*
X83062767Y-46657914D01*
X82743765Y-46338355D01*
X82326756Y-46165197D01*
X81875225Y-46164803D01*
X81457914Y-46337233D01*
X81179662Y-46615000D01*
X78847440Y-46615000D01*
X78847440Y-46550000D01*
X78803162Y-46314683D01*
X78664090Y-46098559D01*
X78451890Y-45953569D01*
X78200000Y-45902560D01*
X76200000Y-45902560D01*
X75964683Y-45946838D01*
X75748559Y-46085910D01*
X75603569Y-46298110D01*
X75552560Y-46550000D01*
X74847440Y-46550000D01*
X74803162Y-46314683D01*
X74664090Y-46098559D01*
X74451890Y-45953569D01*
X74200000Y-45902560D01*
X72200000Y-45902560D01*
X71964683Y-45946838D01*
X71748559Y-46085910D01*
X71603569Y-46298110D01*
X71552560Y-46550000D01*
X71552560Y-46615000D01*
X71526596Y-46615000D01*
X71330054Y-46320853D01*
X70848285Y-45998946D01*
X70280000Y-45885907D01*
X69711715Y-45998946D01*
X69229946Y-46320853D01*
X69010000Y-46650026D01*
X68790054Y-46320853D01*
X68308285Y-45998946D01*
X67740000Y-45885907D01*
X67171715Y-45998946D01*
X66689946Y-46320853D01*
X66662150Y-46362452D01*
X66653162Y-46314683D01*
X66514090Y-46098559D01*
X66301890Y-45953569D01*
X66050000Y-45902560D01*
X64350000Y-45902560D01*
X64114683Y-45946838D01*
X63898559Y-46085910D01*
X63753569Y-46298110D01*
X63702560Y-46550000D01*
X63702560Y-46715000D01*
X63647440Y-46715000D01*
X63647440Y-46650000D01*
X63603162Y-46414683D01*
X63464090Y-46198559D01*
X63251890Y-46053569D01*
X63000000Y-46002560D01*
X61000000Y-46002560D01*
X60764683Y-46046838D01*
X60548559Y-46185910D01*
X60403569Y-46398110D01*
X60352560Y-46650000D01*
X59635000Y-46650000D01*
X59635000Y-46523690D01*
X59538327Y-46290301D01*
X59359698Y-46111673D01*
X59126309Y-46015000D01*
X58285750Y-46015000D01*
X58127000Y-46173750D01*
X57873000Y-46173750D01*
X57714250Y-46015000D01*
X56873691Y-46015000D01*
X56640302Y-46111673D01*
X56461673Y-46290301D01*
X56365000Y-46523690D01*
X32685000Y-46523690D01*
X32685000Y-45685000D01*
X111315000Y-45685000D01*
X111315000Y-109315000D01*
M02*
