G04 #@! TF.FileFunction,Copper,L1,Top,Signal*
%FSLAX46Y46*%
G04 Gerber Fmt 4.6, Leading zero omitted, Abs format (unit mm)*
G04 Created by KiCad (PCBNEW 4.0.5) date 05/02/17 17:06:41*
%MOMM*%
%LPD*%
G01*
G04 APERTURE LIST*
%ADD10C,0.100000*%
%ADD11R,1.500000X1.250000*%
%ADD12R,1.250000X1.500000*%
%ADD13O,3.500120X7.000240*%
%ADD14O,1.600200X2.499360*%
%ADD15R,1.700000X1.700000*%
%ADD16O,1.700000X1.700000*%
%ADD17R,2.300000X0.500000*%
%ADD18R,2.500000X2.000000*%
%ADD19R,1.700000X2.000000*%
%ADD20R,2.000000X3.800000*%
%ADD21R,2.000000X1.500000*%
%ADD22R,1.550000X0.300000*%
%ADD23R,0.300000X1.550000*%
%ADD24R,2.000000X7.875000*%
%ADD25R,1.727200X1.727200*%
%ADD26O,1.727200X1.727200*%
%ADD27R,3.200000X1.500000*%
%ADD28C,3.000000*%
%ADD29C,1.000000*%
%ADD30C,0.300000*%
%ADD31C,0.500000*%
%ADD32C,0.254000*%
G04 APERTURE END LIST*
D10*
D11*
X42150000Y-64500000D03*
X39650000Y-64500000D03*
X39850000Y-76900000D03*
X42350000Y-76900000D03*
D12*
X60600000Y-63850000D03*
X60600000Y-61350000D03*
X60600000Y-56350000D03*
X60600000Y-58850000D03*
X49800000Y-62950000D03*
X49800000Y-65450000D03*
X49800000Y-73450000D03*
X49800000Y-70950000D03*
D11*
X64450000Y-50700000D03*
X61950000Y-50700000D03*
X70250000Y-50500000D03*
X72750000Y-50500000D03*
X75550000Y-50500000D03*
X78050000Y-50500000D03*
X86550000Y-53700000D03*
X89050000Y-53700000D03*
D12*
X86800000Y-60050000D03*
X86800000Y-62550000D03*
X86900000Y-65650000D03*
X86900000Y-68150000D03*
D11*
X84050000Y-75300000D03*
X86550000Y-75300000D03*
X82950000Y-77500000D03*
X85450000Y-77500000D03*
X72950000Y-76500000D03*
X70450000Y-76500000D03*
X86550000Y-56600000D03*
X89050000Y-56600000D03*
X65750000Y-76500000D03*
X68250000Y-76500000D03*
D12*
X59900000Y-69150000D03*
X59900000Y-71650000D03*
X58800000Y-56350000D03*
X58800000Y-58850000D03*
D13*
X80297780Y-102063400D03*
X70099680Y-102063400D03*
D14*
X75200000Y-97798740D03*
X77699360Y-97798740D03*
D13*
X102897780Y-102063400D03*
X92699680Y-102063400D03*
D14*
X97800000Y-97798740D03*
X100299360Y-97798740D03*
D15*
X65200000Y-47400000D03*
D16*
X67740000Y-47400000D03*
X70280000Y-47400000D03*
D15*
X86900000Y-49800000D03*
D16*
X84360000Y-49800000D03*
D17*
X40200000Y-50600000D03*
X40200000Y-51400000D03*
X40200000Y-52200000D03*
X40200000Y-53000000D03*
X40200000Y-53800000D03*
D18*
X40100000Y-47750000D03*
X34600000Y-47750000D03*
X40100000Y-56650000D03*
X34600000Y-56650000D03*
D19*
X57600000Y-66800000D03*
X57600000Y-70800000D03*
D20*
X35750000Y-69300000D03*
D21*
X42050000Y-69300000D03*
X42050000Y-67000000D03*
X42050000Y-71600000D03*
D22*
X62800000Y-54650000D03*
X62800000Y-55150000D03*
X62800000Y-55650000D03*
X62800000Y-56150000D03*
X62800000Y-56650000D03*
X62800000Y-57150000D03*
X62800000Y-57650000D03*
X62800000Y-58150000D03*
X62800000Y-58650000D03*
X62800000Y-59150000D03*
X62800000Y-59650000D03*
X62800000Y-60150000D03*
X62800000Y-60650000D03*
X62800000Y-61150000D03*
X62800000Y-61650000D03*
X62800000Y-62150000D03*
X62800000Y-62650000D03*
X62800000Y-63150000D03*
X62800000Y-63650000D03*
X62800000Y-64150000D03*
X62800000Y-64650000D03*
X62800000Y-65150000D03*
X62800000Y-65650000D03*
X62800000Y-66150000D03*
X62800000Y-66650000D03*
X62800000Y-67150000D03*
X62800000Y-67650000D03*
X62800000Y-68150000D03*
X62800000Y-68650000D03*
X62800000Y-69150000D03*
X62800000Y-69650000D03*
X62800000Y-70150000D03*
X62800000Y-70650000D03*
X62800000Y-71150000D03*
X62800000Y-71650000D03*
X62800000Y-72150000D03*
D23*
X64750000Y-74100000D03*
X65250000Y-74100000D03*
X65750000Y-74100000D03*
X66250000Y-74100000D03*
X66750000Y-74100000D03*
X67250000Y-74100000D03*
X67750000Y-74100000D03*
X68250000Y-74100000D03*
X68750000Y-74100000D03*
X69250000Y-74100000D03*
X69750000Y-74100000D03*
X70250000Y-74100000D03*
X70750000Y-74100000D03*
X71250000Y-74100000D03*
X71750000Y-74100000D03*
X72250000Y-74100000D03*
X72750000Y-74100000D03*
X73250000Y-74100000D03*
X73750000Y-74100000D03*
X74250000Y-74100000D03*
X74750000Y-74100000D03*
X75250000Y-74100000D03*
X75750000Y-74100000D03*
X76250000Y-74100000D03*
X76750000Y-74100000D03*
X77250000Y-74100000D03*
X77750000Y-74100000D03*
X78250000Y-74100000D03*
X78750000Y-74100000D03*
X79250000Y-74100000D03*
X79750000Y-74100000D03*
X80250000Y-74100000D03*
X80750000Y-74100000D03*
X81250000Y-74100000D03*
X81750000Y-74100000D03*
X82250000Y-74100000D03*
D22*
X84200000Y-72150000D03*
X84200000Y-71650000D03*
X84200000Y-71150000D03*
X84200000Y-70650000D03*
X84200000Y-70150000D03*
X84200000Y-69650000D03*
X84200000Y-69150000D03*
X84200000Y-68650000D03*
X84200000Y-68150000D03*
X84200000Y-67650000D03*
X84200000Y-67150000D03*
X84200000Y-66650000D03*
X84200000Y-66150000D03*
X84200000Y-65650000D03*
X84200000Y-65150000D03*
X84200000Y-64650000D03*
X84200000Y-64150000D03*
X84200000Y-63650000D03*
X84200000Y-63150000D03*
X84200000Y-62650000D03*
X84200000Y-62150000D03*
X84200000Y-61650000D03*
X84200000Y-61150000D03*
X84200000Y-60650000D03*
X84200000Y-60150000D03*
X84200000Y-59650000D03*
X84200000Y-59150000D03*
X84200000Y-58650000D03*
X84200000Y-58150000D03*
X84200000Y-57650000D03*
X84200000Y-57150000D03*
X84200000Y-56650000D03*
X84200000Y-56150000D03*
X84200000Y-55650000D03*
X84200000Y-55150000D03*
X84200000Y-54650000D03*
D23*
X82250000Y-52700000D03*
X81750000Y-52700000D03*
X81250000Y-52700000D03*
X80750000Y-52700000D03*
X80250000Y-52700000D03*
X79750000Y-52700000D03*
X79250000Y-52700000D03*
X78750000Y-52700000D03*
X78250000Y-52700000D03*
X77750000Y-52700000D03*
X77250000Y-52700000D03*
X76750000Y-52700000D03*
X76250000Y-52700000D03*
X75750000Y-52700000D03*
X75250000Y-52700000D03*
X74750000Y-52700000D03*
X74250000Y-52700000D03*
X73750000Y-52700000D03*
X73250000Y-52700000D03*
X72750000Y-52700000D03*
X72250000Y-52700000D03*
X71750000Y-52700000D03*
X71250000Y-52700000D03*
X70750000Y-52700000D03*
X70250000Y-52700000D03*
X69750000Y-52700000D03*
X69250000Y-52700000D03*
X68750000Y-52700000D03*
X68250000Y-52700000D03*
X67750000Y-52700000D03*
X67250000Y-52700000D03*
X66750000Y-52700000D03*
X66250000Y-52700000D03*
X65750000Y-52700000D03*
X65250000Y-52700000D03*
X64750000Y-52700000D03*
D24*
X53600000Y-62762500D03*
X53600000Y-74637500D03*
D25*
X43300000Y-98650000D03*
D26*
X43300000Y-96110000D03*
X45840000Y-98650000D03*
X45840000Y-96110000D03*
X48380000Y-98650000D03*
X48380000Y-96110000D03*
X50920000Y-98650000D03*
X50920000Y-96110000D03*
X53460000Y-98650000D03*
X53460000Y-96110000D03*
D19*
X38000000Y-91000000D03*
X38000000Y-87000000D03*
X41000000Y-91000000D03*
X41000000Y-87000000D03*
X44000000Y-91000000D03*
X44000000Y-87000000D03*
X47000000Y-91000000D03*
X47000000Y-87000000D03*
X50000000Y-91000000D03*
X50000000Y-87000000D03*
X53000000Y-91000000D03*
X53000000Y-87000000D03*
X56000000Y-91000000D03*
X56000000Y-87000000D03*
X59000000Y-91000000D03*
X59000000Y-87000000D03*
D27*
X41300000Y-61900000D03*
X37300000Y-61900000D03*
X37500000Y-74500000D03*
X41500000Y-74500000D03*
D28*
X45900000Y-67000000D03*
X45800000Y-71500000D03*
D29*
X42500000Y-55500000D03*
X59800000Y-50600000D03*
X35400000Y-59100000D03*
X69200000Y-78200000D03*
X60300000Y-75000000D03*
X66300000Y-71600000D03*
X58600000Y-60900000D03*
X76100000Y-72100000D03*
X88500000Y-62600000D03*
X87800000Y-70000000D03*
X89100000Y-72800000D03*
X90800000Y-55100000D03*
X79900000Y-50500000D03*
X49800000Y-68400000D03*
X41300000Y-78800000D03*
X35500000Y-64400000D03*
X82100000Y-47300000D03*
X70400000Y-79300000D03*
X49900000Y-77600000D03*
X77600000Y-72000000D03*
X104100000Y-83100000D03*
X88400000Y-87600000D03*
X79500000Y-81700000D03*
X86400000Y-91300000D03*
X65000000Y-70300000D03*
X67700000Y-50600000D03*
X81800000Y-55000000D03*
X82200000Y-50500000D03*
X80500000Y-57800000D03*
X42700000Y-51700000D03*
X80500000Y-56200000D03*
X43600000Y-53300000D03*
X61800000Y-78600000D03*
X69900000Y-87400000D03*
X84800000Y-83600000D03*
X80400000Y-70100000D03*
X91300000Y-83700000D03*
X67900000Y-87500000D03*
X64100000Y-79900000D03*
X63200000Y-77600000D03*
X71700000Y-87000000D03*
X87400000Y-77100000D03*
D30*
X41100000Y-53800000D02*
X42500000Y-55200000D01*
X42500000Y-55200000D02*
X42500000Y-55500000D01*
X61950000Y-50700000D02*
X59900000Y-50700000D01*
X59900000Y-50700000D02*
X59800000Y-50600000D01*
X34600000Y-56650000D02*
X34600000Y-58300000D01*
X34600000Y-58300000D02*
X35400000Y-59100000D01*
X68250000Y-76500000D02*
X68250000Y-77250000D01*
X68250000Y-77250000D02*
X69200000Y-78200000D01*
X59900000Y-71650000D02*
X59900000Y-74600000D01*
X59900000Y-74600000D02*
X60300000Y-75000000D01*
X65250000Y-74100000D02*
X65250000Y-72650000D01*
X65250000Y-72650000D02*
X66300000Y-71600000D01*
X68250000Y-76500000D02*
X70450000Y-76500000D01*
X71750000Y-74100000D02*
X71750000Y-75200000D01*
X71750000Y-75200000D02*
X70450000Y-76500000D01*
X60600000Y-61350000D02*
X59050000Y-61350000D01*
X59050000Y-61350000D02*
X58600000Y-60900000D01*
X76750000Y-74100000D02*
X76750000Y-72750000D01*
X76750000Y-72750000D02*
X76100000Y-72100000D01*
X86800000Y-62550000D02*
X88450000Y-62550000D01*
X88450000Y-62550000D02*
X88500000Y-62600000D01*
X86900000Y-68150000D02*
X86900000Y-69100000D01*
X86900000Y-69100000D02*
X87800000Y-70000000D01*
X62800000Y-69650000D02*
X61750000Y-69650000D01*
X61750000Y-69650000D02*
X59900000Y-71500000D01*
X59900000Y-71500000D02*
X59900000Y-71650000D01*
X62800000Y-62150000D02*
X61400000Y-62150000D01*
X61400000Y-62150000D02*
X60600000Y-61350000D01*
X60600000Y-61350000D02*
X60600000Y-58850000D01*
X58800000Y-58850000D02*
X60600000Y-58850000D01*
X85450000Y-77500000D02*
X85450000Y-77150000D01*
X85450000Y-77150000D02*
X86550000Y-76050000D01*
X86550000Y-76050000D02*
X86550000Y-75300000D01*
X86550000Y-75300000D02*
X86600000Y-75300000D01*
X86600000Y-75300000D02*
X89100000Y-72800000D01*
X84200000Y-61650000D02*
X85900000Y-61650000D01*
X85900000Y-61650000D02*
X86800000Y-62550000D01*
X89050000Y-53700000D02*
X89400000Y-53700000D01*
X89400000Y-53700000D02*
X90800000Y-55100000D01*
X89050000Y-56600000D02*
X89050000Y-53700000D01*
X84200000Y-55150000D02*
X88350000Y-55150000D01*
X89050000Y-54450000D02*
X89050000Y-53700000D01*
X88350000Y-55150000D02*
X89050000Y-54450000D01*
X84200000Y-67150000D02*
X85900000Y-67150000D01*
X85900000Y-67150000D02*
X86900000Y-68150000D01*
X78050000Y-50500000D02*
X79900000Y-50500000D01*
X71750000Y-52700000D02*
X71750000Y-54150000D01*
X76750000Y-53850000D02*
X76750000Y-52700000D01*
X76100000Y-54500000D02*
X76750000Y-53850000D01*
X72100000Y-54500000D02*
X76100000Y-54500000D01*
X71750000Y-54150000D02*
X72100000Y-54500000D01*
X76750000Y-52700000D02*
X76750000Y-51800000D01*
X76750000Y-51800000D02*
X78050000Y-50500000D01*
X71750000Y-52700000D02*
X71750000Y-51500000D01*
X71750000Y-51500000D02*
X72750000Y-50500000D01*
X49800000Y-65450000D02*
X49800000Y-68400000D01*
X49800000Y-68400000D02*
X49800000Y-70950000D01*
X40200000Y-53800000D02*
X41100000Y-53800000D01*
X42350000Y-76900000D02*
X42350000Y-77750000D01*
X42350000Y-77750000D02*
X41300000Y-78800000D01*
X42350000Y-76900000D02*
X42350000Y-75350000D01*
X42350000Y-75350000D02*
X41500000Y-74500000D01*
X42050000Y-71600000D02*
X42050000Y-73950000D01*
X42050000Y-73950000D02*
X41500000Y-74500000D01*
X39650000Y-64500000D02*
X35600000Y-64500000D01*
X35500000Y-64400000D02*
X37300000Y-62600000D01*
X35600000Y-64500000D02*
X35500000Y-64400000D01*
X37300000Y-61900000D02*
X37300000Y-62600000D01*
D31*
X42050000Y-67000000D02*
X45900000Y-67000000D01*
X40200000Y-50600000D02*
X43600000Y-50600000D01*
X41300000Y-60700000D02*
X41300000Y-61900000D01*
X44700000Y-57300000D02*
X41300000Y-60700000D01*
X44700000Y-51700000D02*
X44700000Y-57300000D01*
X43600000Y-50600000D02*
X44700000Y-51700000D01*
X41300000Y-61900000D02*
X41300000Y-62300000D01*
X41300000Y-62300000D02*
X42150000Y-63150000D01*
X42150000Y-63150000D02*
X42150000Y-64500000D01*
X42150000Y-64500000D02*
X42150000Y-66900000D01*
X42150000Y-66900000D02*
X42050000Y-67000000D01*
D30*
X81750000Y-74100000D02*
X82250000Y-74100000D01*
X72950000Y-76500000D02*
X72950000Y-76750000D01*
X72950000Y-76750000D02*
X70400000Y-79300000D01*
X65750000Y-74100000D02*
X65750000Y-76500000D01*
X72250000Y-74100000D02*
X72250000Y-75800000D01*
X72250000Y-75800000D02*
X72950000Y-76500000D01*
X62800000Y-57150000D02*
X61400000Y-57150000D01*
X61400000Y-57150000D02*
X60600000Y-56350000D01*
X62800000Y-69150000D02*
X63950000Y-69150000D01*
X64350000Y-62650000D02*
X62800000Y-62650000D01*
X64700000Y-63000000D02*
X64350000Y-62650000D01*
X64700000Y-68400000D02*
X64700000Y-63000000D01*
X63950000Y-69150000D02*
X64700000Y-68400000D01*
X77250000Y-72350000D02*
X77600000Y-72000000D01*
X77250000Y-72350000D02*
X77250000Y-74100000D01*
X62800000Y-69150000D02*
X59900000Y-69150000D01*
X62800000Y-62650000D02*
X61550000Y-62650000D01*
X61550000Y-62650000D02*
X60600000Y-63600000D01*
X60600000Y-63600000D02*
X60600000Y-63850000D01*
X81750000Y-74100000D02*
X81750000Y-76300000D01*
X81750000Y-76300000D02*
X82950000Y-77500000D01*
X82250000Y-74100000D02*
X82250000Y-75050000D01*
X82250000Y-75050000D02*
X82500000Y-75300000D01*
X82500000Y-75300000D02*
X84050000Y-75300000D01*
X84200000Y-61150000D02*
X85700000Y-61150000D01*
X85700000Y-61150000D02*
X86800000Y-60050000D01*
X84200000Y-54650000D02*
X85600000Y-54650000D01*
X85600000Y-54650000D02*
X86550000Y-53700000D01*
X84200000Y-66650000D02*
X85900000Y-66650000D01*
X85900000Y-66650000D02*
X86900000Y-65650000D01*
X76250000Y-52700000D02*
X76250000Y-51200000D01*
X76250000Y-51200000D02*
X75550000Y-50500000D01*
X71250000Y-52700000D02*
X71250000Y-51500000D01*
X71250000Y-51500000D02*
X70250000Y-50500000D01*
X64450000Y-50700000D02*
X64450000Y-52400000D01*
X64450000Y-52400000D02*
X64750000Y-52700000D01*
X37500000Y-74500000D02*
X37500000Y-75300000D01*
X37500000Y-75300000D02*
X39100000Y-76900000D01*
X39100000Y-76900000D02*
X39850000Y-76900000D01*
X42050000Y-69300000D02*
X35750000Y-69300000D01*
X37500000Y-74500000D02*
X37500000Y-69500000D01*
X37300000Y-69300000D02*
X35750000Y-69300000D01*
X37500000Y-69500000D02*
X37300000Y-69300000D01*
X84200000Y-55650000D02*
X85600000Y-55650000D01*
X85600000Y-55650000D02*
X86550000Y-56600000D01*
X62800000Y-70650000D02*
X64650000Y-70650000D01*
X64650000Y-70650000D02*
X65000000Y-70300000D01*
X64850000Y-70150000D02*
X65000000Y-70300000D01*
X64850000Y-70150000D02*
X62800000Y-70150000D01*
X53600000Y-62762500D02*
X49987500Y-62762500D01*
X49987500Y-62762500D02*
X49800000Y-62950000D01*
X62800000Y-65650000D02*
X59850000Y-65650000D01*
X55237500Y-64400000D02*
X53600000Y-62762500D01*
X58600000Y-64400000D02*
X55237500Y-64400000D01*
X59850000Y-65650000D02*
X58600000Y-64400000D01*
X62800000Y-66150000D02*
X58250000Y-66150000D01*
X58250000Y-66150000D02*
X57600000Y-66800000D01*
X67750000Y-50650000D02*
X67700000Y-50600000D01*
X67750000Y-50650000D02*
X67750000Y-52700000D01*
X67750000Y-47410000D02*
X67740000Y-47400000D01*
X65100000Y-47500000D02*
X65200000Y-47400000D01*
X75250000Y-74100000D02*
X75250000Y-76450000D01*
X43100000Y-81900000D02*
X38000000Y-87000000D01*
X69800000Y-81900000D02*
X43100000Y-81900000D01*
X75250000Y-76450000D02*
X69800000Y-81900000D01*
X75750000Y-74100000D02*
X75750000Y-76850000D01*
X45600000Y-82400000D02*
X41000000Y-87000000D01*
X70200000Y-82400000D02*
X45600000Y-82400000D01*
X75750000Y-76850000D02*
X70200000Y-82400000D01*
X76250000Y-74100000D02*
X76250000Y-77350000D01*
X76250000Y-77350000D02*
X70700000Y-82900000D01*
X48100000Y-82900000D02*
X44000000Y-87000000D01*
X70700000Y-82900000D02*
X48100000Y-82900000D01*
X77750000Y-74100000D02*
X77750000Y-76850000D01*
X50600000Y-83400000D02*
X47000000Y-87000000D01*
X71200000Y-83400000D02*
X50600000Y-83400000D01*
X77750000Y-76850000D02*
X71200000Y-83400000D01*
X78250000Y-74100000D02*
X78250000Y-77250000D01*
X78250000Y-77250000D02*
X71500000Y-84000000D01*
X53000000Y-84000000D02*
X50000000Y-87000000D01*
X71500000Y-84000000D02*
X53000000Y-84000000D01*
X78750000Y-74100000D02*
X78750000Y-77750000D01*
X78750000Y-77750000D02*
X71900000Y-84600000D01*
X55400000Y-84600000D02*
X53000000Y-87000000D01*
X71900000Y-84600000D02*
X55400000Y-84600000D01*
X79250000Y-74100000D02*
X79250000Y-78150000D01*
X57800000Y-85200000D02*
X56000000Y-87000000D01*
X72200000Y-85200000D02*
X57800000Y-85200000D01*
X79250000Y-78150000D02*
X72200000Y-85200000D01*
X79750000Y-74100000D02*
X79750000Y-78550000D01*
X60500000Y-85800000D02*
X59000000Y-87300000D01*
X72500000Y-85800000D02*
X60500000Y-85800000D01*
X79750000Y-78550000D02*
X72500000Y-85800000D01*
X82950000Y-56150000D02*
X81800000Y-55000000D01*
X84200000Y-56150000D02*
X82950000Y-56150000D01*
X86900000Y-50000000D02*
X86900000Y-49800000D01*
X82250000Y-50550000D02*
X82200000Y-50500000D01*
X82250000Y-52700000D02*
X82250000Y-50550000D01*
X81150000Y-57150000D02*
X80500000Y-57800000D01*
X84200000Y-57150000D02*
X81150000Y-57150000D01*
X42400000Y-51400000D02*
X42700000Y-51700000D01*
X42400000Y-51400000D02*
X40200000Y-51400000D01*
X80950000Y-56650000D02*
X80500000Y-56200000D01*
X84200000Y-56650000D02*
X80950000Y-56650000D01*
X41700000Y-52200000D02*
X42800000Y-53300000D01*
X42800000Y-53300000D02*
X43600000Y-53300000D01*
X41700000Y-52200000D02*
X40200000Y-52200000D01*
X62800000Y-71150000D02*
X61350000Y-71150000D01*
X84800000Y-85100000D02*
X81800000Y-88100000D01*
X81800000Y-88100000D02*
X70600000Y-88100000D01*
X70600000Y-88100000D02*
X69900000Y-87400000D01*
X84800000Y-83600000D02*
X84800000Y-85100000D01*
X61400000Y-78200000D02*
X61800000Y-78600000D01*
X61400000Y-74700000D02*
X61400000Y-78200000D01*
X60900000Y-74200000D02*
X61400000Y-74700000D01*
X60900000Y-71600000D02*
X60900000Y-74200000D01*
X61350000Y-71150000D02*
X60900000Y-71600000D01*
X57600000Y-70800000D02*
X57437500Y-70800000D01*
X57437500Y-70800000D02*
X53600000Y-74637500D01*
X58000000Y-70700000D02*
X57537500Y-70700000D01*
X53600000Y-74637500D02*
X50987500Y-74637500D01*
X50987500Y-74637500D02*
X49800000Y-73450000D01*
X43300000Y-98650000D02*
X41150000Y-98650000D01*
X50000000Y-92500000D02*
X50000000Y-91000000D01*
X48500000Y-94000000D02*
X50000000Y-92500000D01*
X42000000Y-94000000D02*
X48500000Y-94000000D01*
X40500000Y-95500000D02*
X42000000Y-94000000D01*
X40500000Y-98000000D02*
X40500000Y-95500000D01*
X41150000Y-98650000D02*
X40500000Y-98000000D01*
X45840000Y-98650000D02*
X45840000Y-99160000D01*
X45840000Y-99160000D02*
X44500000Y-100500000D01*
X44500000Y-100500000D02*
X40500000Y-100500000D01*
X40500000Y-100500000D02*
X39750000Y-99750000D01*
X39750000Y-99750000D02*
X39750000Y-95000000D01*
X39750000Y-95000000D02*
X41500000Y-93250000D01*
X41500000Y-93250000D02*
X46250000Y-93250000D01*
X46250000Y-93250000D02*
X47000000Y-92500000D01*
X47000000Y-92500000D02*
X47000000Y-91000000D01*
X48380000Y-98650000D02*
X48380000Y-99370000D01*
X48380000Y-99370000D02*
X46500000Y-101250000D01*
X46500000Y-101250000D02*
X40000000Y-101250000D01*
X40000000Y-101250000D02*
X39000000Y-100250000D01*
X39000000Y-100250000D02*
X39000000Y-94500000D01*
X39000000Y-94500000D02*
X41000000Y-92500000D01*
X41000000Y-92500000D02*
X43750000Y-92500000D01*
X43750000Y-92500000D02*
X44000000Y-92250000D01*
X44000000Y-92250000D02*
X44000000Y-91000000D01*
X48380000Y-96110000D02*
X48380000Y-95620000D01*
X48380000Y-95620000D02*
X50000000Y-94000000D01*
X50000000Y-94000000D02*
X51500000Y-94000000D01*
X51500000Y-94000000D02*
X53000000Y-92500000D01*
X53000000Y-92500000D02*
X53000000Y-91000000D01*
X50920000Y-98650000D02*
X50850000Y-98650000D01*
X50850000Y-98650000D02*
X47500000Y-102000000D01*
X47500000Y-102000000D02*
X39250000Y-102000000D01*
X39250000Y-102000000D02*
X38250000Y-101000000D01*
X38250000Y-101000000D02*
X38250000Y-94000000D01*
X38250000Y-94000000D02*
X41000000Y-91250000D01*
X41000000Y-91250000D02*
X41000000Y-91000000D01*
X50920000Y-96110000D02*
X50920000Y-96080000D01*
X50920000Y-96080000D02*
X53000000Y-94000000D01*
X53000000Y-94000000D02*
X55000000Y-94000000D01*
X55000000Y-94000000D02*
X56000000Y-93000000D01*
X56000000Y-93000000D02*
X56000000Y-91000000D01*
X53460000Y-98650000D02*
X53460000Y-98790000D01*
X53460000Y-98790000D02*
X49500000Y-102750000D01*
X49500000Y-102750000D02*
X38750000Y-102750000D01*
X38750000Y-102750000D02*
X37500000Y-101500000D01*
X37500000Y-101500000D02*
X37500000Y-91000000D01*
X59000000Y-91000000D02*
X59000000Y-92000000D01*
X59000000Y-92000000D02*
X54890000Y-96110000D01*
X54890000Y-96110000D02*
X53460000Y-96110000D01*
X64700000Y-71700000D02*
X64900000Y-71700000D01*
X64250000Y-72150000D02*
X64700000Y-71700000D01*
X62800000Y-72150000D02*
X64250000Y-72150000D01*
X66500000Y-70100000D02*
X80400000Y-70100000D01*
X64900000Y-71700000D02*
X66500000Y-70100000D01*
X91300000Y-83700000D02*
X90100000Y-83700000D01*
X90100000Y-83700000D02*
X89400000Y-84400000D01*
X64750000Y-74100000D02*
X64750000Y-75150000D01*
X64750000Y-75150000D02*
X64200000Y-75700000D01*
X64200000Y-75700000D02*
X64200000Y-79800000D01*
X64200000Y-79800000D02*
X64100000Y-79900000D01*
X89300000Y-84400000D02*
X84200000Y-89500000D01*
X84200000Y-89500000D02*
X69900000Y-89500000D01*
X69900000Y-89500000D02*
X67900000Y-87500000D01*
X89400000Y-84400000D02*
X89300000Y-84400000D01*
X62800000Y-71650000D02*
X61830002Y-71650000D01*
X80600000Y-87000000D02*
X71700000Y-87000000D01*
X82600000Y-85000000D02*
X80600000Y-87000000D01*
X82600000Y-83200000D02*
X82600000Y-85000000D01*
X87400000Y-78400000D02*
X82600000Y-83200000D01*
X87400000Y-77100000D02*
X87400000Y-78400000D01*
X62600000Y-77000000D02*
X63200000Y-77600000D01*
X62600000Y-74900000D02*
X62600000Y-77000000D01*
X61500000Y-73800000D02*
X62600000Y-74900000D01*
X61500000Y-71980002D02*
X61500000Y-73800000D01*
X61830002Y-71650000D02*
X61500000Y-71980002D01*
D32*
G36*
X111315000Y-109315000D02*
X32685000Y-109315000D01*
X32685000Y-90000000D01*
X36502560Y-90000000D01*
X36502560Y-92000000D01*
X36546838Y-92235317D01*
X36685910Y-92451441D01*
X36715000Y-92471317D01*
X36715000Y-101500000D01*
X36774755Y-101800407D01*
X36944921Y-102055079D01*
X38194921Y-103305079D01*
X38449593Y-103475245D01*
X38750000Y-103535000D01*
X49500000Y-103535000D01*
X49800407Y-103475245D01*
X50055079Y-103305079D01*
X53127830Y-100232328D01*
X67714620Y-100232328D01*
X67714620Y-103894472D01*
X67896172Y-104807195D01*
X68413188Y-105580964D01*
X69186957Y-106097980D01*
X70099680Y-106279532D01*
X71012403Y-106097980D01*
X71786172Y-105580964D01*
X72303188Y-104807195D01*
X72484740Y-103894472D01*
X72484740Y-100232328D01*
X72303188Y-99319605D01*
X71786172Y-98545836D01*
X71012403Y-98028820D01*
X70099680Y-97847268D01*
X69186957Y-98028820D01*
X68413188Y-98545836D01*
X67896172Y-99319605D01*
X67714620Y-100232328D01*
X53127830Y-100232328D01*
X53247906Y-100112252D01*
X53430641Y-100148600D01*
X53489359Y-100148600D01*
X54062848Y-100034526D01*
X54549029Y-99709670D01*
X54873885Y-99223489D01*
X54987959Y-98650000D01*
X54873885Y-98076511D01*
X54549029Y-97590330D01*
X54234248Y-97380000D01*
X54335662Y-97312237D01*
X73764900Y-97312237D01*
X73764900Y-98285243D01*
X73874140Y-98834432D01*
X74185231Y-99300012D01*
X74650811Y-99611103D01*
X75200000Y-99720343D01*
X75749189Y-99611103D01*
X76214769Y-99300012D01*
X76449680Y-98948443D01*
X76684591Y-99300012D01*
X77150171Y-99611103D01*
X77699360Y-99720343D01*
X78027545Y-99655063D01*
X77912720Y-100232328D01*
X77912720Y-103894472D01*
X78094272Y-104807195D01*
X78611288Y-105580964D01*
X79385057Y-106097980D01*
X80297780Y-106279532D01*
X81210503Y-106097980D01*
X81984272Y-105580964D01*
X82501288Y-104807195D01*
X82682840Y-103894472D01*
X82682840Y-100232328D01*
X90314620Y-100232328D01*
X90314620Y-103894472D01*
X90496172Y-104807195D01*
X91013188Y-105580964D01*
X91786957Y-106097980D01*
X92699680Y-106279532D01*
X93612403Y-106097980D01*
X94386172Y-105580964D01*
X94903188Y-104807195D01*
X95084740Y-103894472D01*
X95084740Y-100232328D01*
X94903188Y-99319605D01*
X94386172Y-98545836D01*
X93612403Y-98028820D01*
X92699680Y-97847268D01*
X91786957Y-98028820D01*
X91013188Y-98545836D01*
X90496172Y-99319605D01*
X90314620Y-100232328D01*
X82682840Y-100232328D01*
X82501288Y-99319605D01*
X81984272Y-98545836D01*
X81210503Y-98028820D01*
X80297780Y-97847268D01*
X79385057Y-98028820D01*
X79134460Y-98196264D01*
X79134460Y-97312237D01*
X96364900Y-97312237D01*
X96364900Y-98285243D01*
X96474140Y-98834432D01*
X96785231Y-99300012D01*
X97250811Y-99611103D01*
X97800000Y-99720343D01*
X98349189Y-99611103D01*
X98814769Y-99300012D01*
X99049680Y-98948443D01*
X99284591Y-99300012D01*
X99750171Y-99611103D01*
X100299360Y-99720343D01*
X100627545Y-99655063D01*
X100512720Y-100232328D01*
X100512720Y-103894472D01*
X100694272Y-104807195D01*
X101211288Y-105580964D01*
X101985057Y-106097980D01*
X102897780Y-106279532D01*
X103810503Y-106097980D01*
X104584272Y-105580964D01*
X105101288Y-104807195D01*
X105282840Y-103894472D01*
X105282840Y-100232328D01*
X105101288Y-99319605D01*
X104584272Y-98545836D01*
X103810503Y-98028820D01*
X102897780Y-97847268D01*
X101985057Y-98028820D01*
X101734460Y-98196264D01*
X101734460Y-97312237D01*
X101625220Y-96763048D01*
X101314129Y-96297468D01*
X100848549Y-95986377D01*
X100299360Y-95877137D01*
X99750171Y-95986377D01*
X99284591Y-96297468D01*
X99049680Y-96649037D01*
X98814769Y-96297468D01*
X98349189Y-95986377D01*
X97800000Y-95877137D01*
X97250811Y-95986377D01*
X96785231Y-96297468D01*
X96474140Y-96763048D01*
X96364900Y-97312237D01*
X79134460Y-97312237D01*
X79025220Y-96763048D01*
X78714129Y-96297468D01*
X78248549Y-95986377D01*
X77699360Y-95877137D01*
X77150171Y-95986377D01*
X76684591Y-96297468D01*
X76449680Y-96649037D01*
X76214769Y-96297468D01*
X75749189Y-95986377D01*
X75200000Y-95877137D01*
X74650811Y-95986377D01*
X74185231Y-96297468D01*
X73874140Y-96763048D01*
X73764900Y-97312237D01*
X54335662Y-97312237D01*
X54549029Y-97169670D01*
X54732558Y-96895000D01*
X54890000Y-96895000D01*
X55190407Y-96835245D01*
X55445079Y-96665079D01*
X59462718Y-92647440D01*
X59850000Y-92647440D01*
X60085317Y-92603162D01*
X60301441Y-92464090D01*
X60446431Y-92251890D01*
X60497440Y-92000000D01*
X60497440Y-90000000D01*
X60453162Y-89764683D01*
X60314090Y-89548559D01*
X60101890Y-89403569D01*
X59850000Y-89352560D01*
X58150000Y-89352560D01*
X57914683Y-89396838D01*
X57698559Y-89535910D01*
X57553569Y-89748110D01*
X57502560Y-90000000D01*
X57502560Y-92000000D01*
X57546838Y-92235317D01*
X57589001Y-92300841D01*
X56758968Y-93130874D01*
X56785001Y-93000000D01*
X56785000Y-92999995D01*
X56785000Y-92647440D01*
X56850000Y-92647440D01*
X57085317Y-92603162D01*
X57301441Y-92464090D01*
X57446431Y-92251890D01*
X57497440Y-92000000D01*
X57497440Y-90000000D01*
X57453162Y-89764683D01*
X57314090Y-89548559D01*
X57101890Y-89403569D01*
X56850000Y-89352560D01*
X55150000Y-89352560D01*
X54914683Y-89396838D01*
X54698559Y-89535910D01*
X54553569Y-89748110D01*
X54502560Y-90000000D01*
X54502560Y-92000000D01*
X54546838Y-92235317D01*
X54685910Y-92451441D01*
X54898110Y-92596431D01*
X55150000Y-92647440D01*
X55215000Y-92647440D01*
X55215000Y-92674842D01*
X54674842Y-93215000D01*
X53395158Y-93215000D01*
X53555079Y-93055079D01*
X53725245Y-92800407D01*
X53755672Y-92647440D01*
X53850000Y-92647440D01*
X54085317Y-92603162D01*
X54301441Y-92464090D01*
X54446431Y-92251890D01*
X54497440Y-92000000D01*
X54497440Y-90000000D01*
X54453162Y-89764683D01*
X54314090Y-89548559D01*
X54101890Y-89403569D01*
X53850000Y-89352560D01*
X52150000Y-89352560D01*
X51914683Y-89396838D01*
X51698559Y-89535910D01*
X51553569Y-89748110D01*
X51502560Y-90000000D01*
X51502560Y-92000000D01*
X51546838Y-92235317D01*
X51685910Y-92451441D01*
X51835910Y-92553932D01*
X51174842Y-93215000D01*
X50395158Y-93215000D01*
X50555079Y-93055079D01*
X50725245Y-92800407D01*
X50755672Y-92647440D01*
X50850000Y-92647440D01*
X51085317Y-92603162D01*
X51301441Y-92464090D01*
X51446431Y-92251890D01*
X51497440Y-92000000D01*
X51497440Y-90000000D01*
X51453162Y-89764683D01*
X51314090Y-89548559D01*
X51101890Y-89403569D01*
X50850000Y-89352560D01*
X49150000Y-89352560D01*
X48914683Y-89396838D01*
X48698559Y-89535910D01*
X48553569Y-89748110D01*
X48502560Y-90000000D01*
X48502560Y-92000000D01*
X48546838Y-92235317D01*
X48685910Y-92451441D01*
X48835910Y-92553932D01*
X48174842Y-93215000D01*
X47395158Y-93215000D01*
X47555079Y-93055079D01*
X47725245Y-92800407D01*
X47755672Y-92647440D01*
X47850000Y-92647440D01*
X48085317Y-92603162D01*
X48301441Y-92464090D01*
X48446431Y-92251890D01*
X48497440Y-92000000D01*
X48497440Y-90000000D01*
X48453162Y-89764683D01*
X48314090Y-89548559D01*
X48101890Y-89403569D01*
X47850000Y-89352560D01*
X46150000Y-89352560D01*
X45914683Y-89396838D01*
X45698559Y-89535910D01*
X45553569Y-89748110D01*
X45502560Y-90000000D01*
X45502560Y-92000000D01*
X45546838Y-92235317D01*
X45685910Y-92451441D01*
X45705754Y-92465000D01*
X45300027Y-92465000D01*
X45301441Y-92464090D01*
X45446431Y-92251890D01*
X45497440Y-92000000D01*
X45497440Y-90000000D01*
X45453162Y-89764683D01*
X45314090Y-89548559D01*
X45101890Y-89403569D01*
X44850000Y-89352560D01*
X43150000Y-89352560D01*
X42914683Y-89396838D01*
X42698559Y-89535910D01*
X42553569Y-89748110D01*
X42502560Y-90000000D01*
X42502560Y-91715000D01*
X42497440Y-91715000D01*
X42497440Y-90000000D01*
X42453162Y-89764683D01*
X42314090Y-89548559D01*
X42101890Y-89403569D01*
X41850000Y-89352560D01*
X40150000Y-89352560D01*
X39914683Y-89396838D01*
X39698559Y-89535910D01*
X39553569Y-89748110D01*
X39502560Y-90000000D01*
X39502560Y-91637282D01*
X39497440Y-91642402D01*
X39497440Y-90000000D01*
X39453162Y-89764683D01*
X39314090Y-89548559D01*
X39101890Y-89403569D01*
X38850000Y-89352560D01*
X37150000Y-89352560D01*
X36914683Y-89396838D01*
X36698559Y-89535910D01*
X36553569Y-89748110D01*
X36502560Y-90000000D01*
X32685000Y-90000000D01*
X32685000Y-86000000D01*
X36502560Y-86000000D01*
X36502560Y-88000000D01*
X36546838Y-88235317D01*
X36685910Y-88451441D01*
X36898110Y-88596431D01*
X37150000Y-88647440D01*
X38850000Y-88647440D01*
X39085317Y-88603162D01*
X39301441Y-88464090D01*
X39446431Y-88251890D01*
X39497440Y-88000000D01*
X39497440Y-86612718D01*
X39502560Y-86607598D01*
X39502560Y-88000000D01*
X39546838Y-88235317D01*
X39685910Y-88451441D01*
X39898110Y-88596431D01*
X40150000Y-88647440D01*
X41850000Y-88647440D01*
X42085317Y-88603162D01*
X42301441Y-88464090D01*
X42446431Y-88251890D01*
X42497440Y-88000000D01*
X42497440Y-86612718D01*
X42502560Y-86607598D01*
X42502560Y-88000000D01*
X42546838Y-88235317D01*
X42685910Y-88451441D01*
X42898110Y-88596431D01*
X43150000Y-88647440D01*
X44850000Y-88647440D01*
X45085317Y-88603162D01*
X45301441Y-88464090D01*
X45446431Y-88251890D01*
X45497440Y-88000000D01*
X45497440Y-86612718D01*
X45502560Y-86607598D01*
X45502560Y-88000000D01*
X45546838Y-88235317D01*
X45685910Y-88451441D01*
X45898110Y-88596431D01*
X46150000Y-88647440D01*
X47850000Y-88647440D01*
X48085317Y-88603162D01*
X48301441Y-88464090D01*
X48446431Y-88251890D01*
X48497440Y-88000000D01*
X48497440Y-86612718D01*
X48502560Y-86607598D01*
X48502560Y-88000000D01*
X48546838Y-88235317D01*
X48685910Y-88451441D01*
X48898110Y-88596431D01*
X49150000Y-88647440D01*
X50850000Y-88647440D01*
X51085317Y-88603162D01*
X51301441Y-88464090D01*
X51446431Y-88251890D01*
X51497440Y-88000000D01*
X51497440Y-86612718D01*
X51502560Y-86607598D01*
X51502560Y-88000000D01*
X51546838Y-88235317D01*
X51685910Y-88451441D01*
X51898110Y-88596431D01*
X52150000Y-88647440D01*
X53850000Y-88647440D01*
X54085317Y-88603162D01*
X54301441Y-88464090D01*
X54446431Y-88251890D01*
X54497440Y-88000000D01*
X54497440Y-86612718D01*
X54502560Y-86607598D01*
X54502560Y-88000000D01*
X54546838Y-88235317D01*
X54685910Y-88451441D01*
X54898110Y-88596431D01*
X55150000Y-88647440D01*
X56850000Y-88647440D01*
X57085317Y-88603162D01*
X57301441Y-88464090D01*
X57446431Y-88251890D01*
X57497440Y-88000000D01*
X57497440Y-86612718D01*
X57502560Y-86607598D01*
X57502560Y-88000000D01*
X57546838Y-88235317D01*
X57685910Y-88451441D01*
X57898110Y-88596431D01*
X58150000Y-88647440D01*
X59850000Y-88647440D01*
X60085317Y-88603162D01*
X60301441Y-88464090D01*
X60446431Y-88251890D01*
X60497440Y-88000000D01*
X60497440Y-86912718D01*
X60825158Y-86585000D01*
X67210064Y-86585000D01*
X66938355Y-86856235D01*
X66765197Y-87273244D01*
X66764803Y-87724775D01*
X66937233Y-88142086D01*
X67256235Y-88461645D01*
X67673244Y-88634803D01*
X67924865Y-88635023D01*
X69344921Y-90055079D01*
X69599593Y-90225245D01*
X69900000Y-90285000D01*
X84200000Y-90285000D01*
X84500407Y-90225245D01*
X84755079Y-90055079D01*
X89681066Y-85129092D01*
X89700407Y-85125245D01*
X89955079Y-84955079D01*
X90425157Y-84485000D01*
X90479898Y-84485000D01*
X90656235Y-84661645D01*
X91073244Y-84834803D01*
X91524775Y-84835197D01*
X91942086Y-84662767D01*
X92261645Y-84343765D01*
X92434803Y-83926756D01*
X92435197Y-83475225D01*
X92262767Y-83057914D01*
X91943765Y-82738355D01*
X91526756Y-82565197D01*
X91075225Y-82564803D01*
X90657914Y-82737233D01*
X90479837Y-82915000D01*
X90100000Y-82915000D01*
X89799594Y-82974755D01*
X89544921Y-83144921D01*
X89544919Y-83144924D01*
X89018935Y-83670908D01*
X88999593Y-83674755D01*
X88744921Y-83844921D01*
X83874842Y-88715000D01*
X82265401Y-88715000D01*
X82355079Y-88655079D01*
X85355079Y-85655079D01*
X85525245Y-85400406D01*
X85585000Y-85100000D01*
X85585000Y-84420102D01*
X85761645Y-84243765D01*
X85934803Y-83826756D01*
X85935197Y-83375225D01*
X85762767Y-82957914D01*
X85443765Y-82638355D01*
X85026756Y-82465197D01*
X84575225Y-82464803D01*
X84353909Y-82556249D01*
X87955079Y-78955079D01*
X88125245Y-78700407D01*
X88185000Y-78400000D01*
X88185000Y-77920102D01*
X88361645Y-77743765D01*
X88534803Y-77326756D01*
X88535197Y-76875225D01*
X88362767Y-76457914D01*
X88043765Y-76138355D01*
X87915057Y-76084911D01*
X87947440Y-75925000D01*
X87947440Y-75062718D01*
X89075179Y-73934979D01*
X89324775Y-73935197D01*
X89742086Y-73762767D01*
X90061645Y-73443765D01*
X90234803Y-73026756D01*
X90235197Y-72575225D01*
X90062767Y-72157914D01*
X89743765Y-71838355D01*
X89326756Y-71665197D01*
X88875225Y-71664803D01*
X88457914Y-71837233D01*
X88138355Y-72156235D01*
X87965197Y-72573244D01*
X87964977Y-72824865D01*
X86762282Y-74027560D01*
X85800000Y-74027560D01*
X85564683Y-74071838D01*
X85348559Y-74210910D01*
X85302031Y-74279006D01*
X85159698Y-74136673D01*
X84926309Y-74040000D01*
X84335750Y-74040000D01*
X84177000Y-74198750D01*
X84177000Y-75173000D01*
X84197000Y-75173000D01*
X84197000Y-75427000D01*
X84177000Y-75427000D01*
X84177000Y-75447000D01*
X83923000Y-75447000D01*
X83923000Y-75427000D01*
X83903000Y-75427000D01*
X83903000Y-75173000D01*
X83923000Y-75173000D01*
X83923000Y-74198750D01*
X83764250Y-74040000D01*
X83173691Y-74040000D01*
X83035000Y-74097448D01*
X83035000Y-73972998D01*
X82876252Y-73972998D01*
X83035000Y-73814250D01*
X83035000Y-73198691D01*
X82938327Y-72965302D01*
X82759699Y-72786673D01*
X82526310Y-72690000D01*
X82483750Y-72690000D01*
X82325000Y-72848750D01*
X82325000Y-72851974D01*
X82259699Y-72786673D01*
X82026310Y-72690000D01*
X81973690Y-72690000D01*
X81740301Y-72786673D01*
X81738932Y-72788042D01*
X81651890Y-72728569D01*
X81530170Y-72703920D01*
X81516250Y-72690000D01*
X81473690Y-72690000D01*
X81469665Y-72691667D01*
X81400000Y-72677560D01*
X81100000Y-72677560D01*
X80996329Y-72697067D01*
X80900000Y-72677560D01*
X80600000Y-72677560D01*
X80496329Y-72697067D01*
X80400000Y-72677560D01*
X80100000Y-72677560D01*
X79996329Y-72697067D01*
X79900000Y-72677560D01*
X79600000Y-72677560D01*
X79496329Y-72697067D01*
X79400000Y-72677560D01*
X79100000Y-72677560D01*
X78996329Y-72697067D01*
X78900000Y-72677560D01*
X78600000Y-72677560D01*
X78496329Y-72697067D01*
X78400000Y-72677560D01*
X78100000Y-72677560D01*
X77996329Y-72697067D01*
X77900000Y-72677560D01*
X77600000Y-72677560D01*
X77528677Y-72690980D01*
X77526310Y-72690000D01*
X77523065Y-72690000D01*
X77475245Y-72449594D01*
X77305079Y-72194921D01*
X77234979Y-72124821D01*
X77235197Y-71875225D01*
X77062767Y-71457914D01*
X76743765Y-71138355D01*
X76326756Y-70965197D01*
X75875225Y-70964803D01*
X75457914Y-71137233D01*
X75138355Y-71456235D01*
X74965197Y-71873244D01*
X74964803Y-72324775D01*
X75110571Y-72677560D01*
X75100000Y-72677560D01*
X74996329Y-72697067D01*
X74900000Y-72677560D01*
X74600000Y-72677560D01*
X74496329Y-72697067D01*
X74400000Y-72677560D01*
X74100000Y-72677560D01*
X73996329Y-72697067D01*
X73900000Y-72677560D01*
X73600000Y-72677560D01*
X73496329Y-72697067D01*
X73400000Y-72677560D01*
X73100000Y-72677560D01*
X72996329Y-72697067D01*
X72900000Y-72677560D01*
X72600000Y-72677560D01*
X72528677Y-72690980D01*
X72526310Y-72690000D01*
X72483750Y-72690000D01*
X72472129Y-72701621D01*
X72364683Y-72721838D01*
X72250022Y-72795620D01*
X72151890Y-72728569D01*
X72030170Y-72703920D01*
X72016250Y-72690000D01*
X71973690Y-72690000D01*
X71969665Y-72691667D01*
X71900000Y-72677560D01*
X71600000Y-72677560D01*
X71496329Y-72697067D01*
X71400000Y-72677560D01*
X71100000Y-72677560D01*
X70996329Y-72697067D01*
X70900000Y-72677560D01*
X70600000Y-72677560D01*
X70496329Y-72697067D01*
X70400000Y-72677560D01*
X70100000Y-72677560D01*
X69996329Y-72697067D01*
X69900000Y-72677560D01*
X69600000Y-72677560D01*
X69496329Y-72697067D01*
X69400000Y-72677560D01*
X69100000Y-72677560D01*
X68996329Y-72697067D01*
X68900000Y-72677560D01*
X68600000Y-72677560D01*
X68496329Y-72697067D01*
X68400000Y-72677560D01*
X68100000Y-72677560D01*
X67996329Y-72697067D01*
X67900000Y-72677560D01*
X67600000Y-72677560D01*
X67496329Y-72697067D01*
X67400000Y-72677560D01*
X67100000Y-72677560D01*
X66996329Y-72697067D01*
X66900000Y-72677560D01*
X66664267Y-72677560D01*
X66942086Y-72562767D01*
X67261645Y-72243765D01*
X67434803Y-71826756D01*
X67435197Y-71375225D01*
X67262767Y-70957914D01*
X67189980Y-70885000D01*
X79579898Y-70885000D01*
X79756235Y-71061645D01*
X80173244Y-71234803D01*
X80624775Y-71235197D01*
X81042086Y-71062767D01*
X81361645Y-70743765D01*
X81534803Y-70326756D01*
X81535197Y-69875225D01*
X81362767Y-69457914D01*
X81043765Y-69138355D01*
X80626756Y-68965197D01*
X80175225Y-68964803D01*
X79757914Y-69137233D01*
X79579837Y-69315000D01*
X66500000Y-69315000D01*
X66199594Y-69374755D01*
X65944921Y-69544921D01*
X65897405Y-69592437D01*
X65643765Y-69338355D01*
X65226756Y-69165197D01*
X64775225Y-69164803D01*
X64357914Y-69337233D01*
X64330099Y-69365000D01*
X64197038Y-69365000D01*
X64178162Y-69264683D01*
X64104380Y-69150022D01*
X64171431Y-69051890D01*
X64196080Y-68930170D01*
X64210000Y-68916250D01*
X64210000Y-68873690D01*
X64208333Y-68869665D01*
X64222440Y-68800000D01*
X64222440Y-68500000D01*
X64202933Y-68396329D01*
X64222440Y-68300000D01*
X64222440Y-68000000D01*
X64202933Y-67896329D01*
X64222440Y-67800000D01*
X64222440Y-67500000D01*
X64202933Y-67396329D01*
X64222440Y-67300000D01*
X64222440Y-67000000D01*
X64202933Y-66896329D01*
X64222440Y-66800000D01*
X64222440Y-66500000D01*
X64202933Y-66396329D01*
X64222440Y-66300000D01*
X64222440Y-66000000D01*
X64202933Y-65896329D01*
X64222440Y-65800000D01*
X64222440Y-65500000D01*
X64202933Y-65396329D01*
X64222440Y-65300000D01*
X64222440Y-65000000D01*
X64202933Y-64896329D01*
X64222440Y-64800000D01*
X64222440Y-64500000D01*
X64202933Y-64396329D01*
X64222440Y-64300000D01*
X64222440Y-64000000D01*
X64202933Y-63896329D01*
X64222440Y-63800000D01*
X64222440Y-63500000D01*
X64202933Y-63396329D01*
X64222440Y-63300000D01*
X64222440Y-63000000D01*
X64209020Y-62928677D01*
X64210000Y-62926310D01*
X64210000Y-62883750D01*
X64198379Y-62872129D01*
X64178162Y-62764683D01*
X64104380Y-62650022D01*
X64171431Y-62551890D01*
X64196080Y-62430170D01*
X64210000Y-62416250D01*
X64210000Y-62373690D01*
X64208333Y-62369665D01*
X64222440Y-62300000D01*
X64222440Y-62000000D01*
X64202933Y-61896329D01*
X64222440Y-61800000D01*
X64222440Y-61500000D01*
X64202933Y-61396329D01*
X64222440Y-61300000D01*
X64222440Y-61000000D01*
X64202933Y-60896329D01*
X64222440Y-60800000D01*
X64222440Y-60500000D01*
X64202933Y-60396329D01*
X64222440Y-60300000D01*
X64222440Y-60000000D01*
X64202933Y-59896329D01*
X64222440Y-59800000D01*
X64222440Y-59500000D01*
X64202933Y-59396329D01*
X64222440Y-59300000D01*
X64222440Y-59000000D01*
X64202933Y-58896329D01*
X64222440Y-58800000D01*
X64222440Y-58500000D01*
X64202933Y-58396329D01*
X64222440Y-58300000D01*
X64222440Y-58000000D01*
X64202933Y-57896329D01*
X64222440Y-57800000D01*
X64222440Y-57500000D01*
X64209020Y-57428677D01*
X64210000Y-57426310D01*
X64210000Y-57383750D01*
X64198379Y-57372129D01*
X64178162Y-57264683D01*
X64104380Y-57150022D01*
X64171431Y-57051890D01*
X64196080Y-56930170D01*
X64210000Y-56916250D01*
X64210000Y-56873690D01*
X64208333Y-56869665D01*
X64222440Y-56800000D01*
X64222440Y-56500000D01*
X64202933Y-56396329D01*
X64222440Y-56300000D01*
X64222440Y-56000000D01*
X64202933Y-55896329D01*
X64222440Y-55800000D01*
X64222440Y-55500000D01*
X64202933Y-55396329D01*
X64222440Y-55300000D01*
X64222440Y-55000000D01*
X64202933Y-54896329D01*
X64222440Y-54800000D01*
X64222440Y-54500000D01*
X64178162Y-54264683D01*
X64039090Y-54048559D01*
X63826890Y-53903569D01*
X63575000Y-53852560D01*
X62025000Y-53852560D01*
X61789683Y-53896838D01*
X61573559Y-54035910D01*
X61428569Y-54248110D01*
X61377560Y-54500000D01*
X61377560Y-54800000D01*
X61397067Y-54903671D01*
X61382068Y-54977740D01*
X61351310Y-54965000D01*
X60885750Y-54965000D01*
X60727000Y-55123750D01*
X60727000Y-56223000D01*
X60747000Y-56223000D01*
X60747000Y-56477000D01*
X60727000Y-56477000D01*
X60727000Y-56497000D01*
X60473000Y-56497000D01*
X60473000Y-56477000D01*
X58927000Y-56477000D01*
X58927000Y-56497000D01*
X58673000Y-56497000D01*
X58673000Y-56477000D01*
X57698750Y-56477000D01*
X57540000Y-56635750D01*
X57540000Y-57226309D01*
X57636673Y-57459698D01*
X57777910Y-57600936D01*
X57723559Y-57635910D01*
X57578569Y-57848110D01*
X57527560Y-58100000D01*
X57527560Y-59600000D01*
X57571838Y-59835317D01*
X57710910Y-60051441D01*
X57789627Y-60105226D01*
X57638355Y-60256235D01*
X57465197Y-60673244D01*
X57464803Y-61124775D01*
X57637233Y-61542086D01*
X57956235Y-61861645D01*
X58373244Y-62034803D01*
X58689480Y-62035079D01*
X58749593Y-62075245D01*
X59050000Y-62135000D01*
X59334146Y-62135000D01*
X59371838Y-62335317D01*
X59510910Y-62551441D01*
X59579006Y-62597969D01*
X59436673Y-62740302D01*
X59340000Y-62973691D01*
X59340000Y-63564250D01*
X59498750Y-63723000D01*
X60473000Y-63723000D01*
X60473000Y-63703000D01*
X60727000Y-63703000D01*
X60727000Y-63723000D01*
X60747000Y-63723000D01*
X60747000Y-63977000D01*
X60727000Y-63977000D01*
X60727000Y-63997000D01*
X60473000Y-63997000D01*
X60473000Y-63977000D01*
X59498750Y-63977000D01*
X59392954Y-64082796D01*
X59155079Y-63844921D01*
X58900407Y-63674755D01*
X58600000Y-63615000D01*
X55562658Y-63615000D01*
X55247440Y-63299782D01*
X55247440Y-58825000D01*
X55203162Y-58589683D01*
X55064090Y-58373559D01*
X54851890Y-58228569D01*
X54600000Y-58177560D01*
X52600000Y-58177560D01*
X52364683Y-58221838D01*
X52148559Y-58360910D01*
X52003569Y-58573110D01*
X51952560Y-58825000D01*
X51952560Y-61977500D01*
X51030574Y-61977500D01*
X51028162Y-61964683D01*
X50889090Y-61748559D01*
X50676890Y-61603569D01*
X50425000Y-61552560D01*
X49175000Y-61552560D01*
X48939683Y-61596838D01*
X48723559Y-61735910D01*
X48578569Y-61948110D01*
X48527560Y-62200000D01*
X48527560Y-63700000D01*
X48571838Y-63935317D01*
X48710910Y-64151441D01*
X48780711Y-64199134D01*
X48723559Y-64235910D01*
X48578569Y-64448110D01*
X48527560Y-64700000D01*
X48527560Y-66200000D01*
X48571838Y-66435317D01*
X48710910Y-66651441D01*
X48923110Y-66796431D01*
X49015000Y-66815039D01*
X49015000Y-67579898D01*
X48838355Y-67756235D01*
X48665197Y-68173244D01*
X48664803Y-68624775D01*
X48837233Y-69042086D01*
X49015000Y-69220163D01*
X49015000Y-69582666D01*
X48939683Y-69596838D01*
X48723559Y-69735910D01*
X48578569Y-69948110D01*
X48527560Y-70200000D01*
X48527560Y-71700000D01*
X48571838Y-71935317D01*
X48710910Y-72151441D01*
X48780711Y-72199134D01*
X48723559Y-72235910D01*
X48578569Y-72448110D01*
X48527560Y-72700000D01*
X48527560Y-74200000D01*
X48571838Y-74435317D01*
X48710910Y-74651441D01*
X48923110Y-74796431D01*
X49175000Y-74847440D01*
X50087282Y-74847440D01*
X50432421Y-75192579D01*
X50687094Y-75362745D01*
X50987500Y-75422501D01*
X50987505Y-75422500D01*
X51952560Y-75422500D01*
X51952560Y-78575000D01*
X51996838Y-78810317D01*
X52135910Y-79026441D01*
X52348110Y-79171431D01*
X52600000Y-79222440D01*
X54600000Y-79222440D01*
X54835317Y-79178162D01*
X55051441Y-79039090D01*
X55196431Y-78826890D01*
X55247440Y-78575000D01*
X55247440Y-74100218D01*
X56900218Y-72447440D01*
X58450000Y-72447440D01*
X58630110Y-72413550D01*
X58671838Y-72635317D01*
X58810910Y-72851441D01*
X59023110Y-72996431D01*
X59115000Y-73015039D01*
X59115000Y-74600000D01*
X59165128Y-74852010D01*
X59164803Y-75224775D01*
X59337233Y-75642086D01*
X59656235Y-75961645D01*
X60073244Y-76134803D01*
X60524775Y-76135197D01*
X60615000Y-76097917D01*
X60615000Y-78200000D01*
X60665128Y-78452010D01*
X60664803Y-78824775D01*
X60837233Y-79242086D01*
X61156235Y-79561645D01*
X61573244Y-79734803D01*
X62024775Y-79735197D01*
X62442086Y-79562767D01*
X62761645Y-79243765D01*
X62934803Y-78826756D01*
X62934897Y-78718880D01*
X62973244Y-78734803D01*
X63415000Y-78735188D01*
X63415000Y-78980072D01*
X63138355Y-79256235D01*
X62965197Y-79673244D01*
X62964803Y-80124775D01*
X63137233Y-80542086D01*
X63456235Y-80861645D01*
X63873244Y-81034803D01*
X64324775Y-81035197D01*
X64742086Y-80862767D01*
X65061645Y-80543765D01*
X65234803Y-80126756D01*
X65235197Y-79675225D01*
X65062767Y-79257914D01*
X64985000Y-79180011D01*
X64985000Y-77760000D01*
X65464250Y-77760000D01*
X65623000Y-77601250D01*
X65623000Y-76627000D01*
X65603000Y-76627000D01*
X65603000Y-76373000D01*
X65623000Y-76373000D01*
X65623000Y-76353000D01*
X65877000Y-76353000D01*
X65877000Y-76373000D01*
X65897000Y-76373000D01*
X65897000Y-76627000D01*
X65877000Y-76627000D01*
X65877000Y-77601250D01*
X66035750Y-77760000D01*
X66626309Y-77760000D01*
X66859698Y-77663327D01*
X67000936Y-77522090D01*
X67035910Y-77576441D01*
X67248110Y-77721431D01*
X67500000Y-77772440D01*
X67673112Y-77772440D01*
X67694921Y-77805079D01*
X68065021Y-78175179D01*
X68064803Y-78424775D01*
X68237233Y-78842086D01*
X68556235Y-79161645D01*
X68973244Y-79334803D01*
X69424775Y-79335197D01*
X69842086Y-79162767D01*
X70161645Y-78843765D01*
X70334803Y-78426756D01*
X70335197Y-77975225D01*
X70251408Y-77772440D01*
X71200000Y-77772440D01*
X71435317Y-77728162D01*
X71651441Y-77589090D01*
X71697969Y-77520994D01*
X71840302Y-77663327D01*
X72073691Y-77760000D01*
X72664250Y-77760000D01*
X72822998Y-77601252D01*
X72822998Y-77760000D01*
X72829842Y-77760000D01*
X69474842Y-81115000D01*
X43100000Y-81115000D01*
X42799593Y-81174755D01*
X42544921Y-81344921D01*
X38537282Y-85352560D01*
X37150000Y-85352560D01*
X36914683Y-85396838D01*
X36698559Y-85535910D01*
X36553569Y-85748110D01*
X36502560Y-86000000D01*
X32685000Y-86000000D01*
X32685000Y-77185750D01*
X38465000Y-77185750D01*
X38465000Y-77651310D01*
X38561673Y-77884699D01*
X38740302Y-78063327D01*
X38973691Y-78160000D01*
X39564250Y-78160000D01*
X39723000Y-78001250D01*
X39723000Y-77027000D01*
X38623750Y-77027000D01*
X38465000Y-77185750D01*
X32685000Y-77185750D01*
X32685000Y-74785750D01*
X35265000Y-74785750D01*
X35265000Y-75376310D01*
X35361673Y-75609699D01*
X35540302Y-75788327D01*
X35773691Y-75885000D01*
X37214250Y-75885000D01*
X37373000Y-75726250D01*
X37373000Y-74627000D01*
X35423750Y-74627000D01*
X35265000Y-74785750D01*
X32685000Y-74785750D01*
X32685000Y-73623690D01*
X35265000Y-73623690D01*
X35265000Y-74214250D01*
X35423750Y-74373000D01*
X37373000Y-74373000D01*
X37373000Y-73273750D01*
X37627000Y-73273750D01*
X37627000Y-74373000D01*
X37647000Y-74373000D01*
X37647000Y-74627000D01*
X37627000Y-74627000D01*
X37627000Y-75726250D01*
X37785750Y-75885000D01*
X38591974Y-75885000D01*
X38561673Y-75915301D01*
X38465000Y-76148690D01*
X38465000Y-76614250D01*
X38623750Y-76773000D01*
X39723000Y-76773000D01*
X39723000Y-76753000D01*
X39977000Y-76753000D01*
X39977000Y-76773000D01*
X39997000Y-76773000D01*
X39997000Y-77027000D01*
X39977000Y-77027000D01*
X39977000Y-78001250D01*
X40135750Y-78160000D01*
X40336792Y-78160000D01*
X40165197Y-78573244D01*
X40164803Y-79024775D01*
X40337233Y-79442086D01*
X40656235Y-79761645D01*
X41073244Y-79934803D01*
X41524775Y-79935197D01*
X41942086Y-79762767D01*
X42261645Y-79443765D01*
X42434803Y-79026756D01*
X42435023Y-78775135D01*
X42905079Y-78305079D01*
X42993705Y-78172440D01*
X43100000Y-78172440D01*
X43335317Y-78128162D01*
X43551441Y-77989090D01*
X43696431Y-77776890D01*
X43747440Y-77525000D01*
X43747440Y-76275000D01*
X43703162Y-76039683D01*
X43564090Y-75823559D01*
X43475446Y-75762991D01*
X43551441Y-75714090D01*
X43696431Y-75501890D01*
X43747440Y-75250000D01*
X43747440Y-73750000D01*
X43703162Y-73514683D01*
X43564090Y-73298559D01*
X43351890Y-73153569D01*
X43100000Y-73102560D01*
X42835000Y-73102560D01*
X42835000Y-73013970D01*
X44465635Y-73013970D01*
X44625418Y-73332739D01*
X45416187Y-73642723D01*
X46265387Y-73626497D01*
X46974582Y-73332739D01*
X47134365Y-73013970D01*
X45800000Y-71679605D01*
X44465635Y-73013970D01*
X42835000Y-73013970D01*
X42835000Y-72997440D01*
X43050000Y-72997440D01*
X43285317Y-72953162D01*
X43501441Y-72814090D01*
X43646431Y-72601890D01*
X43697440Y-72350000D01*
X43697440Y-72023176D01*
X43967261Y-72674582D01*
X44286030Y-72834365D01*
X45620395Y-71500000D01*
X45979605Y-71500000D01*
X47313970Y-72834365D01*
X47632739Y-72674582D01*
X47942723Y-71883813D01*
X47926497Y-71034613D01*
X47632739Y-70325418D01*
X47313970Y-70165635D01*
X45979605Y-71500000D01*
X45620395Y-71500000D01*
X44286030Y-70165635D01*
X43967261Y-70325418D01*
X43697440Y-71013731D01*
X43697440Y-70850000D01*
X43653162Y-70614683D01*
X43547518Y-70450508D01*
X43588327Y-70409699D01*
X43685000Y-70176310D01*
X43685000Y-69986030D01*
X44465635Y-69986030D01*
X45800000Y-71320395D01*
X47134365Y-69986030D01*
X46974582Y-69667261D01*
X46183813Y-69357277D01*
X45334613Y-69373503D01*
X44625418Y-69667261D01*
X44465635Y-69986030D01*
X43685000Y-69986030D01*
X43685000Y-69585750D01*
X43526250Y-69427000D01*
X42177000Y-69427000D01*
X42177000Y-69447000D01*
X41923000Y-69447000D01*
X41923000Y-69427000D01*
X40573750Y-69427000D01*
X40415000Y-69585750D01*
X40415000Y-70176310D01*
X40511673Y-70409699D01*
X40553634Y-70451660D01*
X40453569Y-70598110D01*
X40402560Y-70850000D01*
X40402560Y-72350000D01*
X40446838Y-72585317D01*
X40585910Y-72801441D01*
X40798110Y-72946431D01*
X41050000Y-72997440D01*
X41265000Y-72997440D01*
X41265000Y-73102560D01*
X39900000Y-73102560D01*
X39664683Y-73146838D01*
X39500507Y-73252482D01*
X39459698Y-73211673D01*
X39226309Y-73115000D01*
X37785750Y-73115000D01*
X37627000Y-73273750D01*
X37373000Y-73273750D01*
X37214250Y-73115000D01*
X35773691Y-73115000D01*
X35540302Y-73211673D01*
X35361673Y-73390301D01*
X35265000Y-73623690D01*
X32685000Y-73623690D01*
X32685000Y-69585750D01*
X34115000Y-69585750D01*
X34115000Y-71326310D01*
X34211673Y-71559699D01*
X34390302Y-71738327D01*
X34623691Y-71835000D01*
X35464250Y-71835000D01*
X35623000Y-71676250D01*
X35623000Y-69427000D01*
X35877000Y-69427000D01*
X35877000Y-71676250D01*
X36035750Y-71835000D01*
X36876309Y-71835000D01*
X37109698Y-71738327D01*
X37288327Y-71559699D01*
X37385000Y-71326310D01*
X37385000Y-69585750D01*
X37226250Y-69427000D01*
X35877000Y-69427000D01*
X35623000Y-69427000D01*
X34273750Y-69427000D01*
X34115000Y-69585750D01*
X32685000Y-69585750D01*
X32685000Y-67273690D01*
X34115000Y-67273690D01*
X34115000Y-69014250D01*
X34273750Y-69173000D01*
X35623000Y-69173000D01*
X35623000Y-66923750D01*
X35877000Y-66923750D01*
X35877000Y-69173000D01*
X37226250Y-69173000D01*
X37385000Y-69014250D01*
X37385000Y-67273690D01*
X37288327Y-67040301D01*
X37109698Y-66861673D01*
X36876309Y-66765000D01*
X36035750Y-66765000D01*
X35877000Y-66923750D01*
X35623000Y-66923750D01*
X35464250Y-66765000D01*
X34623691Y-66765000D01*
X34390302Y-66861673D01*
X34211673Y-67040301D01*
X34115000Y-67273690D01*
X32685000Y-67273690D01*
X32685000Y-64624775D01*
X34364803Y-64624775D01*
X34537233Y-65042086D01*
X34856235Y-65361645D01*
X35273244Y-65534803D01*
X35724775Y-65535197D01*
X36142086Y-65362767D01*
X36219989Y-65285000D01*
X38282666Y-65285000D01*
X38296838Y-65360317D01*
X38435910Y-65576441D01*
X38648110Y-65721431D01*
X38900000Y-65772440D01*
X40400000Y-65772440D01*
X40635317Y-65728162D01*
X40851441Y-65589090D01*
X40899134Y-65519289D01*
X40935910Y-65576441D01*
X40990517Y-65613752D01*
X40814683Y-65646838D01*
X40598559Y-65785910D01*
X40453569Y-65998110D01*
X40402560Y-66250000D01*
X40402560Y-67750000D01*
X40446838Y-67985317D01*
X40552482Y-68149492D01*
X40511673Y-68190301D01*
X40415000Y-68423690D01*
X40415000Y-69014250D01*
X40573750Y-69173000D01*
X41923000Y-69173000D01*
X41923000Y-69153000D01*
X42177000Y-69153000D01*
X42177000Y-69173000D01*
X43526250Y-69173000D01*
X43685000Y-69014250D01*
X43685000Y-68423690D01*
X43588327Y-68190301D01*
X43546366Y-68148340D01*
X43646431Y-68001890D01*
X43670102Y-67885000D01*
X43955601Y-67885000D01*
X44088980Y-68207800D01*
X44689041Y-68808909D01*
X45473459Y-69134628D01*
X46322815Y-69135370D01*
X47107800Y-68811020D01*
X47708909Y-68210959D01*
X48034628Y-67426541D01*
X48035370Y-66577185D01*
X47711020Y-65792200D01*
X47110959Y-65191091D01*
X46326541Y-64865372D01*
X45477185Y-64864630D01*
X44692200Y-65188980D01*
X44091091Y-65789041D01*
X43955741Y-66115000D01*
X43672038Y-66115000D01*
X43653162Y-66014683D01*
X43514090Y-65798559D01*
X43301890Y-65653569D01*
X43263362Y-65645767D01*
X43351441Y-65589090D01*
X43496431Y-65376890D01*
X43547440Y-65125000D01*
X43547440Y-63875000D01*
X43503162Y-63639683D01*
X43364090Y-63423559D01*
X43151890Y-63278569D01*
X43078873Y-63263783D01*
X43135317Y-63253162D01*
X43351441Y-63114090D01*
X43496431Y-62901890D01*
X43547440Y-62650000D01*
X43547440Y-61150000D01*
X43503162Y-60914683D01*
X43364090Y-60698559D01*
X43151890Y-60553569D01*
X42900000Y-60502560D01*
X42749020Y-60502560D01*
X45325787Y-57925792D01*
X45325790Y-57925790D01*
X45517633Y-57638675D01*
X45534896Y-57551890D01*
X45585001Y-57300000D01*
X45585000Y-57299995D01*
X45585000Y-55473691D01*
X57540000Y-55473691D01*
X57540000Y-56064250D01*
X57698750Y-56223000D01*
X58673000Y-56223000D01*
X58673000Y-55123750D01*
X58927000Y-55123750D01*
X58927000Y-56223000D01*
X60473000Y-56223000D01*
X60473000Y-55123750D01*
X60314250Y-54965000D01*
X59848690Y-54965000D01*
X59700000Y-55026589D01*
X59551310Y-54965000D01*
X59085750Y-54965000D01*
X58927000Y-55123750D01*
X58673000Y-55123750D01*
X58514250Y-54965000D01*
X58048690Y-54965000D01*
X57815301Y-55061673D01*
X57636673Y-55240302D01*
X57540000Y-55473691D01*
X45585000Y-55473691D01*
X45585000Y-51700005D01*
X45585001Y-51700000D01*
X45517633Y-51361326D01*
X45517633Y-51361325D01*
X45325790Y-51074210D01*
X45325787Y-51074208D01*
X45076355Y-50824775D01*
X58664803Y-50824775D01*
X58837233Y-51242086D01*
X59156235Y-51561645D01*
X59573244Y-51734803D01*
X60024775Y-51735197D01*
X60442086Y-51562767D01*
X60519989Y-51485000D01*
X60582666Y-51485000D01*
X60596838Y-51560317D01*
X60735910Y-51776441D01*
X60948110Y-51921431D01*
X61200000Y-51972440D01*
X62700000Y-51972440D01*
X62935317Y-51928162D01*
X63151441Y-51789090D01*
X63197969Y-51720994D01*
X63340302Y-51863327D01*
X63573691Y-51960000D01*
X63965000Y-51960000D01*
X63965000Y-52414250D01*
X64123750Y-52573000D01*
X64452560Y-52573000D01*
X64452560Y-52827000D01*
X64123750Y-52827000D01*
X63965000Y-52985750D01*
X63965000Y-53601309D01*
X64061673Y-53834698D01*
X64240301Y-54013327D01*
X64473690Y-54110000D01*
X64516250Y-54110000D01*
X64673871Y-53952379D01*
X64848110Y-54071431D01*
X64969830Y-54096080D01*
X64983750Y-54110000D01*
X65026310Y-54110000D01*
X65030335Y-54108333D01*
X65100000Y-54122440D01*
X65400000Y-54122440D01*
X65503671Y-54102933D01*
X65600000Y-54122440D01*
X65900000Y-54122440D01*
X66003671Y-54102933D01*
X66100000Y-54122440D01*
X66400000Y-54122440D01*
X66503671Y-54102933D01*
X66600000Y-54122440D01*
X66900000Y-54122440D01*
X67003671Y-54102933D01*
X67100000Y-54122440D01*
X67400000Y-54122440D01*
X67503671Y-54102933D01*
X67600000Y-54122440D01*
X67900000Y-54122440D01*
X68003671Y-54102933D01*
X68100000Y-54122440D01*
X68400000Y-54122440D01*
X68503671Y-54102933D01*
X68600000Y-54122440D01*
X68900000Y-54122440D01*
X69003671Y-54102933D01*
X69100000Y-54122440D01*
X69400000Y-54122440D01*
X69503671Y-54102933D01*
X69600000Y-54122440D01*
X69900000Y-54122440D01*
X70003671Y-54102933D01*
X70100000Y-54122440D01*
X70400000Y-54122440D01*
X70503671Y-54102933D01*
X70600000Y-54122440D01*
X70900000Y-54122440D01*
X70965000Y-54110209D01*
X70965000Y-54150000D01*
X71024755Y-54450407D01*
X71194921Y-54705079D01*
X71544921Y-55055079D01*
X71799594Y-55225245D01*
X72100000Y-55285000D01*
X76100000Y-55285000D01*
X76400407Y-55225245D01*
X76655079Y-55055079D01*
X77305079Y-54405079D01*
X77475245Y-54150406D01*
X77483950Y-54106644D01*
X77503671Y-54102933D01*
X77600000Y-54122440D01*
X77900000Y-54122440D01*
X78003671Y-54102933D01*
X78100000Y-54122440D01*
X78400000Y-54122440D01*
X78503671Y-54102933D01*
X78600000Y-54122440D01*
X78900000Y-54122440D01*
X79003671Y-54102933D01*
X79100000Y-54122440D01*
X79400000Y-54122440D01*
X79503671Y-54102933D01*
X79600000Y-54122440D01*
X79900000Y-54122440D01*
X80003671Y-54102933D01*
X80100000Y-54122440D01*
X80400000Y-54122440D01*
X80503671Y-54102933D01*
X80600000Y-54122440D01*
X80900000Y-54122440D01*
X81003671Y-54102933D01*
X81077186Y-54117820D01*
X80838355Y-54356235D01*
X80665197Y-54773244D01*
X80664942Y-55065143D01*
X80275225Y-55064803D01*
X79857914Y-55237233D01*
X79538355Y-55556235D01*
X79365197Y-55973244D01*
X79364803Y-56424775D01*
X79537233Y-56842086D01*
X79694867Y-56999996D01*
X79538355Y-57156235D01*
X79365197Y-57573244D01*
X79364803Y-58024775D01*
X79537233Y-58442086D01*
X79856235Y-58761645D01*
X80273244Y-58934803D01*
X80724775Y-58935197D01*
X81142086Y-58762767D01*
X81461645Y-58443765D01*
X81634803Y-58026756D01*
X81634883Y-57935000D01*
X82790723Y-57935000D01*
X82777560Y-58000000D01*
X82777560Y-58300000D01*
X82797067Y-58403671D01*
X82777560Y-58500000D01*
X82777560Y-58800000D01*
X82797067Y-58903671D01*
X82777560Y-59000000D01*
X82777560Y-59300000D01*
X82797067Y-59403671D01*
X82777560Y-59500000D01*
X82777560Y-59800000D01*
X82797067Y-59903671D01*
X82777560Y-60000000D01*
X82777560Y-60300000D01*
X82797067Y-60403671D01*
X82777560Y-60500000D01*
X82777560Y-60800000D01*
X82790980Y-60871323D01*
X82790000Y-60873690D01*
X82790000Y-60916250D01*
X82801621Y-60927871D01*
X82821838Y-61035317D01*
X82895620Y-61149978D01*
X82828569Y-61248110D01*
X82803920Y-61369830D01*
X82790000Y-61383750D01*
X82790000Y-61426310D01*
X82791667Y-61430335D01*
X82777560Y-61500000D01*
X82777560Y-61800000D01*
X82797067Y-61903671D01*
X82777560Y-62000000D01*
X82777560Y-62300000D01*
X82797067Y-62403671D01*
X82777560Y-62500000D01*
X82777560Y-62800000D01*
X82797067Y-62903671D01*
X82777560Y-63000000D01*
X82777560Y-63300000D01*
X82797067Y-63403671D01*
X82777560Y-63500000D01*
X82777560Y-63800000D01*
X82797067Y-63903671D01*
X82777560Y-64000000D01*
X82777560Y-64300000D01*
X82797067Y-64403671D01*
X82777560Y-64500000D01*
X82777560Y-64800000D01*
X82797067Y-64903671D01*
X82777560Y-65000000D01*
X82777560Y-65300000D01*
X82797067Y-65403671D01*
X82777560Y-65500000D01*
X82777560Y-65800000D01*
X82797067Y-65903671D01*
X82777560Y-66000000D01*
X82777560Y-66300000D01*
X82790980Y-66371323D01*
X82790000Y-66373690D01*
X82790000Y-66416250D01*
X82801621Y-66427871D01*
X82821838Y-66535317D01*
X82895620Y-66649978D01*
X82828569Y-66748110D01*
X82803920Y-66869830D01*
X82790000Y-66883750D01*
X82790000Y-66926310D01*
X82791667Y-66930335D01*
X82777560Y-67000000D01*
X82777560Y-67300000D01*
X82797067Y-67403671D01*
X82777560Y-67500000D01*
X82777560Y-67800000D01*
X82797067Y-67903671D01*
X82777560Y-68000000D01*
X82777560Y-68300000D01*
X82797067Y-68403671D01*
X82777560Y-68500000D01*
X82777560Y-68800000D01*
X82797067Y-68903671D01*
X82777560Y-69000000D01*
X82777560Y-69300000D01*
X82797067Y-69403671D01*
X82777560Y-69500000D01*
X82777560Y-69800000D01*
X82797067Y-69903671D01*
X82777560Y-70000000D01*
X82777560Y-70300000D01*
X82797067Y-70403671D01*
X82777560Y-70500000D01*
X82777560Y-70800000D01*
X82797067Y-70903671D01*
X82777560Y-71000000D01*
X82777560Y-71300000D01*
X82797067Y-71403671D01*
X82777560Y-71500000D01*
X82777560Y-71800000D01*
X82797067Y-71903671D01*
X82777560Y-72000000D01*
X82777560Y-72300000D01*
X82821838Y-72535317D01*
X82960910Y-72751441D01*
X83173110Y-72896431D01*
X83425000Y-72947440D01*
X84975000Y-72947440D01*
X85210317Y-72903162D01*
X85426441Y-72764090D01*
X85571431Y-72551890D01*
X85622440Y-72300000D01*
X85622440Y-72000000D01*
X85602933Y-71896329D01*
X85622440Y-71800000D01*
X85622440Y-71500000D01*
X85602933Y-71396329D01*
X85622440Y-71300000D01*
X85622440Y-71000000D01*
X85602933Y-70896329D01*
X85622440Y-70800000D01*
X85622440Y-70500000D01*
X85602933Y-70396329D01*
X85622440Y-70300000D01*
X85622440Y-70000000D01*
X85602933Y-69896329D01*
X85622440Y-69800000D01*
X85622440Y-69500000D01*
X85602933Y-69396329D01*
X85622440Y-69300000D01*
X85622440Y-69000000D01*
X85602933Y-68896329D01*
X85622440Y-68800000D01*
X85622440Y-68500000D01*
X85602933Y-68396329D01*
X85622440Y-68300000D01*
X85622440Y-68000000D01*
X85618407Y-67978565D01*
X85627560Y-67987718D01*
X85627560Y-68900000D01*
X85671838Y-69135317D01*
X85810910Y-69351441D01*
X86023110Y-69496431D01*
X86272686Y-69546971D01*
X86344921Y-69655079D01*
X86665021Y-69975179D01*
X86664803Y-70224775D01*
X86837233Y-70642086D01*
X87156235Y-70961645D01*
X87573244Y-71134803D01*
X88024775Y-71135197D01*
X88442086Y-70962767D01*
X88761645Y-70643765D01*
X88934803Y-70226756D01*
X88935197Y-69775225D01*
X88762767Y-69357914D01*
X88443765Y-69038355D01*
X88167641Y-68923698D01*
X88172440Y-68900000D01*
X88172440Y-67400000D01*
X88128162Y-67164683D01*
X87989090Y-66948559D01*
X87920994Y-66902031D01*
X88063327Y-66759698D01*
X88160000Y-66526309D01*
X88160000Y-65935750D01*
X88001250Y-65777000D01*
X87027000Y-65777000D01*
X87027000Y-65797000D01*
X86773000Y-65797000D01*
X86773000Y-65777000D01*
X85798750Y-65777000D01*
X85640000Y-65935750D01*
X85640000Y-66365000D01*
X85609277Y-66365000D01*
X85622440Y-66300000D01*
X85622440Y-66000000D01*
X85602933Y-65896329D01*
X85622440Y-65800000D01*
X85622440Y-65500000D01*
X85602933Y-65396329D01*
X85622440Y-65300000D01*
X85622440Y-65000000D01*
X85602933Y-64896329D01*
X85622440Y-64800000D01*
X85622440Y-64773691D01*
X85640000Y-64773691D01*
X85640000Y-65364250D01*
X85798750Y-65523000D01*
X86773000Y-65523000D01*
X86773000Y-64423750D01*
X87027000Y-64423750D01*
X87027000Y-65523000D01*
X88001250Y-65523000D01*
X88160000Y-65364250D01*
X88160000Y-64773691D01*
X88063327Y-64540302D01*
X87884699Y-64361673D01*
X87651310Y-64265000D01*
X87185750Y-64265000D01*
X87027000Y-64423750D01*
X86773000Y-64423750D01*
X86614250Y-64265000D01*
X86148690Y-64265000D01*
X85915301Y-64361673D01*
X85736673Y-64540302D01*
X85640000Y-64773691D01*
X85622440Y-64773691D01*
X85622440Y-64500000D01*
X85602933Y-64396329D01*
X85622440Y-64300000D01*
X85622440Y-64000000D01*
X85602933Y-63896329D01*
X85622440Y-63800000D01*
X85622440Y-63613955D01*
X85710910Y-63751441D01*
X85923110Y-63896431D01*
X86175000Y-63947440D01*
X87425000Y-63947440D01*
X87660317Y-63903162D01*
X87876441Y-63764090D01*
X87979728Y-63612924D01*
X88273244Y-63734803D01*
X88724775Y-63735197D01*
X89142086Y-63562767D01*
X89461645Y-63243765D01*
X89634803Y-62826756D01*
X89635197Y-62375225D01*
X89462767Y-61957914D01*
X89143765Y-61638355D01*
X88726756Y-61465197D01*
X88275225Y-61464803D01*
X88028547Y-61566729D01*
X88028162Y-61564683D01*
X87889090Y-61348559D01*
X87820994Y-61302031D01*
X87963327Y-61159698D01*
X88060000Y-60926309D01*
X88060000Y-60335750D01*
X87901250Y-60177000D01*
X86927000Y-60177000D01*
X86927000Y-60197000D01*
X86673000Y-60197000D01*
X86673000Y-60177000D01*
X86653000Y-60177000D01*
X86653000Y-59923000D01*
X86673000Y-59923000D01*
X86673000Y-58823750D01*
X86927000Y-58823750D01*
X86927000Y-59923000D01*
X87901250Y-59923000D01*
X88060000Y-59764250D01*
X88060000Y-59173691D01*
X87963327Y-58940302D01*
X87784699Y-58761673D01*
X87551310Y-58665000D01*
X87085750Y-58665000D01*
X86927000Y-58823750D01*
X86673000Y-58823750D01*
X86514250Y-58665000D01*
X86048690Y-58665000D01*
X85815301Y-58761673D01*
X85636673Y-58940302D01*
X85619162Y-58982578D01*
X85602933Y-58896329D01*
X85622440Y-58800000D01*
X85622440Y-58500000D01*
X85602933Y-58396329D01*
X85622440Y-58300000D01*
X85622440Y-58000000D01*
X85602933Y-57896329D01*
X85615196Y-57835771D01*
X85673691Y-57860000D01*
X86264250Y-57860000D01*
X86423000Y-57701250D01*
X86423000Y-56727000D01*
X86403000Y-56727000D01*
X86403000Y-56473000D01*
X86423000Y-56473000D01*
X86423000Y-56453000D01*
X86677000Y-56453000D01*
X86677000Y-56473000D01*
X86697000Y-56473000D01*
X86697000Y-56727000D01*
X86677000Y-56727000D01*
X86677000Y-57701250D01*
X86835750Y-57860000D01*
X87426309Y-57860000D01*
X87659698Y-57763327D01*
X87800936Y-57622090D01*
X87835910Y-57676441D01*
X88048110Y-57821431D01*
X88300000Y-57872440D01*
X89800000Y-57872440D01*
X90035317Y-57828162D01*
X90251441Y-57689090D01*
X90396431Y-57476890D01*
X90447440Y-57225000D01*
X90447440Y-56182564D01*
X90573244Y-56234803D01*
X91024775Y-56235197D01*
X91442086Y-56062767D01*
X91761645Y-55743765D01*
X91934803Y-55326756D01*
X91935197Y-54875225D01*
X91762767Y-54457914D01*
X91443765Y-54138355D01*
X91026756Y-53965197D01*
X90775135Y-53964977D01*
X90447440Y-53637282D01*
X90447440Y-53075000D01*
X90403162Y-52839683D01*
X90264090Y-52623559D01*
X90051890Y-52478569D01*
X89800000Y-52427560D01*
X88300000Y-52427560D01*
X88064683Y-52471838D01*
X87848559Y-52610910D01*
X87802031Y-52679006D01*
X87659698Y-52536673D01*
X87426309Y-52440000D01*
X86835750Y-52440000D01*
X86677000Y-52598750D01*
X86677000Y-53573000D01*
X86697000Y-53573000D01*
X86697000Y-53827000D01*
X86677000Y-53827000D01*
X86677000Y-53847000D01*
X86423000Y-53847000D01*
X86423000Y-53827000D01*
X85323750Y-53827000D01*
X85231728Y-53919022D01*
X85101309Y-53865000D01*
X84485750Y-53865000D01*
X84327000Y-54023750D01*
X84327000Y-54352560D01*
X84073000Y-54352560D01*
X84073000Y-54023750D01*
X83914250Y-53865000D01*
X83298691Y-53865000D01*
X83065302Y-53961673D01*
X82886673Y-54140301D01*
X82790000Y-54373690D01*
X82790000Y-54416250D01*
X82896748Y-54522998D01*
X82830978Y-54522998D01*
X82762767Y-54357914D01*
X82507509Y-54102211D01*
X82635317Y-54078162D01*
X82851441Y-53939090D01*
X82996431Y-53726890D01*
X83047440Y-53475000D01*
X83047440Y-52948690D01*
X85165000Y-52948690D01*
X85165000Y-53414250D01*
X85323750Y-53573000D01*
X86423000Y-53573000D01*
X86423000Y-52598750D01*
X86264250Y-52440000D01*
X85673691Y-52440000D01*
X85440302Y-52536673D01*
X85261673Y-52715301D01*
X85165000Y-52948690D01*
X83047440Y-52948690D01*
X83047440Y-51925000D01*
X83035000Y-51858887D01*
X83035000Y-51270189D01*
X83161645Y-51143765D01*
X83286250Y-50843684D01*
X83309946Y-50879147D01*
X83791715Y-51201054D01*
X84360000Y-51314093D01*
X84928285Y-51201054D01*
X85410054Y-50879147D01*
X85437850Y-50837548D01*
X85446838Y-50885317D01*
X85585910Y-51101441D01*
X85798110Y-51246431D01*
X86050000Y-51297440D01*
X87750000Y-51297440D01*
X87985317Y-51253162D01*
X88201441Y-51114090D01*
X88346431Y-50901890D01*
X88397440Y-50650000D01*
X88397440Y-48950000D01*
X88353162Y-48714683D01*
X88214090Y-48498559D01*
X88001890Y-48353569D01*
X87750000Y-48302560D01*
X86050000Y-48302560D01*
X85814683Y-48346838D01*
X85598559Y-48485910D01*
X85453569Y-48698110D01*
X85439914Y-48765541D01*
X85410054Y-48720853D01*
X84928285Y-48398946D01*
X84360000Y-48285907D01*
X83791715Y-48398946D01*
X83309946Y-48720853D01*
X82988039Y-49202622D01*
X82908382Y-49603085D01*
X82843765Y-49538355D01*
X82426756Y-49365197D01*
X81975225Y-49364803D01*
X81557914Y-49537233D01*
X81238355Y-49856235D01*
X81065197Y-50273244D01*
X81064803Y-50724775D01*
X81237233Y-51142086D01*
X81372471Y-51277560D01*
X81100000Y-51277560D01*
X80996329Y-51297067D01*
X80900000Y-51277560D01*
X80727616Y-51277560D01*
X80861645Y-51143765D01*
X81034803Y-50726756D01*
X81035197Y-50275225D01*
X80862767Y-49857914D01*
X80543765Y-49538355D01*
X80126756Y-49365197D01*
X79675225Y-49364803D01*
X79320576Y-49511341D01*
X79264090Y-49423559D01*
X79051890Y-49278569D01*
X78800000Y-49227560D01*
X77300000Y-49227560D01*
X77064683Y-49271838D01*
X76848559Y-49410910D01*
X76802031Y-49479006D01*
X76659698Y-49336673D01*
X76426309Y-49240000D01*
X75835750Y-49240000D01*
X75677000Y-49398750D01*
X75677000Y-50373000D01*
X75697000Y-50373000D01*
X75697000Y-50627000D01*
X75677000Y-50627000D01*
X75677000Y-50647000D01*
X75423000Y-50647000D01*
X75423000Y-50627000D01*
X74323750Y-50627000D01*
X74165000Y-50785750D01*
X74165000Y-51251310D01*
X74175873Y-51277560D01*
X74116546Y-51277560D01*
X74147440Y-51125000D01*
X74147440Y-49875000D01*
X74123674Y-49748690D01*
X74165000Y-49748690D01*
X74165000Y-50214250D01*
X74323750Y-50373000D01*
X75423000Y-50373000D01*
X75423000Y-49398750D01*
X75264250Y-49240000D01*
X74673691Y-49240000D01*
X74440302Y-49336673D01*
X74261673Y-49515301D01*
X74165000Y-49748690D01*
X74123674Y-49748690D01*
X74103162Y-49639683D01*
X73964090Y-49423559D01*
X73751890Y-49278569D01*
X73500000Y-49227560D01*
X72000000Y-49227560D01*
X71764683Y-49271838D01*
X71548559Y-49410910D01*
X71502031Y-49479006D01*
X71359698Y-49336673D01*
X71126309Y-49240000D01*
X70535750Y-49240000D01*
X70377000Y-49398750D01*
X70377000Y-50373000D01*
X70397000Y-50373000D01*
X70397000Y-50627000D01*
X70377000Y-50627000D01*
X70377000Y-50647000D01*
X70123000Y-50647000D01*
X70123000Y-50627000D01*
X69023750Y-50627000D01*
X68865000Y-50785750D01*
X68865000Y-51251310D01*
X68875873Y-51277560D01*
X68627791Y-51277560D01*
X68661645Y-51243765D01*
X68834803Y-50826756D01*
X68835197Y-50375225D01*
X68662767Y-49957914D01*
X68453908Y-49748690D01*
X68865000Y-49748690D01*
X68865000Y-50214250D01*
X69023750Y-50373000D01*
X70123000Y-50373000D01*
X70123000Y-49398750D01*
X69964250Y-49240000D01*
X69373691Y-49240000D01*
X69140302Y-49336673D01*
X68961673Y-49515301D01*
X68865000Y-49748690D01*
X68453908Y-49748690D01*
X68343765Y-49638355D01*
X67926756Y-49465197D01*
X67475225Y-49464803D01*
X67057914Y-49637233D01*
X66738355Y-49956235D01*
X66565197Y-50373244D01*
X66564803Y-50824775D01*
X66737233Y-51242086D01*
X66772645Y-51277560D01*
X66600000Y-51277560D01*
X66496329Y-51297067D01*
X66400000Y-51277560D01*
X66100000Y-51277560D01*
X65996329Y-51297067D01*
X65900000Y-51277560D01*
X65835000Y-51277560D01*
X65835000Y-50985750D01*
X65676250Y-50827000D01*
X64577000Y-50827000D01*
X64577000Y-50847000D01*
X64323000Y-50847000D01*
X64323000Y-50827000D01*
X64303000Y-50827000D01*
X64303000Y-50573000D01*
X64323000Y-50573000D01*
X64323000Y-49598750D01*
X64577000Y-49598750D01*
X64577000Y-50573000D01*
X65676250Y-50573000D01*
X65835000Y-50414250D01*
X65835000Y-49948690D01*
X65738327Y-49715301D01*
X65559698Y-49536673D01*
X65326309Y-49440000D01*
X64735750Y-49440000D01*
X64577000Y-49598750D01*
X64323000Y-49598750D01*
X64164250Y-49440000D01*
X63573691Y-49440000D01*
X63340302Y-49536673D01*
X63199064Y-49677910D01*
X63164090Y-49623559D01*
X62951890Y-49478569D01*
X62700000Y-49427560D01*
X61200000Y-49427560D01*
X60964683Y-49471838D01*
X60748559Y-49610910D01*
X60613577Y-49808463D01*
X60443765Y-49638355D01*
X60026756Y-49465197D01*
X59575225Y-49464803D01*
X59157914Y-49637233D01*
X58838355Y-49956235D01*
X58665197Y-50373244D01*
X58664803Y-50824775D01*
X45076355Y-50824775D01*
X44225790Y-49974210D01*
X44137175Y-49915000D01*
X43938675Y-49782367D01*
X43851366Y-49765000D01*
X43600000Y-49714999D01*
X43599995Y-49715000D01*
X41411431Y-49715000D01*
X41350000Y-49702560D01*
X39050000Y-49702560D01*
X38814683Y-49746838D01*
X38685149Y-49830191D01*
X38685188Y-49785127D01*
X38520354Y-49386200D01*
X38215405Y-49080718D01*
X37816767Y-48915189D01*
X37385127Y-48914812D01*
X36986200Y-49079646D01*
X36680718Y-49384595D01*
X36515189Y-49783233D01*
X36514812Y-50214873D01*
X36679646Y-50613800D01*
X36984595Y-50919282D01*
X37383233Y-51084811D01*
X37814873Y-51085188D01*
X38213800Y-50920354D01*
X38402560Y-50731923D01*
X38402560Y-50850000D01*
X38431821Y-51005507D01*
X38402560Y-51150000D01*
X38402560Y-51650000D01*
X38431821Y-51805507D01*
X38402560Y-51950000D01*
X38402560Y-52450000D01*
X38431821Y-52605507D01*
X38402560Y-52750000D01*
X38402560Y-53250000D01*
X38431821Y-53405507D01*
X38402560Y-53550000D01*
X38402560Y-53668200D01*
X38215405Y-53480718D01*
X37816767Y-53315189D01*
X37385127Y-53314812D01*
X36986200Y-53479646D01*
X36680718Y-53784595D01*
X36515189Y-54183233D01*
X36514812Y-54614873D01*
X36679646Y-55013800D01*
X36984595Y-55319282D01*
X37383233Y-55484811D01*
X37814873Y-55485188D01*
X38213800Y-55320354D01*
X38519282Y-55015405D01*
X38684811Y-54616767D01*
X38684853Y-54569046D01*
X38798110Y-54646431D01*
X39050000Y-54697440D01*
X40887282Y-54697440D01*
X41192402Y-55002560D01*
X38850000Y-55002560D01*
X38614683Y-55046838D01*
X38398559Y-55185910D01*
X38253569Y-55398110D01*
X38202560Y-55650000D01*
X38202560Y-57650000D01*
X38246838Y-57885317D01*
X38385910Y-58101441D01*
X38598110Y-58246431D01*
X38850000Y-58297440D01*
X41350000Y-58297440D01*
X41585317Y-58253162D01*
X41801441Y-58114090D01*
X41946431Y-57901890D01*
X41997440Y-57650000D01*
X41997440Y-56520279D01*
X42273244Y-56634803D01*
X42724775Y-56635197D01*
X43142086Y-56462767D01*
X43461645Y-56143765D01*
X43634803Y-55726756D01*
X43635197Y-55275225D01*
X43462767Y-54857914D01*
X43143765Y-54538355D01*
X42809865Y-54399707D01*
X42306146Y-53895988D01*
X42499594Y-54025245D01*
X42774917Y-54080011D01*
X42956235Y-54261645D01*
X43373244Y-54434803D01*
X43815000Y-54435188D01*
X43815000Y-56933421D01*
X40674210Y-60074210D01*
X40482367Y-60361325D01*
X40482367Y-60361326D01*
X40454273Y-60502560D01*
X39700000Y-60502560D01*
X39464683Y-60546838D01*
X39298523Y-60653759D01*
X39151890Y-60553569D01*
X38900000Y-60502560D01*
X35700000Y-60502560D01*
X35464683Y-60546838D01*
X35248559Y-60685910D01*
X35103569Y-60898110D01*
X35052560Y-61150000D01*
X35052560Y-62650000D01*
X35096838Y-62885317D01*
X35235910Y-63101441D01*
X35448110Y-63246431D01*
X35527362Y-63262480D01*
X35524821Y-63265021D01*
X35275225Y-63264803D01*
X34857914Y-63437233D01*
X34538355Y-63756235D01*
X34365197Y-64173244D01*
X34364803Y-64624775D01*
X32685000Y-64624775D01*
X32685000Y-55650000D01*
X32702560Y-55650000D01*
X32702560Y-57650000D01*
X32746838Y-57885317D01*
X32885910Y-58101441D01*
X33098110Y-58246431D01*
X33350000Y-58297440D01*
X33815000Y-58297440D01*
X33815000Y-58300000D01*
X33874755Y-58600407D01*
X34044921Y-58855079D01*
X34265021Y-59075179D01*
X34264803Y-59324775D01*
X34437233Y-59742086D01*
X34756235Y-60061645D01*
X35173244Y-60234803D01*
X35624775Y-60235197D01*
X36042086Y-60062767D01*
X36361645Y-59743765D01*
X36534803Y-59326756D01*
X36535197Y-58875225D01*
X36362767Y-58457914D01*
X36129799Y-58224539D01*
X36301441Y-58114090D01*
X36446431Y-57901890D01*
X36497440Y-57650000D01*
X36497440Y-55650000D01*
X36453162Y-55414683D01*
X36314090Y-55198559D01*
X36101890Y-55053569D01*
X35850000Y-55002560D01*
X33350000Y-55002560D01*
X33114683Y-55046838D01*
X32898559Y-55185910D01*
X32753569Y-55398110D01*
X32702560Y-55650000D01*
X32685000Y-55650000D01*
X32685000Y-46750000D01*
X32702560Y-46750000D01*
X32702560Y-48750000D01*
X32746838Y-48985317D01*
X32885910Y-49201441D01*
X33098110Y-49346431D01*
X33350000Y-49397440D01*
X35850000Y-49397440D01*
X36085317Y-49353162D01*
X36301441Y-49214090D01*
X36446431Y-49001890D01*
X36497440Y-48750000D01*
X36497440Y-46750000D01*
X38202560Y-46750000D01*
X38202560Y-48750000D01*
X38246838Y-48985317D01*
X38385910Y-49201441D01*
X38598110Y-49346431D01*
X38850000Y-49397440D01*
X41350000Y-49397440D01*
X41585317Y-49353162D01*
X41801441Y-49214090D01*
X41946431Y-49001890D01*
X41997440Y-48750000D01*
X41997440Y-46750000D01*
X41959808Y-46550000D01*
X63702560Y-46550000D01*
X63702560Y-48250000D01*
X63746838Y-48485317D01*
X63885910Y-48701441D01*
X64098110Y-48846431D01*
X64350000Y-48897440D01*
X66050000Y-48897440D01*
X66285317Y-48853162D01*
X66501441Y-48714090D01*
X66646431Y-48501890D01*
X66660086Y-48434459D01*
X66689946Y-48479147D01*
X67171715Y-48801054D01*
X67740000Y-48914093D01*
X68308285Y-48801054D01*
X68790054Y-48479147D01*
X69010000Y-48149974D01*
X69229946Y-48479147D01*
X69711715Y-48801054D01*
X70280000Y-48914093D01*
X70848285Y-48801054D01*
X71330054Y-48479147D01*
X71651961Y-47997378D01*
X71765000Y-47429093D01*
X71765000Y-47370907D01*
X71651961Y-46802622D01*
X71330054Y-46320853D01*
X70848285Y-45998946D01*
X70280000Y-45885907D01*
X69711715Y-45998946D01*
X69229946Y-46320853D01*
X69010000Y-46650026D01*
X68790054Y-46320853D01*
X68308285Y-45998946D01*
X67740000Y-45885907D01*
X67171715Y-45998946D01*
X66689946Y-46320853D01*
X66662150Y-46362452D01*
X66653162Y-46314683D01*
X66514090Y-46098559D01*
X66301890Y-45953569D01*
X66050000Y-45902560D01*
X64350000Y-45902560D01*
X64114683Y-45946838D01*
X63898559Y-46085910D01*
X63753569Y-46298110D01*
X63702560Y-46550000D01*
X41959808Y-46550000D01*
X41953162Y-46514683D01*
X41814090Y-46298559D01*
X41601890Y-46153569D01*
X41350000Y-46102560D01*
X38850000Y-46102560D01*
X38614683Y-46146838D01*
X38398559Y-46285910D01*
X38253569Y-46498110D01*
X38202560Y-46750000D01*
X36497440Y-46750000D01*
X36453162Y-46514683D01*
X36314090Y-46298559D01*
X36101890Y-46153569D01*
X35850000Y-46102560D01*
X33350000Y-46102560D01*
X33114683Y-46146838D01*
X32898559Y-46285910D01*
X32753569Y-46498110D01*
X32702560Y-46750000D01*
X32685000Y-46750000D01*
X32685000Y-45685000D01*
X111315000Y-45685000D01*
X111315000Y-109315000D01*
X111315000Y-109315000D01*
G37*
X111315000Y-109315000D02*
X32685000Y-109315000D01*
X32685000Y-90000000D01*
X36502560Y-90000000D01*
X36502560Y-92000000D01*
X36546838Y-92235317D01*
X36685910Y-92451441D01*
X36715000Y-92471317D01*
X36715000Y-101500000D01*
X36774755Y-101800407D01*
X36944921Y-102055079D01*
X38194921Y-103305079D01*
X38449593Y-103475245D01*
X38750000Y-103535000D01*
X49500000Y-103535000D01*
X49800407Y-103475245D01*
X50055079Y-103305079D01*
X53127830Y-100232328D01*
X67714620Y-100232328D01*
X67714620Y-103894472D01*
X67896172Y-104807195D01*
X68413188Y-105580964D01*
X69186957Y-106097980D01*
X70099680Y-106279532D01*
X71012403Y-106097980D01*
X71786172Y-105580964D01*
X72303188Y-104807195D01*
X72484740Y-103894472D01*
X72484740Y-100232328D01*
X72303188Y-99319605D01*
X71786172Y-98545836D01*
X71012403Y-98028820D01*
X70099680Y-97847268D01*
X69186957Y-98028820D01*
X68413188Y-98545836D01*
X67896172Y-99319605D01*
X67714620Y-100232328D01*
X53127830Y-100232328D01*
X53247906Y-100112252D01*
X53430641Y-100148600D01*
X53489359Y-100148600D01*
X54062848Y-100034526D01*
X54549029Y-99709670D01*
X54873885Y-99223489D01*
X54987959Y-98650000D01*
X54873885Y-98076511D01*
X54549029Y-97590330D01*
X54234248Y-97380000D01*
X54335662Y-97312237D01*
X73764900Y-97312237D01*
X73764900Y-98285243D01*
X73874140Y-98834432D01*
X74185231Y-99300012D01*
X74650811Y-99611103D01*
X75200000Y-99720343D01*
X75749189Y-99611103D01*
X76214769Y-99300012D01*
X76449680Y-98948443D01*
X76684591Y-99300012D01*
X77150171Y-99611103D01*
X77699360Y-99720343D01*
X78027545Y-99655063D01*
X77912720Y-100232328D01*
X77912720Y-103894472D01*
X78094272Y-104807195D01*
X78611288Y-105580964D01*
X79385057Y-106097980D01*
X80297780Y-106279532D01*
X81210503Y-106097980D01*
X81984272Y-105580964D01*
X82501288Y-104807195D01*
X82682840Y-103894472D01*
X82682840Y-100232328D01*
X90314620Y-100232328D01*
X90314620Y-103894472D01*
X90496172Y-104807195D01*
X91013188Y-105580964D01*
X91786957Y-106097980D01*
X92699680Y-106279532D01*
X93612403Y-106097980D01*
X94386172Y-105580964D01*
X94903188Y-104807195D01*
X95084740Y-103894472D01*
X95084740Y-100232328D01*
X94903188Y-99319605D01*
X94386172Y-98545836D01*
X93612403Y-98028820D01*
X92699680Y-97847268D01*
X91786957Y-98028820D01*
X91013188Y-98545836D01*
X90496172Y-99319605D01*
X90314620Y-100232328D01*
X82682840Y-100232328D01*
X82501288Y-99319605D01*
X81984272Y-98545836D01*
X81210503Y-98028820D01*
X80297780Y-97847268D01*
X79385057Y-98028820D01*
X79134460Y-98196264D01*
X79134460Y-97312237D01*
X96364900Y-97312237D01*
X96364900Y-98285243D01*
X96474140Y-98834432D01*
X96785231Y-99300012D01*
X97250811Y-99611103D01*
X97800000Y-99720343D01*
X98349189Y-99611103D01*
X98814769Y-99300012D01*
X99049680Y-98948443D01*
X99284591Y-99300012D01*
X99750171Y-99611103D01*
X100299360Y-99720343D01*
X100627545Y-99655063D01*
X100512720Y-100232328D01*
X100512720Y-103894472D01*
X100694272Y-104807195D01*
X101211288Y-105580964D01*
X101985057Y-106097980D01*
X102897780Y-106279532D01*
X103810503Y-106097980D01*
X104584272Y-105580964D01*
X105101288Y-104807195D01*
X105282840Y-103894472D01*
X105282840Y-100232328D01*
X105101288Y-99319605D01*
X104584272Y-98545836D01*
X103810503Y-98028820D01*
X102897780Y-97847268D01*
X101985057Y-98028820D01*
X101734460Y-98196264D01*
X101734460Y-97312237D01*
X101625220Y-96763048D01*
X101314129Y-96297468D01*
X100848549Y-95986377D01*
X100299360Y-95877137D01*
X99750171Y-95986377D01*
X99284591Y-96297468D01*
X99049680Y-96649037D01*
X98814769Y-96297468D01*
X98349189Y-95986377D01*
X97800000Y-95877137D01*
X97250811Y-95986377D01*
X96785231Y-96297468D01*
X96474140Y-96763048D01*
X96364900Y-97312237D01*
X79134460Y-97312237D01*
X79025220Y-96763048D01*
X78714129Y-96297468D01*
X78248549Y-95986377D01*
X77699360Y-95877137D01*
X77150171Y-95986377D01*
X76684591Y-96297468D01*
X76449680Y-96649037D01*
X76214769Y-96297468D01*
X75749189Y-95986377D01*
X75200000Y-95877137D01*
X74650811Y-95986377D01*
X74185231Y-96297468D01*
X73874140Y-96763048D01*
X73764900Y-97312237D01*
X54335662Y-97312237D01*
X54549029Y-97169670D01*
X54732558Y-96895000D01*
X54890000Y-96895000D01*
X55190407Y-96835245D01*
X55445079Y-96665079D01*
X59462718Y-92647440D01*
X59850000Y-92647440D01*
X60085317Y-92603162D01*
X60301441Y-92464090D01*
X60446431Y-92251890D01*
X60497440Y-92000000D01*
X60497440Y-90000000D01*
X60453162Y-89764683D01*
X60314090Y-89548559D01*
X60101890Y-89403569D01*
X59850000Y-89352560D01*
X58150000Y-89352560D01*
X57914683Y-89396838D01*
X57698559Y-89535910D01*
X57553569Y-89748110D01*
X57502560Y-90000000D01*
X57502560Y-92000000D01*
X57546838Y-92235317D01*
X57589001Y-92300841D01*
X56758968Y-93130874D01*
X56785001Y-93000000D01*
X56785000Y-92999995D01*
X56785000Y-92647440D01*
X56850000Y-92647440D01*
X57085317Y-92603162D01*
X57301441Y-92464090D01*
X57446431Y-92251890D01*
X57497440Y-92000000D01*
X57497440Y-90000000D01*
X57453162Y-89764683D01*
X57314090Y-89548559D01*
X57101890Y-89403569D01*
X56850000Y-89352560D01*
X55150000Y-89352560D01*
X54914683Y-89396838D01*
X54698559Y-89535910D01*
X54553569Y-89748110D01*
X54502560Y-90000000D01*
X54502560Y-92000000D01*
X54546838Y-92235317D01*
X54685910Y-92451441D01*
X54898110Y-92596431D01*
X55150000Y-92647440D01*
X55215000Y-92647440D01*
X55215000Y-92674842D01*
X54674842Y-93215000D01*
X53395158Y-93215000D01*
X53555079Y-93055079D01*
X53725245Y-92800407D01*
X53755672Y-92647440D01*
X53850000Y-92647440D01*
X54085317Y-92603162D01*
X54301441Y-92464090D01*
X54446431Y-92251890D01*
X54497440Y-92000000D01*
X54497440Y-90000000D01*
X54453162Y-89764683D01*
X54314090Y-89548559D01*
X54101890Y-89403569D01*
X53850000Y-89352560D01*
X52150000Y-89352560D01*
X51914683Y-89396838D01*
X51698559Y-89535910D01*
X51553569Y-89748110D01*
X51502560Y-90000000D01*
X51502560Y-92000000D01*
X51546838Y-92235317D01*
X51685910Y-92451441D01*
X51835910Y-92553932D01*
X51174842Y-93215000D01*
X50395158Y-93215000D01*
X50555079Y-93055079D01*
X50725245Y-92800407D01*
X50755672Y-92647440D01*
X50850000Y-92647440D01*
X51085317Y-92603162D01*
X51301441Y-92464090D01*
X51446431Y-92251890D01*
X51497440Y-92000000D01*
X51497440Y-90000000D01*
X51453162Y-89764683D01*
X51314090Y-89548559D01*
X51101890Y-89403569D01*
X50850000Y-89352560D01*
X49150000Y-89352560D01*
X48914683Y-89396838D01*
X48698559Y-89535910D01*
X48553569Y-89748110D01*
X48502560Y-90000000D01*
X48502560Y-92000000D01*
X48546838Y-92235317D01*
X48685910Y-92451441D01*
X48835910Y-92553932D01*
X48174842Y-93215000D01*
X47395158Y-93215000D01*
X47555079Y-93055079D01*
X47725245Y-92800407D01*
X47755672Y-92647440D01*
X47850000Y-92647440D01*
X48085317Y-92603162D01*
X48301441Y-92464090D01*
X48446431Y-92251890D01*
X48497440Y-92000000D01*
X48497440Y-90000000D01*
X48453162Y-89764683D01*
X48314090Y-89548559D01*
X48101890Y-89403569D01*
X47850000Y-89352560D01*
X46150000Y-89352560D01*
X45914683Y-89396838D01*
X45698559Y-89535910D01*
X45553569Y-89748110D01*
X45502560Y-90000000D01*
X45502560Y-92000000D01*
X45546838Y-92235317D01*
X45685910Y-92451441D01*
X45705754Y-92465000D01*
X45300027Y-92465000D01*
X45301441Y-92464090D01*
X45446431Y-92251890D01*
X45497440Y-92000000D01*
X45497440Y-90000000D01*
X45453162Y-89764683D01*
X45314090Y-89548559D01*
X45101890Y-89403569D01*
X44850000Y-89352560D01*
X43150000Y-89352560D01*
X42914683Y-89396838D01*
X42698559Y-89535910D01*
X42553569Y-89748110D01*
X42502560Y-90000000D01*
X42502560Y-91715000D01*
X42497440Y-91715000D01*
X42497440Y-90000000D01*
X42453162Y-89764683D01*
X42314090Y-89548559D01*
X42101890Y-89403569D01*
X41850000Y-89352560D01*
X40150000Y-89352560D01*
X39914683Y-89396838D01*
X39698559Y-89535910D01*
X39553569Y-89748110D01*
X39502560Y-90000000D01*
X39502560Y-91637282D01*
X39497440Y-91642402D01*
X39497440Y-90000000D01*
X39453162Y-89764683D01*
X39314090Y-89548559D01*
X39101890Y-89403569D01*
X38850000Y-89352560D01*
X37150000Y-89352560D01*
X36914683Y-89396838D01*
X36698559Y-89535910D01*
X36553569Y-89748110D01*
X36502560Y-90000000D01*
X32685000Y-90000000D01*
X32685000Y-86000000D01*
X36502560Y-86000000D01*
X36502560Y-88000000D01*
X36546838Y-88235317D01*
X36685910Y-88451441D01*
X36898110Y-88596431D01*
X37150000Y-88647440D01*
X38850000Y-88647440D01*
X39085317Y-88603162D01*
X39301441Y-88464090D01*
X39446431Y-88251890D01*
X39497440Y-88000000D01*
X39497440Y-86612718D01*
X39502560Y-86607598D01*
X39502560Y-88000000D01*
X39546838Y-88235317D01*
X39685910Y-88451441D01*
X39898110Y-88596431D01*
X40150000Y-88647440D01*
X41850000Y-88647440D01*
X42085317Y-88603162D01*
X42301441Y-88464090D01*
X42446431Y-88251890D01*
X42497440Y-88000000D01*
X42497440Y-86612718D01*
X42502560Y-86607598D01*
X42502560Y-88000000D01*
X42546838Y-88235317D01*
X42685910Y-88451441D01*
X42898110Y-88596431D01*
X43150000Y-88647440D01*
X44850000Y-88647440D01*
X45085317Y-88603162D01*
X45301441Y-88464090D01*
X45446431Y-88251890D01*
X45497440Y-88000000D01*
X45497440Y-86612718D01*
X45502560Y-86607598D01*
X45502560Y-88000000D01*
X45546838Y-88235317D01*
X45685910Y-88451441D01*
X45898110Y-88596431D01*
X46150000Y-88647440D01*
X47850000Y-88647440D01*
X48085317Y-88603162D01*
X48301441Y-88464090D01*
X48446431Y-88251890D01*
X48497440Y-88000000D01*
X48497440Y-86612718D01*
X48502560Y-86607598D01*
X48502560Y-88000000D01*
X48546838Y-88235317D01*
X48685910Y-88451441D01*
X48898110Y-88596431D01*
X49150000Y-88647440D01*
X50850000Y-88647440D01*
X51085317Y-88603162D01*
X51301441Y-88464090D01*
X51446431Y-88251890D01*
X51497440Y-88000000D01*
X51497440Y-86612718D01*
X51502560Y-86607598D01*
X51502560Y-88000000D01*
X51546838Y-88235317D01*
X51685910Y-88451441D01*
X51898110Y-88596431D01*
X52150000Y-88647440D01*
X53850000Y-88647440D01*
X54085317Y-88603162D01*
X54301441Y-88464090D01*
X54446431Y-88251890D01*
X54497440Y-88000000D01*
X54497440Y-86612718D01*
X54502560Y-86607598D01*
X54502560Y-88000000D01*
X54546838Y-88235317D01*
X54685910Y-88451441D01*
X54898110Y-88596431D01*
X55150000Y-88647440D01*
X56850000Y-88647440D01*
X57085317Y-88603162D01*
X57301441Y-88464090D01*
X57446431Y-88251890D01*
X57497440Y-88000000D01*
X57497440Y-86612718D01*
X57502560Y-86607598D01*
X57502560Y-88000000D01*
X57546838Y-88235317D01*
X57685910Y-88451441D01*
X57898110Y-88596431D01*
X58150000Y-88647440D01*
X59850000Y-88647440D01*
X60085317Y-88603162D01*
X60301441Y-88464090D01*
X60446431Y-88251890D01*
X60497440Y-88000000D01*
X60497440Y-86912718D01*
X60825158Y-86585000D01*
X67210064Y-86585000D01*
X66938355Y-86856235D01*
X66765197Y-87273244D01*
X66764803Y-87724775D01*
X66937233Y-88142086D01*
X67256235Y-88461645D01*
X67673244Y-88634803D01*
X67924865Y-88635023D01*
X69344921Y-90055079D01*
X69599593Y-90225245D01*
X69900000Y-90285000D01*
X84200000Y-90285000D01*
X84500407Y-90225245D01*
X84755079Y-90055079D01*
X89681066Y-85129092D01*
X89700407Y-85125245D01*
X89955079Y-84955079D01*
X90425157Y-84485000D01*
X90479898Y-84485000D01*
X90656235Y-84661645D01*
X91073244Y-84834803D01*
X91524775Y-84835197D01*
X91942086Y-84662767D01*
X92261645Y-84343765D01*
X92434803Y-83926756D01*
X92435197Y-83475225D01*
X92262767Y-83057914D01*
X91943765Y-82738355D01*
X91526756Y-82565197D01*
X91075225Y-82564803D01*
X90657914Y-82737233D01*
X90479837Y-82915000D01*
X90100000Y-82915000D01*
X89799594Y-82974755D01*
X89544921Y-83144921D01*
X89544919Y-83144924D01*
X89018935Y-83670908D01*
X88999593Y-83674755D01*
X88744921Y-83844921D01*
X83874842Y-88715000D01*
X82265401Y-88715000D01*
X82355079Y-88655079D01*
X85355079Y-85655079D01*
X85525245Y-85400406D01*
X85585000Y-85100000D01*
X85585000Y-84420102D01*
X85761645Y-84243765D01*
X85934803Y-83826756D01*
X85935197Y-83375225D01*
X85762767Y-82957914D01*
X85443765Y-82638355D01*
X85026756Y-82465197D01*
X84575225Y-82464803D01*
X84353909Y-82556249D01*
X87955079Y-78955079D01*
X88125245Y-78700407D01*
X88185000Y-78400000D01*
X88185000Y-77920102D01*
X88361645Y-77743765D01*
X88534803Y-77326756D01*
X88535197Y-76875225D01*
X88362767Y-76457914D01*
X88043765Y-76138355D01*
X87915057Y-76084911D01*
X87947440Y-75925000D01*
X87947440Y-75062718D01*
X89075179Y-73934979D01*
X89324775Y-73935197D01*
X89742086Y-73762767D01*
X90061645Y-73443765D01*
X90234803Y-73026756D01*
X90235197Y-72575225D01*
X90062767Y-72157914D01*
X89743765Y-71838355D01*
X89326756Y-71665197D01*
X88875225Y-71664803D01*
X88457914Y-71837233D01*
X88138355Y-72156235D01*
X87965197Y-72573244D01*
X87964977Y-72824865D01*
X86762282Y-74027560D01*
X85800000Y-74027560D01*
X85564683Y-74071838D01*
X85348559Y-74210910D01*
X85302031Y-74279006D01*
X85159698Y-74136673D01*
X84926309Y-74040000D01*
X84335750Y-74040000D01*
X84177000Y-74198750D01*
X84177000Y-75173000D01*
X84197000Y-75173000D01*
X84197000Y-75427000D01*
X84177000Y-75427000D01*
X84177000Y-75447000D01*
X83923000Y-75447000D01*
X83923000Y-75427000D01*
X83903000Y-75427000D01*
X83903000Y-75173000D01*
X83923000Y-75173000D01*
X83923000Y-74198750D01*
X83764250Y-74040000D01*
X83173691Y-74040000D01*
X83035000Y-74097448D01*
X83035000Y-73972998D01*
X82876252Y-73972998D01*
X83035000Y-73814250D01*
X83035000Y-73198691D01*
X82938327Y-72965302D01*
X82759699Y-72786673D01*
X82526310Y-72690000D01*
X82483750Y-72690000D01*
X82325000Y-72848750D01*
X82325000Y-72851974D01*
X82259699Y-72786673D01*
X82026310Y-72690000D01*
X81973690Y-72690000D01*
X81740301Y-72786673D01*
X81738932Y-72788042D01*
X81651890Y-72728569D01*
X81530170Y-72703920D01*
X81516250Y-72690000D01*
X81473690Y-72690000D01*
X81469665Y-72691667D01*
X81400000Y-72677560D01*
X81100000Y-72677560D01*
X80996329Y-72697067D01*
X80900000Y-72677560D01*
X80600000Y-72677560D01*
X80496329Y-72697067D01*
X80400000Y-72677560D01*
X80100000Y-72677560D01*
X79996329Y-72697067D01*
X79900000Y-72677560D01*
X79600000Y-72677560D01*
X79496329Y-72697067D01*
X79400000Y-72677560D01*
X79100000Y-72677560D01*
X78996329Y-72697067D01*
X78900000Y-72677560D01*
X78600000Y-72677560D01*
X78496329Y-72697067D01*
X78400000Y-72677560D01*
X78100000Y-72677560D01*
X77996329Y-72697067D01*
X77900000Y-72677560D01*
X77600000Y-72677560D01*
X77528677Y-72690980D01*
X77526310Y-72690000D01*
X77523065Y-72690000D01*
X77475245Y-72449594D01*
X77305079Y-72194921D01*
X77234979Y-72124821D01*
X77235197Y-71875225D01*
X77062767Y-71457914D01*
X76743765Y-71138355D01*
X76326756Y-70965197D01*
X75875225Y-70964803D01*
X75457914Y-71137233D01*
X75138355Y-71456235D01*
X74965197Y-71873244D01*
X74964803Y-72324775D01*
X75110571Y-72677560D01*
X75100000Y-72677560D01*
X74996329Y-72697067D01*
X74900000Y-72677560D01*
X74600000Y-72677560D01*
X74496329Y-72697067D01*
X74400000Y-72677560D01*
X74100000Y-72677560D01*
X73996329Y-72697067D01*
X73900000Y-72677560D01*
X73600000Y-72677560D01*
X73496329Y-72697067D01*
X73400000Y-72677560D01*
X73100000Y-72677560D01*
X72996329Y-72697067D01*
X72900000Y-72677560D01*
X72600000Y-72677560D01*
X72528677Y-72690980D01*
X72526310Y-72690000D01*
X72483750Y-72690000D01*
X72472129Y-72701621D01*
X72364683Y-72721838D01*
X72250022Y-72795620D01*
X72151890Y-72728569D01*
X72030170Y-72703920D01*
X72016250Y-72690000D01*
X71973690Y-72690000D01*
X71969665Y-72691667D01*
X71900000Y-72677560D01*
X71600000Y-72677560D01*
X71496329Y-72697067D01*
X71400000Y-72677560D01*
X71100000Y-72677560D01*
X70996329Y-72697067D01*
X70900000Y-72677560D01*
X70600000Y-72677560D01*
X70496329Y-72697067D01*
X70400000Y-72677560D01*
X70100000Y-72677560D01*
X69996329Y-72697067D01*
X69900000Y-72677560D01*
X69600000Y-72677560D01*
X69496329Y-72697067D01*
X69400000Y-72677560D01*
X69100000Y-72677560D01*
X68996329Y-72697067D01*
X68900000Y-72677560D01*
X68600000Y-72677560D01*
X68496329Y-72697067D01*
X68400000Y-72677560D01*
X68100000Y-72677560D01*
X67996329Y-72697067D01*
X67900000Y-72677560D01*
X67600000Y-72677560D01*
X67496329Y-72697067D01*
X67400000Y-72677560D01*
X67100000Y-72677560D01*
X66996329Y-72697067D01*
X66900000Y-72677560D01*
X66664267Y-72677560D01*
X66942086Y-72562767D01*
X67261645Y-72243765D01*
X67434803Y-71826756D01*
X67435197Y-71375225D01*
X67262767Y-70957914D01*
X67189980Y-70885000D01*
X79579898Y-70885000D01*
X79756235Y-71061645D01*
X80173244Y-71234803D01*
X80624775Y-71235197D01*
X81042086Y-71062767D01*
X81361645Y-70743765D01*
X81534803Y-70326756D01*
X81535197Y-69875225D01*
X81362767Y-69457914D01*
X81043765Y-69138355D01*
X80626756Y-68965197D01*
X80175225Y-68964803D01*
X79757914Y-69137233D01*
X79579837Y-69315000D01*
X66500000Y-69315000D01*
X66199594Y-69374755D01*
X65944921Y-69544921D01*
X65897405Y-69592437D01*
X65643765Y-69338355D01*
X65226756Y-69165197D01*
X64775225Y-69164803D01*
X64357914Y-69337233D01*
X64330099Y-69365000D01*
X64197038Y-69365000D01*
X64178162Y-69264683D01*
X64104380Y-69150022D01*
X64171431Y-69051890D01*
X64196080Y-68930170D01*
X64210000Y-68916250D01*
X64210000Y-68873690D01*
X64208333Y-68869665D01*
X64222440Y-68800000D01*
X64222440Y-68500000D01*
X64202933Y-68396329D01*
X64222440Y-68300000D01*
X64222440Y-68000000D01*
X64202933Y-67896329D01*
X64222440Y-67800000D01*
X64222440Y-67500000D01*
X64202933Y-67396329D01*
X64222440Y-67300000D01*
X64222440Y-67000000D01*
X64202933Y-66896329D01*
X64222440Y-66800000D01*
X64222440Y-66500000D01*
X64202933Y-66396329D01*
X64222440Y-66300000D01*
X64222440Y-66000000D01*
X64202933Y-65896329D01*
X64222440Y-65800000D01*
X64222440Y-65500000D01*
X64202933Y-65396329D01*
X64222440Y-65300000D01*
X64222440Y-65000000D01*
X64202933Y-64896329D01*
X64222440Y-64800000D01*
X64222440Y-64500000D01*
X64202933Y-64396329D01*
X64222440Y-64300000D01*
X64222440Y-64000000D01*
X64202933Y-63896329D01*
X64222440Y-63800000D01*
X64222440Y-63500000D01*
X64202933Y-63396329D01*
X64222440Y-63300000D01*
X64222440Y-63000000D01*
X64209020Y-62928677D01*
X64210000Y-62926310D01*
X64210000Y-62883750D01*
X64198379Y-62872129D01*
X64178162Y-62764683D01*
X64104380Y-62650022D01*
X64171431Y-62551890D01*
X64196080Y-62430170D01*
X64210000Y-62416250D01*
X64210000Y-62373690D01*
X64208333Y-62369665D01*
X64222440Y-62300000D01*
X64222440Y-62000000D01*
X64202933Y-61896329D01*
X64222440Y-61800000D01*
X64222440Y-61500000D01*
X64202933Y-61396329D01*
X64222440Y-61300000D01*
X64222440Y-61000000D01*
X64202933Y-60896329D01*
X64222440Y-60800000D01*
X64222440Y-60500000D01*
X64202933Y-60396329D01*
X64222440Y-60300000D01*
X64222440Y-60000000D01*
X64202933Y-59896329D01*
X64222440Y-59800000D01*
X64222440Y-59500000D01*
X64202933Y-59396329D01*
X64222440Y-59300000D01*
X64222440Y-59000000D01*
X64202933Y-58896329D01*
X64222440Y-58800000D01*
X64222440Y-58500000D01*
X64202933Y-58396329D01*
X64222440Y-58300000D01*
X64222440Y-58000000D01*
X64202933Y-57896329D01*
X64222440Y-57800000D01*
X64222440Y-57500000D01*
X64209020Y-57428677D01*
X64210000Y-57426310D01*
X64210000Y-57383750D01*
X64198379Y-57372129D01*
X64178162Y-57264683D01*
X64104380Y-57150022D01*
X64171431Y-57051890D01*
X64196080Y-56930170D01*
X64210000Y-56916250D01*
X64210000Y-56873690D01*
X64208333Y-56869665D01*
X64222440Y-56800000D01*
X64222440Y-56500000D01*
X64202933Y-56396329D01*
X64222440Y-56300000D01*
X64222440Y-56000000D01*
X64202933Y-55896329D01*
X64222440Y-55800000D01*
X64222440Y-55500000D01*
X64202933Y-55396329D01*
X64222440Y-55300000D01*
X64222440Y-55000000D01*
X64202933Y-54896329D01*
X64222440Y-54800000D01*
X64222440Y-54500000D01*
X64178162Y-54264683D01*
X64039090Y-54048559D01*
X63826890Y-53903569D01*
X63575000Y-53852560D01*
X62025000Y-53852560D01*
X61789683Y-53896838D01*
X61573559Y-54035910D01*
X61428569Y-54248110D01*
X61377560Y-54500000D01*
X61377560Y-54800000D01*
X61397067Y-54903671D01*
X61382068Y-54977740D01*
X61351310Y-54965000D01*
X60885750Y-54965000D01*
X60727000Y-55123750D01*
X60727000Y-56223000D01*
X60747000Y-56223000D01*
X60747000Y-56477000D01*
X60727000Y-56477000D01*
X60727000Y-56497000D01*
X60473000Y-56497000D01*
X60473000Y-56477000D01*
X58927000Y-56477000D01*
X58927000Y-56497000D01*
X58673000Y-56497000D01*
X58673000Y-56477000D01*
X57698750Y-56477000D01*
X57540000Y-56635750D01*
X57540000Y-57226309D01*
X57636673Y-57459698D01*
X57777910Y-57600936D01*
X57723559Y-57635910D01*
X57578569Y-57848110D01*
X57527560Y-58100000D01*
X57527560Y-59600000D01*
X57571838Y-59835317D01*
X57710910Y-60051441D01*
X57789627Y-60105226D01*
X57638355Y-60256235D01*
X57465197Y-60673244D01*
X57464803Y-61124775D01*
X57637233Y-61542086D01*
X57956235Y-61861645D01*
X58373244Y-62034803D01*
X58689480Y-62035079D01*
X58749593Y-62075245D01*
X59050000Y-62135000D01*
X59334146Y-62135000D01*
X59371838Y-62335317D01*
X59510910Y-62551441D01*
X59579006Y-62597969D01*
X59436673Y-62740302D01*
X59340000Y-62973691D01*
X59340000Y-63564250D01*
X59498750Y-63723000D01*
X60473000Y-63723000D01*
X60473000Y-63703000D01*
X60727000Y-63703000D01*
X60727000Y-63723000D01*
X60747000Y-63723000D01*
X60747000Y-63977000D01*
X60727000Y-63977000D01*
X60727000Y-63997000D01*
X60473000Y-63997000D01*
X60473000Y-63977000D01*
X59498750Y-63977000D01*
X59392954Y-64082796D01*
X59155079Y-63844921D01*
X58900407Y-63674755D01*
X58600000Y-63615000D01*
X55562658Y-63615000D01*
X55247440Y-63299782D01*
X55247440Y-58825000D01*
X55203162Y-58589683D01*
X55064090Y-58373559D01*
X54851890Y-58228569D01*
X54600000Y-58177560D01*
X52600000Y-58177560D01*
X52364683Y-58221838D01*
X52148559Y-58360910D01*
X52003569Y-58573110D01*
X51952560Y-58825000D01*
X51952560Y-61977500D01*
X51030574Y-61977500D01*
X51028162Y-61964683D01*
X50889090Y-61748559D01*
X50676890Y-61603569D01*
X50425000Y-61552560D01*
X49175000Y-61552560D01*
X48939683Y-61596838D01*
X48723559Y-61735910D01*
X48578569Y-61948110D01*
X48527560Y-62200000D01*
X48527560Y-63700000D01*
X48571838Y-63935317D01*
X48710910Y-64151441D01*
X48780711Y-64199134D01*
X48723559Y-64235910D01*
X48578569Y-64448110D01*
X48527560Y-64700000D01*
X48527560Y-66200000D01*
X48571838Y-66435317D01*
X48710910Y-66651441D01*
X48923110Y-66796431D01*
X49015000Y-66815039D01*
X49015000Y-67579898D01*
X48838355Y-67756235D01*
X48665197Y-68173244D01*
X48664803Y-68624775D01*
X48837233Y-69042086D01*
X49015000Y-69220163D01*
X49015000Y-69582666D01*
X48939683Y-69596838D01*
X48723559Y-69735910D01*
X48578569Y-69948110D01*
X48527560Y-70200000D01*
X48527560Y-71700000D01*
X48571838Y-71935317D01*
X48710910Y-72151441D01*
X48780711Y-72199134D01*
X48723559Y-72235910D01*
X48578569Y-72448110D01*
X48527560Y-72700000D01*
X48527560Y-74200000D01*
X48571838Y-74435317D01*
X48710910Y-74651441D01*
X48923110Y-74796431D01*
X49175000Y-74847440D01*
X50087282Y-74847440D01*
X50432421Y-75192579D01*
X50687094Y-75362745D01*
X50987500Y-75422501D01*
X50987505Y-75422500D01*
X51952560Y-75422500D01*
X51952560Y-78575000D01*
X51996838Y-78810317D01*
X52135910Y-79026441D01*
X52348110Y-79171431D01*
X52600000Y-79222440D01*
X54600000Y-79222440D01*
X54835317Y-79178162D01*
X55051441Y-79039090D01*
X55196431Y-78826890D01*
X55247440Y-78575000D01*
X55247440Y-74100218D01*
X56900218Y-72447440D01*
X58450000Y-72447440D01*
X58630110Y-72413550D01*
X58671838Y-72635317D01*
X58810910Y-72851441D01*
X59023110Y-72996431D01*
X59115000Y-73015039D01*
X59115000Y-74600000D01*
X59165128Y-74852010D01*
X59164803Y-75224775D01*
X59337233Y-75642086D01*
X59656235Y-75961645D01*
X60073244Y-76134803D01*
X60524775Y-76135197D01*
X60615000Y-76097917D01*
X60615000Y-78200000D01*
X60665128Y-78452010D01*
X60664803Y-78824775D01*
X60837233Y-79242086D01*
X61156235Y-79561645D01*
X61573244Y-79734803D01*
X62024775Y-79735197D01*
X62442086Y-79562767D01*
X62761645Y-79243765D01*
X62934803Y-78826756D01*
X62934897Y-78718880D01*
X62973244Y-78734803D01*
X63415000Y-78735188D01*
X63415000Y-78980072D01*
X63138355Y-79256235D01*
X62965197Y-79673244D01*
X62964803Y-80124775D01*
X63137233Y-80542086D01*
X63456235Y-80861645D01*
X63873244Y-81034803D01*
X64324775Y-81035197D01*
X64742086Y-80862767D01*
X65061645Y-80543765D01*
X65234803Y-80126756D01*
X65235197Y-79675225D01*
X65062767Y-79257914D01*
X64985000Y-79180011D01*
X64985000Y-77760000D01*
X65464250Y-77760000D01*
X65623000Y-77601250D01*
X65623000Y-76627000D01*
X65603000Y-76627000D01*
X65603000Y-76373000D01*
X65623000Y-76373000D01*
X65623000Y-76353000D01*
X65877000Y-76353000D01*
X65877000Y-76373000D01*
X65897000Y-76373000D01*
X65897000Y-76627000D01*
X65877000Y-76627000D01*
X65877000Y-77601250D01*
X66035750Y-77760000D01*
X66626309Y-77760000D01*
X66859698Y-77663327D01*
X67000936Y-77522090D01*
X67035910Y-77576441D01*
X67248110Y-77721431D01*
X67500000Y-77772440D01*
X67673112Y-77772440D01*
X67694921Y-77805079D01*
X68065021Y-78175179D01*
X68064803Y-78424775D01*
X68237233Y-78842086D01*
X68556235Y-79161645D01*
X68973244Y-79334803D01*
X69424775Y-79335197D01*
X69842086Y-79162767D01*
X70161645Y-78843765D01*
X70334803Y-78426756D01*
X70335197Y-77975225D01*
X70251408Y-77772440D01*
X71200000Y-77772440D01*
X71435317Y-77728162D01*
X71651441Y-77589090D01*
X71697969Y-77520994D01*
X71840302Y-77663327D01*
X72073691Y-77760000D01*
X72664250Y-77760000D01*
X72822998Y-77601252D01*
X72822998Y-77760000D01*
X72829842Y-77760000D01*
X69474842Y-81115000D01*
X43100000Y-81115000D01*
X42799593Y-81174755D01*
X42544921Y-81344921D01*
X38537282Y-85352560D01*
X37150000Y-85352560D01*
X36914683Y-85396838D01*
X36698559Y-85535910D01*
X36553569Y-85748110D01*
X36502560Y-86000000D01*
X32685000Y-86000000D01*
X32685000Y-77185750D01*
X38465000Y-77185750D01*
X38465000Y-77651310D01*
X38561673Y-77884699D01*
X38740302Y-78063327D01*
X38973691Y-78160000D01*
X39564250Y-78160000D01*
X39723000Y-78001250D01*
X39723000Y-77027000D01*
X38623750Y-77027000D01*
X38465000Y-77185750D01*
X32685000Y-77185750D01*
X32685000Y-74785750D01*
X35265000Y-74785750D01*
X35265000Y-75376310D01*
X35361673Y-75609699D01*
X35540302Y-75788327D01*
X35773691Y-75885000D01*
X37214250Y-75885000D01*
X37373000Y-75726250D01*
X37373000Y-74627000D01*
X35423750Y-74627000D01*
X35265000Y-74785750D01*
X32685000Y-74785750D01*
X32685000Y-73623690D01*
X35265000Y-73623690D01*
X35265000Y-74214250D01*
X35423750Y-74373000D01*
X37373000Y-74373000D01*
X37373000Y-73273750D01*
X37627000Y-73273750D01*
X37627000Y-74373000D01*
X37647000Y-74373000D01*
X37647000Y-74627000D01*
X37627000Y-74627000D01*
X37627000Y-75726250D01*
X37785750Y-75885000D01*
X38591974Y-75885000D01*
X38561673Y-75915301D01*
X38465000Y-76148690D01*
X38465000Y-76614250D01*
X38623750Y-76773000D01*
X39723000Y-76773000D01*
X39723000Y-76753000D01*
X39977000Y-76753000D01*
X39977000Y-76773000D01*
X39997000Y-76773000D01*
X39997000Y-77027000D01*
X39977000Y-77027000D01*
X39977000Y-78001250D01*
X40135750Y-78160000D01*
X40336792Y-78160000D01*
X40165197Y-78573244D01*
X40164803Y-79024775D01*
X40337233Y-79442086D01*
X40656235Y-79761645D01*
X41073244Y-79934803D01*
X41524775Y-79935197D01*
X41942086Y-79762767D01*
X42261645Y-79443765D01*
X42434803Y-79026756D01*
X42435023Y-78775135D01*
X42905079Y-78305079D01*
X42993705Y-78172440D01*
X43100000Y-78172440D01*
X43335317Y-78128162D01*
X43551441Y-77989090D01*
X43696431Y-77776890D01*
X43747440Y-77525000D01*
X43747440Y-76275000D01*
X43703162Y-76039683D01*
X43564090Y-75823559D01*
X43475446Y-75762991D01*
X43551441Y-75714090D01*
X43696431Y-75501890D01*
X43747440Y-75250000D01*
X43747440Y-73750000D01*
X43703162Y-73514683D01*
X43564090Y-73298559D01*
X43351890Y-73153569D01*
X43100000Y-73102560D01*
X42835000Y-73102560D01*
X42835000Y-73013970D01*
X44465635Y-73013970D01*
X44625418Y-73332739D01*
X45416187Y-73642723D01*
X46265387Y-73626497D01*
X46974582Y-73332739D01*
X47134365Y-73013970D01*
X45800000Y-71679605D01*
X44465635Y-73013970D01*
X42835000Y-73013970D01*
X42835000Y-72997440D01*
X43050000Y-72997440D01*
X43285317Y-72953162D01*
X43501441Y-72814090D01*
X43646431Y-72601890D01*
X43697440Y-72350000D01*
X43697440Y-72023176D01*
X43967261Y-72674582D01*
X44286030Y-72834365D01*
X45620395Y-71500000D01*
X45979605Y-71500000D01*
X47313970Y-72834365D01*
X47632739Y-72674582D01*
X47942723Y-71883813D01*
X47926497Y-71034613D01*
X47632739Y-70325418D01*
X47313970Y-70165635D01*
X45979605Y-71500000D01*
X45620395Y-71500000D01*
X44286030Y-70165635D01*
X43967261Y-70325418D01*
X43697440Y-71013731D01*
X43697440Y-70850000D01*
X43653162Y-70614683D01*
X43547518Y-70450508D01*
X43588327Y-70409699D01*
X43685000Y-70176310D01*
X43685000Y-69986030D01*
X44465635Y-69986030D01*
X45800000Y-71320395D01*
X47134365Y-69986030D01*
X46974582Y-69667261D01*
X46183813Y-69357277D01*
X45334613Y-69373503D01*
X44625418Y-69667261D01*
X44465635Y-69986030D01*
X43685000Y-69986030D01*
X43685000Y-69585750D01*
X43526250Y-69427000D01*
X42177000Y-69427000D01*
X42177000Y-69447000D01*
X41923000Y-69447000D01*
X41923000Y-69427000D01*
X40573750Y-69427000D01*
X40415000Y-69585750D01*
X40415000Y-70176310D01*
X40511673Y-70409699D01*
X40553634Y-70451660D01*
X40453569Y-70598110D01*
X40402560Y-70850000D01*
X40402560Y-72350000D01*
X40446838Y-72585317D01*
X40585910Y-72801441D01*
X40798110Y-72946431D01*
X41050000Y-72997440D01*
X41265000Y-72997440D01*
X41265000Y-73102560D01*
X39900000Y-73102560D01*
X39664683Y-73146838D01*
X39500507Y-73252482D01*
X39459698Y-73211673D01*
X39226309Y-73115000D01*
X37785750Y-73115000D01*
X37627000Y-73273750D01*
X37373000Y-73273750D01*
X37214250Y-73115000D01*
X35773691Y-73115000D01*
X35540302Y-73211673D01*
X35361673Y-73390301D01*
X35265000Y-73623690D01*
X32685000Y-73623690D01*
X32685000Y-69585750D01*
X34115000Y-69585750D01*
X34115000Y-71326310D01*
X34211673Y-71559699D01*
X34390302Y-71738327D01*
X34623691Y-71835000D01*
X35464250Y-71835000D01*
X35623000Y-71676250D01*
X35623000Y-69427000D01*
X35877000Y-69427000D01*
X35877000Y-71676250D01*
X36035750Y-71835000D01*
X36876309Y-71835000D01*
X37109698Y-71738327D01*
X37288327Y-71559699D01*
X37385000Y-71326310D01*
X37385000Y-69585750D01*
X37226250Y-69427000D01*
X35877000Y-69427000D01*
X35623000Y-69427000D01*
X34273750Y-69427000D01*
X34115000Y-69585750D01*
X32685000Y-69585750D01*
X32685000Y-67273690D01*
X34115000Y-67273690D01*
X34115000Y-69014250D01*
X34273750Y-69173000D01*
X35623000Y-69173000D01*
X35623000Y-66923750D01*
X35877000Y-66923750D01*
X35877000Y-69173000D01*
X37226250Y-69173000D01*
X37385000Y-69014250D01*
X37385000Y-67273690D01*
X37288327Y-67040301D01*
X37109698Y-66861673D01*
X36876309Y-66765000D01*
X36035750Y-66765000D01*
X35877000Y-66923750D01*
X35623000Y-66923750D01*
X35464250Y-66765000D01*
X34623691Y-66765000D01*
X34390302Y-66861673D01*
X34211673Y-67040301D01*
X34115000Y-67273690D01*
X32685000Y-67273690D01*
X32685000Y-64624775D01*
X34364803Y-64624775D01*
X34537233Y-65042086D01*
X34856235Y-65361645D01*
X35273244Y-65534803D01*
X35724775Y-65535197D01*
X36142086Y-65362767D01*
X36219989Y-65285000D01*
X38282666Y-65285000D01*
X38296838Y-65360317D01*
X38435910Y-65576441D01*
X38648110Y-65721431D01*
X38900000Y-65772440D01*
X40400000Y-65772440D01*
X40635317Y-65728162D01*
X40851441Y-65589090D01*
X40899134Y-65519289D01*
X40935910Y-65576441D01*
X40990517Y-65613752D01*
X40814683Y-65646838D01*
X40598559Y-65785910D01*
X40453569Y-65998110D01*
X40402560Y-66250000D01*
X40402560Y-67750000D01*
X40446838Y-67985317D01*
X40552482Y-68149492D01*
X40511673Y-68190301D01*
X40415000Y-68423690D01*
X40415000Y-69014250D01*
X40573750Y-69173000D01*
X41923000Y-69173000D01*
X41923000Y-69153000D01*
X42177000Y-69153000D01*
X42177000Y-69173000D01*
X43526250Y-69173000D01*
X43685000Y-69014250D01*
X43685000Y-68423690D01*
X43588327Y-68190301D01*
X43546366Y-68148340D01*
X43646431Y-68001890D01*
X43670102Y-67885000D01*
X43955601Y-67885000D01*
X44088980Y-68207800D01*
X44689041Y-68808909D01*
X45473459Y-69134628D01*
X46322815Y-69135370D01*
X47107800Y-68811020D01*
X47708909Y-68210959D01*
X48034628Y-67426541D01*
X48035370Y-66577185D01*
X47711020Y-65792200D01*
X47110959Y-65191091D01*
X46326541Y-64865372D01*
X45477185Y-64864630D01*
X44692200Y-65188980D01*
X44091091Y-65789041D01*
X43955741Y-66115000D01*
X43672038Y-66115000D01*
X43653162Y-66014683D01*
X43514090Y-65798559D01*
X43301890Y-65653569D01*
X43263362Y-65645767D01*
X43351441Y-65589090D01*
X43496431Y-65376890D01*
X43547440Y-65125000D01*
X43547440Y-63875000D01*
X43503162Y-63639683D01*
X43364090Y-63423559D01*
X43151890Y-63278569D01*
X43078873Y-63263783D01*
X43135317Y-63253162D01*
X43351441Y-63114090D01*
X43496431Y-62901890D01*
X43547440Y-62650000D01*
X43547440Y-61150000D01*
X43503162Y-60914683D01*
X43364090Y-60698559D01*
X43151890Y-60553569D01*
X42900000Y-60502560D01*
X42749020Y-60502560D01*
X45325787Y-57925792D01*
X45325790Y-57925790D01*
X45517633Y-57638675D01*
X45534896Y-57551890D01*
X45585001Y-57300000D01*
X45585000Y-57299995D01*
X45585000Y-55473691D01*
X57540000Y-55473691D01*
X57540000Y-56064250D01*
X57698750Y-56223000D01*
X58673000Y-56223000D01*
X58673000Y-55123750D01*
X58927000Y-55123750D01*
X58927000Y-56223000D01*
X60473000Y-56223000D01*
X60473000Y-55123750D01*
X60314250Y-54965000D01*
X59848690Y-54965000D01*
X59700000Y-55026589D01*
X59551310Y-54965000D01*
X59085750Y-54965000D01*
X58927000Y-55123750D01*
X58673000Y-55123750D01*
X58514250Y-54965000D01*
X58048690Y-54965000D01*
X57815301Y-55061673D01*
X57636673Y-55240302D01*
X57540000Y-55473691D01*
X45585000Y-55473691D01*
X45585000Y-51700005D01*
X45585001Y-51700000D01*
X45517633Y-51361326D01*
X45517633Y-51361325D01*
X45325790Y-51074210D01*
X45325787Y-51074208D01*
X45076355Y-50824775D01*
X58664803Y-50824775D01*
X58837233Y-51242086D01*
X59156235Y-51561645D01*
X59573244Y-51734803D01*
X60024775Y-51735197D01*
X60442086Y-51562767D01*
X60519989Y-51485000D01*
X60582666Y-51485000D01*
X60596838Y-51560317D01*
X60735910Y-51776441D01*
X60948110Y-51921431D01*
X61200000Y-51972440D01*
X62700000Y-51972440D01*
X62935317Y-51928162D01*
X63151441Y-51789090D01*
X63197969Y-51720994D01*
X63340302Y-51863327D01*
X63573691Y-51960000D01*
X63965000Y-51960000D01*
X63965000Y-52414250D01*
X64123750Y-52573000D01*
X64452560Y-52573000D01*
X64452560Y-52827000D01*
X64123750Y-52827000D01*
X63965000Y-52985750D01*
X63965000Y-53601309D01*
X64061673Y-53834698D01*
X64240301Y-54013327D01*
X64473690Y-54110000D01*
X64516250Y-54110000D01*
X64673871Y-53952379D01*
X64848110Y-54071431D01*
X64969830Y-54096080D01*
X64983750Y-54110000D01*
X65026310Y-54110000D01*
X65030335Y-54108333D01*
X65100000Y-54122440D01*
X65400000Y-54122440D01*
X65503671Y-54102933D01*
X65600000Y-54122440D01*
X65900000Y-54122440D01*
X66003671Y-54102933D01*
X66100000Y-54122440D01*
X66400000Y-54122440D01*
X66503671Y-54102933D01*
X66600000Y-54122440D01*
X66900000Y-54122440D01*
X67003671Y-54102933D01*
X67100000Y-54122440D01*
X67400000Y-54122440D01*
X67503671Y-54102933D01*
X67600000Y-54122440D01*
X67900000Y-54122440D01*
X68003671Y-54102933D01*
X68100000Y-54122440D01*
X68400000Y-54122440D01*
X68503671Y-54102933D01*
X68600000Y-54122440D01*
X68900000Y-54122440D01*
X69003671Y-54102933D01*
X69100000Y-54122440D01*
X69400000Y-54122440D01*
X69503671Y-54102933D01*
X69600000Y-54122440D01*
X69900000Y-54122440D01*
X70003671Y-54102933D01*
X70100000Y-54122440D01*
X70400000Y-54122440D01*
X70503671Y-54102933D01*
X70600000Y-54122440D01*
X70900000Y-54122440D01*
X70965000Y-54110209D01*
X70965000Y-54150000D01*
X71024755Y-54450407D01*
X71194921Y-54705079D01*
X71544921Y-55055079D01*
X71799594Y-55225245D01*
X72100000Y-55285000D01*
X76100000Y-55285000D01*
X76400407Y-55225245D01*
X76655079Y-55055079D01*
X77305079Y-54405079D01*
X77475245Y-54150406D01*
X77483950Y-54106644D01*
X77503671Y-54102933D01*
X77600000Y-54122440D01*
X77900000Y-54122440D01*
X78003671Y-54102933D01*
X78100000Y-54122440D01*
X78400000Y-54122440D01*
X78503671Y-54102933D01*
X78600000Y-54122440D01*
X78900000Y-54122440D01*
X79003671Y-54102933D01*
X79100000Y-54122440D01*
X79400000Y-54122440D01*
X79503671Y-54102933D01*
X79600000Y-54122440D01*
X79900000Y-54122440D01*
X80003671Y-54102933D01*
X80100000Y-54122440D01*
X80400000Y-54122440D01*
X80503671Y-54102933D01*
X80600000Y-54122440D01*
X80900000Y-54122440D01*
X81003671Y-54102933D01*
X81077186Y-54117820D01*
X80838355Y-54356235D01*
X80665197Y-54773244D01*
X80664942Y-55065143D01*
X80275225Y-55064803D01*
X79857914Y-55237233D01*
X79538355Y-55556235D01*
X79365197Y-55973244D01*
X79364803Y-56424775D01*
X79537233Y-56842086D01*
X79694867Y-56999996D01*
X79538355Y-57156235D01*
X79365197Y-57573244D01*
X79364803Y-58024775D01*
X79537233Y-58442086D01*
X79856235Y-58761645D01*
X80273244Y-58934803D01*
X80724775Y-58935197D01*
X81142086Y-58762767D01*
X81461645Y-58443765D01*
X81634803Y-58026756D01*
X81634883Y-57935000D01*
X82790723Y-57935000D01*
X82777560Y-58000000D01*
X82777560Y-58300000D01*
X82797067Y-58403671D01*
X82777560Y-58500000D01*
X82777560Y-58800000D01*
X82797067Y-58903671D01*
X82777560Y-59000000D01*
X82777560Y-59300000D01*
X82797067Y-59403671D01*
X82777560Y-59500000D01*
X82777560Y-59800000D01*
X82797067Y-59903671D01*
X82777560Y-60000000D01*
X82777560Y-60300000D01*
X82797067Y-60403671D01*
X82777560Y-60500000D01*
X82777560Y-60800000D01*
X82790980Y-60871323D01*
X82790000Y-60873690D01*
X82790000Y-60916250D01*
X82801621Y-60927871D01*
X82821838Y-61035317D01*
X82895620Y-61149978D01*
X82828569Y-61248110D01*
X82803920Y-61369830D01*
X82790000Y-61383750D01*
X82790000Y-61426310D01*
X82791667Y-61430335D01*
X82777560Y-61500000D01*
X82777560Y-61800000D01*
X82797067Y-61903671D01*
X82777560Y-62000000D01*
X82777560Y-62300000D01*
X82797067Y-62403671D01*
X82777560Y-62500000D01*
X82777560Y-62800000D01*
X82797067Y-62903671D01*
X82777560Y-63000000D01*
X82777560Y-63300000D01*
X82797067Y-63403671D01*
X82777560Y-63500000D01*
X82777560Y-63800000D01*
X82797067Y-63903671D01*
X82777560Y-64000000D01*
X82777560Y-64300000D01*
X82797067Y-64403671D01*
X82777560Y-64500000D01*
X82777560Y-64800000D01*
X82797067Y-64903671D01*
X82777560Y-65000000D01*
X82777560Y-65300000D01*
X82797067Y-65403671D01*
X82777560Y-65500000D01*
X82777560Y-65800000D01*
X82797067Y-65903671D01*
X82777560Y-66000000D01*
X82777560Y-66300000D01*
X82790980Y-66371323D01*
X82790000Y-66373690D01*
X82790000Y-66416250D01*
X82801621Y-66427871D01*
X82821838Y-66535317D01*
X82895620Y-66649978D01*
X82828569Y-66748110D01*
X82803920Y-66869830D01*
X82790000Y-66883750D01*
X82790000Y-66926310D01*
X82791667Y-66930335D01*
X82777560Y-67000000D01*
X82777560Y-67300000D01*
X82797067Y-67403671D01*
X82777560Y-67500000D01*
X82777560Y-67800000D01*
X82797067Y-67903671D01*
X82777560Y-68000000D01*
X82777560Y-68300000D01*
X82797067Y-68403671D01*
X82777560Y-68500000D01*
X82777560Y-68800000D01*
X82797067Y-68903671D01*
X82777560Y-69000000D01*
X82777560Y-69300000D01*
X82797067Y-69403671D01*
X82777560Y-69500000D01*
X82777560Y-69800000D01*
X82797067Y-69903671D01*
X82777560Y-70000000D01*
X82777560Y-70300000D01*
X82797067Y-70403671D01*
X82777560Y-70500000D01*
X82777560Y-70800000D01*
X82797067Y-70903671D01*
X82777560Y-71000000D01*
X82777560Y-71300000D01*
X82797067Y-71403671D01*
X82777560Y-71500000D01*
X82777560Y-71800000D01*
X82797067Y-71903671D01*
X82777560Y-72000000D01*
X82777560Y-72300000D01*
X82821838Y-72535317D01*
X82960910Y-72751441D01*
X83173110Y-72896431D01*
X83425000Y-72947440D01*
X84975000Y-72947440D01*
X85210317Y-72903162D01*
X85426441Y-72764090D01*
X85571431Y-72551890D01*
X85622440Y-72300000D01*
X85622440Y-72000000D01*
X85602933Y-71896329D01*
X85622440Y-71800000D01*
X85622440Y-71500000D01*
X85602933Y-71396329D01*
X85622440Y-71300000D01*
X85622440Y-71000000D01*
X85602933Y-70896329D01*
X85622440Y-70800000D01*
X85622440Y-70500000D01*
X85602933Y-70396329D01*
X85622440Y-70300000D01*
X85622440Y-70000000D01*
X85602933Y-69896329D01*
X85622440Y-69800000D01*
X85622440Y-69500000D01*
X85602933Y-69396329D01*
X85622440Y-69300000D01*
X85622440Y-69000000D01*
X85602933Y-68896329D01*
X85622440Y-68800000D01*
X85622440Y-68500000D01*
X85602933Y-68396329D01*
X85622440Y-68300000D01*
X85622440Y-68000000D01*
X85618407Y-67978565D01*
X85627560Y-67987718D01*
X85627560Y-68900000D01*
X85671838Y-69135317D01*
X85810910Y-69351441D01*
X86023110Y-69496431D01*
X86272686Y-69546971D01*
X86344921Y-69655079D01*
X86665021Y-69975179D01*
X86664803Y-70224775D01*
X86837233Y-70642086D01*
X87156235Y-70961645D01*
X87573244Y-71134803D01*
X88024775Y-71135197D01*
X88442086Y-70962767D01*
X88761645Y-70643765D01*
X88934803Y-70226756D01*
X88935197Y-69775225D01*
X88762767Y-69357914D01*
X88443765Y-69038355D01*
X88167641Y-68923698D01*
X88172440Y-68900000D01*
X88172440Y-67400000D01*
X88128162Y-67164683D01*
X87989090Y-66948559D01*
X87920994Y-66902031D01*
X88063327Y-66759698D01*
X88160000Y-66526309D01*
X88160000Y-65935750D01*
X88001250Y-65777000D01*
X87027000Y-65777000D01*
X87027000Y-65797000D01*
X86773000Y-65797000D01*
X86773000Y-65777000D01*
X85798750Y-65777000D01*
X85640000Y-65935750D01*
X85640000Y-66365000D01*
X85609277Y-66365000D01*
X85622440Y-66300000D01*
X85622440Y-66000000D01*
X85602933Y-65896329D01*
X85622440Y-65800000D01*
X85622440Y-65500000D01*
X85602933Y-65396329D01*
X85622440Y-65300000D01*
X85622440Y-65000000D01*
X85602933Y-64896329D01*
X85622440Y-64800000D01*
X85622440Y-64773691D01*
X85640000Y-64773691D01*
X85640000Y-65364250D01*
X85798750Y-65523000D01*
X86773000Y-65523000D01*
X86773000Y-64423750D01*
X87027000Y-64423750D01*
X87027000Y-65523000D01*
X88001250Y-65523000D01*
X88160000Y-65364250D01*
X88160000Y-64773691D01*
X88063327Y-64540302D01*
X87884699Y-64361673D01*
X87651310Y-64265000D01*
X87185750Y-64265000D01*
X87027000Y-64423750D01*
X86773000Y-64423750D01*
X86614250Y-64265000D01*
X86148690Y-64265000D01*
X85915301Y-64361673D01*
X85736673Y-64540302D01*
X85640000Y-64773691D01*
X85622440Y-64773691D01*
X85622440Y-64500000D01*
X85602933Y-64396329D01*
X85622440Y-64300000D01*
X85622440Y-64000000D01*
X85602933Y-63896329D01*
X85622440Y-63800000D01*
X85622440Y-63613955D01*
X85710910Y-63751441D01*
X85923110Y-63896431D01*
X86175000Y-63947440D01*
X87425000Y-63947440D01*
X87660317Y-63903162D01*
X87876441Y-63764090D01*
X87979728Y-63612924D01*
X88273244Y-63734803D01*
X88724775Y-63735197D01*
X89142086Y-63562767D01*
X89461645Y-63243765D01*
X89634803Y-62826756D01*
X89635197Y-62375225D01*
X89462767Y-61957914D01*
X89143765Y-61638355D01*
X88726756Y-61465197D01*
X88275225Y-61464803D01*
X88028547Y-61566729D01*
X88028162Y-61564683D01*
X87889090Y-61348559D01*
X87820994Y-61302031D01*
X87963327Y-61159698D01*
X88060000Y-60926309D01*
X88060000Y-60335750D01*
X87901250Y-60177000D01*
X86927000Y-60177000D01*
X86927000Y-60197000D01*
X86673000Y-60197000D01*
X86673000Y-60177000D01*
X86653000Y-60177000D01*
X86653000Y-59923000D01*
X86673000Y-59923000D01*
X86673000Y-58823750D01*
X86927000Y-58823750D01*
X86927000Y-59923000D01*
X87901250Y-59923000D01*
X88060000Y-59764250D01*
X88060000Y-59173691D01*
X87963327Y-58940302D01*
X87784699Y-58761673D01*
X87551310Y-58665000D01*
X87085750Y-58665000D01*
X86927000Y-58823750D01*
X86673000Y-58823750D01*
X86514250Y-58665000D01*
X86048690Y-58665000D01*
X85815301Y-58761673D01*
X85636673Y-58940302D01*
X85619162Y-58982578D01*
X85602933Y-58896329D01*
X85622440Y-58800000D01*
X85622440Y-58500000D01*
X85602933Y-58396329D01*
X85622440Y-58300000D01*
X85622440Y-58000000D01*
X85602933Y-57896329D01*
X85615196Y-57835771D01*
X85673691Y-57860000D01*
X86264250Y-57860000D01*
X86423000Y-57701250D01*
X86423000Y-56727000D01*
X86403000Y-56727000D01*
X86403000Y-56473000D01*
X86423000Y-56473000D01*
X86423000Y-56453000D01*
X86677000Y-56453000D01*
X86677000Y-56473000D01*
X86697000Y-56473000D01*
X86697000Y-56727000D01*
X86677000Y-56727000D01*
X86677000Y-57701250D01*
X86835750Y-57860000D01*
X87426309Y-57860000D01*
X87659698Y-57763327D01*
X87800936Y-57622090D01*
X87835910Y-57676441D01*
X88048110Y-57821431D01*
X88300000Y-57872440D01*
X89800000Y-57872440D01*
X90035317Y-57828162D01*
X90251441Y-57689090D01*
X90396431Y-57476890D01*
X90447440Y-57225000D01*
X90447440Y-56182564D01*
X90573244Y-56234803D01*
X91024775Y-56235197D01*
X91442086Y-56062767D01*
X91761645Y-55743765D01*
X91934803Y-55326756D01*
X91935197Y-54875225D01*
X91762767Y-54457914D01*
X91443765Y-54138355D01*
X91026756Y-53965197D01*
X90775135Y-53964977D01*
X90447440Y-53637282D01*
X90447440Y-53075000D01*
X90403162Y-52839683D01*
X90264090Y-52623559D01*
X90051890Y-52478569D01*
X89800000Y-52427560D01*
X88300000Y-52427560D01*
X88064683Y-52471838D01*
X87848559Y-52610910D01*
X87802031Y-52679006D01*
X87659698Y-52536673D01*
X87426309Y-52440000D01*
X86835750Y-52440000D01*
X86677000Y-52598750D01*
X86677000Y-53573000D01*
X86697000Y-53573000D01*
X86697000Y-53827000D01*
X86677000Y-53827000D01*
X86677000Y-53847000D01*
X86423000Y-53847000D01*
X86423000Y-53827000D01*
X85323750Y-53827000D01*
X85231728Y-53919022D01*
X85101309Y-53865000D01*
X84485750Y-53865000D01*
X84327000Y-54023750D01*
X84327000Y-54352560D01*
X84073000Y-54352560D01*
X84073000Y-54023750D01*
X83914250Y-53865000D01*
X83298691Y-53865000D01*
X83065302Y-53961673D01*
X82886673Y-54140301D01*
X82790000Y-54373690D01*
X82790000Y-54416250D01*
X82896748Y-54522998D01*
X82830978Y-54522998D01*
X82762767Y-54357914D01*
X82507509Y-54102211D01*
X82635317Y-54078162D01*
X82851441Y-53939090D01*
X82996431Y-53726890D01*
X83047440Y-53475000D01*
X83047440Y-52948690D01*
X85165000Y-52948690D01*
X85165000Y-53414250D01*
X85323750Y-53573000D01*
X86423000Y-53573000D01*
X86423000Y-52598750D01*
X86264250Y-52440000D01*
X85673691Y-52440000D01*
X85440302Y-52536673D01*
X85261673Y-52715301D01*
X85165000Y-52948690D01*
X83047440Y-52948690D01*
X83047440Y-51925000D01*
X83035000Y-51858887D01*
X83035000Y-51270189D01*
X83161645Y-51143765D01*
X83286250Y-50843684D01*
X83309946Y-50879147D01*
X83791715Y-51201054D01*
X84360000Y-51314093D01*
X84928285Y-51201054D01*
X85410054Y-50879147D01*
X85437850Y-50837548D01*
X85446838Y-50885317D01*
X85585910Y-51101441D01*
X85798110Y-51246431D01*
X86050000Y-51297440D01*
X87750000Y-51297440D01*
X87985317Y-51253162D01*
X88201441Y-51114090D01*
X88346431Y-50901890D01*
X88397440Y-50650000D01*
X88397440Y-48950000D01*
X88353162Y-48714683D01*
X88214090Y-48498559D01*
X88001890Y-48353569D01*
X87750000Y-48302560D01*
X86050000Y-48302560D01*
X85814683Y-48346838D01*
X85598559Y-48485910D01*
X85453569Y-48698110D01*
X85439914Y-48765541D01*
X85410054Y-48720853D01*
X84928285Y-48398946D01*
X84360000Y-48285907D01*
X83791715Y-48398946D01*
X83309946Y-48720853D01*
X82988039Y-49202622D01*
X82908382Y-49603085D01*
X82843765Y-49538355D01*
X82426756Y-49365197D01*
X81975225Y-49364803D01*
X81557914Y-49537233D01*
X81238355Y-49856235D01*
X81065197Y-50273244D01*
X81064803Y-50724775D01*
X81237233Y-51142086D01*
X81372471Y-51277560D01*
X81100000Y-51277560D01*
X80996329Y-51297067D01*
X80900000Y-51277560D01*
X80727616Y-51277560D01*
X80861645Y-51143765D01*
X81034803Y-50726756D01*
X81035197Y-50275225D01*
X80862767Y-49857914D01*
X80543765Y-49538355D01*
X80126756Y-49365197D01*
X79675225Y-49364803D01*
X79320576Y-49511341D01*
X79264090Y-49423559D01*
X79051890Y-49278569D01*
X78800000Y-49227560D01*
X77300000Y-49227560D01*
X77064683Y-49271838D01*
X76848559Y-49410910D01*
X76802031Y-49479006D01*
X76659698Y-49336673D01*
X76426309Y-49240000D01*
X75835750Y-49240000D01*
X75677000Y-49398750D01*
X75677000Y-50373000D01*
X75697000Y-50373000D01*
X75697000Y-50627000D01*
X75677000Y-50627000D01*
X75677000Y-50647000D01*
X75423000Y-50647000D01*
X75423000Y-50627000D01*
X74323750Y-50627000D01*
X74165000Y-50785750D01*
X74165000Y-51251310D01*
X74175873Y-51277560D01*
X74116546Y-51277560D01*
X74147440Y-51125000D01*
X74147440Y-49875000D01*
X74123674Y-49748690D01*
X74165000Y-49748690D01*
X74165000Y-50214250D01*
X74323750Y-50373000D01*
X75423000Y-50373000D01*
X75423000Y-49398750D01*
X75264250Y-49240000D01*
X74673691Y-49240000D01*
X74440302Y-49336673D01*
X74261673Y-49515301D01*
X74165000Y-49748690D01*
X74123674Y-49748690D01*
X74103162Y-49639683D01*
X73964090Y-49423559D01*
X73751890Y-49278569D01*
X73500000Y-49227560D01*
X72000000Y-49227560D01*
X71764683Y-49271838D01*
X71548559Y-49410910D01*
X71502031Y-49479006D01*
X71359698Y-49336673D01*
X71126309Y-49240000D01*
X70535750Y-49240000D01*
X70377000Y-49398750D01*
X70377000Y-50373000D01*
X70397000Y-50373000D01*
X70397000Y-50627000D01*
X70377000Y-50627000D01*
X70377000Y-50647000D01*
X70123000Y-50647000D01*
X70123000Y-50627000D01*
X69023750Y-50627000D01*
X68865000Y-50785750D01*
X68865000Y-51251310D01*
X68875873Y-51277560D01*
X68627791Y-51277560D01*
X68661645Y-51243765D01*
X68834803Y-50826756D01*
X68835197Y-50375225D01*
X68662767Y-49957914D01*
X68453908Y-49748690D01*
X68865000Y-49748690D01*
X68865000Y-50214250D01*
X69023750Y-50373000D01*
X70123000Y-50373000D01*
X70123000Y-49398750D01*
X69964250Y-49240000D01*
X69373691Y-49240000D01*
X69140302Y-49336673D01*
X68961673Y-49515301D01*
X68865000Y-49748690D01*
X68453908Y-49748690D01*
X68343765Y-49638355D01*
X67926756Y-49465197D01*
X67475225Y-49464803D01*
X67057914Y-49637233D01*
X66738355Y-49956235D01*
X66565197Y-50373244D01*
X66564803Y-50824775D01*
X66737233Y-51242086D01*
X66772645Y-51277560D01*
X66600000Y-51277560D01*
X66496329Y-51297067D01*
X66400000Y-51277560D01*
X66100000Y-51277560D01*
X65996329Y-51297067D01*
X65900000Y-51277560D01*
X65835000Y-51277560D01*
X65835000Y-50985750D01*
X65676250Y-50827000D01*
X64577000Y-50827000D01*
X64577000Y-50847000D01*
X64323000Y-50847000D01*
X64323000Y-50827000D01*
X64303000Y-50827000D01*
X64303000Y-50573000D01*
X64323000Y-50573000D01*
X64323000Y-49598750D01*
X64577000Y-49598750D01*
X64577000Y-50573000D01*
X65676250Y-50573000D01*
X65835000Y-50414250D01*
X65835000Y-49948690D01*
X65738327Y-49715301D01*
X65559698Y-49536673D01*
X65326309Y-49440000D01*
X64735750Y-49440000D01*
X64577000Y-49598750D01*
X64323000Y-49598750D01*
X64164250Y-49440000D01*
X63573691Y-49440000D01*
X63340302Y-49536673D01*
X63199064Y-49677910D01*
X63164090Y-49623559D01*
X62951890Y-49478569D01*
X62700000Y-49427560D01*
X61200000Y-49427560D01*
X60964683Y-49471838D01*
X60748559Y-49610910D01*
X60613577Y-49808463D01*
X60443765Y-49638355D01*
X60026756Y-49465197D01*
X59575225Y-49464803D01*
X59157914Y-49637233D01*
X58838355Y-49956235D01*
X58665197Y-50373244D01*
X58664803Y-50824775D01*
X45076355Y-50824775D01*
X44225790Y-49974210D01*
X44137175Y-49915000D01*
X43938675Y-49782367D01*
X43851366Y-49765000D01*
X43600000Y-49714999D01*
X43599995Y-49715000D01*
X41411431Y-49715000D01*
X41350000Y-49702560D01*
X39050000Y-49702560D01*
X38814683Y-49746838D01*
X38685149Y-49830191D01*
X38685188Y-49785127D01*
X38520354Y-49386200D01*
X38215405Y-49080718D01*
X37816767Y-48915189D01*
X37385127Y-48914812D01*
X36986200Y-49079646D01*
X36680718Y-49384595D01*
X36515189Y-49783233D01*
X36514812Y-50214873D01*
X36679646Y-50613800D01*
X36984595Y-50919282D01*
X37383233Y-51084811D01*
X37814873Y-51085188D01*
X38213800Y-50920354D01*
X38402560Y-50731923D01*
X38402560Y-50850000D01*
X38431821Y-51005507D01*
X38402560Y-51150000D01*
X38402560Y-51650000D01*
X38431821Y-51805507D01*
X38402560Y-51950000D01*
X38402560Y-52450000D01*
X38431821Y-52605507D01*
X38402560Y-52750000D01*
X38402560Y-53250000D01*
X38431821Y-53405507D01*
X38402560Y-53550000D01*
X38402560Y-53668200D01*
X38215405Y-53480718D01*
X37816767Y-53315189D01*
X37385127Y-53314812D01*
X36986200Y-53479646D01*
X36680718Y-53784595D01*
X36515189Y-54183233D01*
X36514812Y-54614873D01*
X36679646Y-55013800D01*
X36984595Y-55319282D01*
X37383233Y-55484811D01*
X37814873Y-55485188D01*
X38213800Y-55320354D01*
X38519282Y-55015405D01*
X38684811Y-54616767D01*
X38684853Y-54569046D01*
X38798110Y-54646431D01*
X39050000Y-54697440D01*
X40887282Y-54697440D01*
X41192402Y-55002560D01*
X38850000Y-55002560D01*
X38614683Y-55046838D01*
X38398559Y-55185910D01*
X38253569Y-55398110D01*
X38202560Y-55650000D01*
X38202560Y-57650000D01*
X38246838Y-57885317D01*
X38385910Y-58101441D01*
X38598110Y-58246431D01*
X38850000Y-58297440D01*
X41350000Y-58297440D01*
X41585317Y-58253162D01*
X41801441Y-58114090D01*
X41946431Y-57901890D01*
X41997440Y-57650000D01*
X41997440Y-56520279D01*
X42273244Y-56634803D01*
X42724775Y-56635197D01*
X43142086Y-56462767D01*
X43461645Y-56143765D01*
X43634803Y-55726756D01*
X43635197Y-55275225D01*
X43462767Y-54857914D01*
X43143765Y-54538355D01*
X42809865Y-54399707D01*
X42306146Y-53895988D01*
X42499594Y-54025245D01*
X42774917Y-54080011D01*
X42956235Y-54261645D01*
X43373244Y-54434803D01*
X43815000Y-54435188D01*
X43815000Y-56933421D01*
X40674210Y-60074210D01*
X40482367Y-60361325D01*
X40482367Y-60361326D01*
X40454273Y-60502560D01*
X39700000Y-60502560D01*
X39464683Y-60546838D01*
X39298523Y-60653759D01*
X39151890Y-60553569D01*
X38900000Y-60502560D01*
X35700000Y-60502560D01*
X35464683Y-60546838D01*
X35248559Y-60685910D01*
X35103569Y-60898110D01*
X35052560Y-61150000D01*
X35052560Y-62650000D01*
X35096838Y-62885317D01*
X35235910Y-63101441D01*
X35448110Y-63246431D01*
X35527362Y-63262480D01*
X35524821Y-63265021D01*
X35275225Y-63264803D01*
X34857914Y-63437233D01*
X34538355Y-63756235D01*
X34365197Y-64173244D01*
X34364803Y-64624775D01*
X32685000Y-64624775D01*
X32685000Y-55650000D01*
X32702560Y-55650000D01*
X32702560Y-57650000D01*
X32746838Y-57885317D01*
X32885910Y-58101441D01*
X33098110Y-58246431D01*
X33350000Y-58297440D01*
X33815000Y-58297440D01*
X33815000Y-58300000D01*
X33874755Y-58600407D01*
X34044921Y-58855079D01*
X34265021Y-59075179D01*
X34264803Y-59324775D01*
X34437233Y-59742086D01*
X34756235Y-60061645D01*
X35173244Y-60234803D01*
X35624775Y-60235197D01*
X36042086Y-60062767D01*
X36361645Y-59743765D01*
X36534803Y-59326756D01*
X36535197Y-58875225D01*
X36362767Y-58457914D01*
X36129799Y-58224539D01*
X36301441Y-58114090D01*
X36446431Y-57901890D01*
X36497440Y-57650000D01*
X36497440Y-55650000D01*
X36453162Y-55414683D01*
X36314090Y-55198559D01*
X36101890Y-55053569D01*
X35850000Y-55002560D01*
X33350000Y-55002560D01*
X33114683Y-55046838D01*
X32898559Y-55185910D01*
X32753569Y-55398110D01*
X32702560Y-55650000D01*
X32685000Y-55650000D01*
X32685000Y-46750000D01*
X32702560Y-46750000D01*
X32702560Y-48750000D01*
X32746838Y-48985317D01*
X32885910Y-49201441D01*
X33098110Y-49346431D01*
X33350000Y-49397440D01*
X35850000Y-49397440D01*
X36085317Y-49353162D01*
X36301441Y-49214090D01*
X36446431Y-49001890D01*
X36497440Y-48750000D01*
X36497440Y-46750000D01*
X38202560Y-46750000D01*
X38202560Y-48750000D01*
X38246838Y-48985317D01*
X38385910Y-49201441D01*
X38598110Y-49346431D01*
X38850000Y-49397440D01*
X41350000Y-49397440D01*
X41585317Y-49353162D01*
X41801441Y-49214090D01*
X41946431Y-49001890D01*
X41997440Y-48750000D01*
X41997440Y-46750000D01*
X41959808Y-46550000D01*
X63702560Y-46550000D01*
X63702560Y-48250000D01*
X63746838Y-48485317D01*
X63885910Y-48701441D01*
X64098110Y-48846431D01*
X64350000Y-48897440D01*
X66050000Y-48897440D01*
X66285317Y-48853162D01*
X66501441Y-48714090D01*
X66646431Y-48501890D01*
X66660086Y-48434459D01*
X66689946Y-48479147D01*
X67171715Y-48801054D01*
X67740000Y-48914093D01*
X68308285Y-48801054D01*
X68790054Y-48479147D01*
X69010000Y-48149974D01*
X69229946Y-48479147D01*
X69711715Y-48801054D01*
X70280000Y-48914093D01*
X70848285Y-48801054D01*
X71330054Y-48479147D01*
X71651961Y-47997378D01*
X71765000Y-47429093D01*
X71765000Y-47370907D01*
X71651961Y-46802622D01*
X71330054Y-46320853D01*
X70848285Y-45998946D01*
X70280000Y-45885907D01*
X69711715Y-45998946D01*
X69229946Y-46320853D01*
X69010000Y-46650026D01*
X68790054Y-46320853D01*
X68308285Y-45998946D01*
X67740000Y-45885907D01*
X67171715Y-45998946D01*
X66689946Y-46320853D01*
X66662150Y-46362452D01*
X66653162Y-46314683D01*
X66514090Y-46098559D01*
X66301890Y-45953569D01*
X66050000Y-45902560D01*
X64350000Y-45902560D01*
X64114683Y-45946838D01*
X63898559Y-46085910D01*
X63753569Y-46298110D01*
X63702560Y-46550000D01*
X41959808Y-46550000D01*
X41953162Y-46514683D01*
X41814090Y-46298559D01*
X41601890Y-46153569D01*
X41350000Y-46102560D01*
X38850000Y-46102560D01*
X38614683Y-46146838D01*
X38398559Y-46285910D01*
X38253569Y-46498110D01*
X38202560Y-46750000D01*
X36497440Y-46750000D01*
X36453162Y-46514683D01*
X36314090Y-46298559D01*
X36101890Y-46153569D01*
X35850000Y-46102560D01*
X33350000Y-46102560D01*
X33114683Y-46146838D01*
X32898559Y-46285910D01*
X32753569Y-46498110D01*
X32702560Y-46750000D01*
X32685000Y-46750000D01*
X32685000Y-45685000D01*
X111315000Y-45685000D01*
X111315000Y-109315000D01*
G36*
X82325000Y-75351250D02*
X82483750Y-75510000D01*
X82526310Y-75510000D01*
X82726685Y-75427002D01*
X82823748Y-75427002D01*
X82665000Y-75585750D01*
X82665000Y-76051310D01*
X82761673Y-76284699D01*
X82822998Y-76346024D01*
X82822998Y-76398748D01*
X82664250Y-76240000D01*
X82073691Y-76240000D01*
X81840302Y-76336673D01*
X81661673Y-76515301D01*
X81565000Y-76748690D01*
X81565000Y-77214250D01*
X81723750Y-77373000D01*
X82823000Y-77373000D01*
X82823000Y-77353000D01*
X83077000Y-77353000D01*
X83077000Y-77373000D01*
X83097000Y-77373000D01*
X83097000Y-77627000D01*
X83077000Y-77627000D01*
X83077000Y-78601250D01*
X83235750Y-78760000D01*
X83826309Y-78760000D01*
X84059698Y-78663327D01*
X84200936Y-78522090D01*
X84235910Y-78576441D01*
X84448110Y-78721431D01*
X84700000Y-78772440D01*
X85917402Y-78772440D01*
X82044921Y-82644921D01*
X81874755Y-82899593D01*
X81863718Y-82955079D01*
X81815000Y-83200000D01*
X81815000Y-84674842D01*
X80274842Y-86215000D01*
X73195158Y-86215000D01*
X80305079Y-79105079D01*
X80475245Y-78850407D01*
X80535000Y-78550000D01*
X80535000Y-77785750D01*
X81565000Y-77785750D01*
X81565000Y-78251310D01*
X81661673Y-78484699D01*
X81840302Y-78663327D01*
X82073691Y-78760000D01*
X82664250Y-78760000D01*
X82823000Y-78601250D01*
X82823000Y-77627000D01*
X81723750Y-77627000D01*
X81565000Y-77785750D01*
X80535000Y-77785750D01*
X80535000Y-75509277D01*
X80600000Y-75522440D01*
X80900000Y-75522440D01*
X81003671Y-75502933D01*
X81100000Y-75522440D01*
X81400000Y-75522440D01*
X81471323Y-75509020D01*
X81473690Y-75510000D01*
X81516250Y-75510000D01*
X81527871Y-75498379D01*
X81635317Y-75478162D01*
X81738646Y-75411672D01*
X81740301Y-75413327D01*
X81973690Y-75510000D01*
X82026310Y-75510000D01*
X82259699Y-75413327D01*
X82325000Y-75348026D01*
X82325000Y-75351250D01*
X82325000Y-75351250D01*
G37*
X82325000Y-75351250D02*
X82483750Y-75510000D01*
X82526310Y-75510000D01*
X82726685Y-75427002D01*
X82823748Y-75427002D01*
X82665000Y-75585750D01*
X82665000Y-76051310D01*
X82761673Y-76284699D01*
X82822998Y-76346024D01*
X82822998Y-76398748D01*
X82664250Y-76240000D01*
X82073691Y-76240000D01*
X81840302Y-76336673D01*
X81661673Y-76515301D01*
X81565000Y-76748690D01*
X81565000Y-77214250D01*
X81723750Y-77373000D01*
X82823000Y-77373000D01*
X82823000Y-77353000D01*
X83077000Y-77353000D01*
X83077000Y-77373000D01*
X83097000Y-77373000D01*
X83097000Y-77627000D01*
X83077000Y-77627000D01*
X83077000Y-78601250D01*
X83235750Y-78760000D01*
X83826309Y-78760000D01*
X84059698Y-78663327D01*
X84200936Y-78522090D01*
X84235910Y-78576441D01*
X84448110Y-78721431D01*
X84700000Y-78772440D01*
X85917402Y-78772440D01*
X82044921Y-82644921D01*
X81874755Y-82899593D01*
X81863718Y-82955079D01*
X81815000Y-83200000D01*
X81815000Y-84674842D01*
X80274842Y-86215000D01*
X73195158Y-86215000D01*
X80305079Y-79105079D01*
X80475245Y-78850407D01*
X80535000Y-78550000D01*
X80535000Y-77785750D01*
X81565000Y-77785750D01*
X81565000Y-78251310D01*
X81661673Y-78484699D01*
X81840302Y-78663327D01*
X82073691Y-78760000D01*
X82664250Y-78760000D01*
X82823000Y-78601250D01*
X82823000Y-77627000D01*
X81723750Y-77627000D01*
X81565000Y-77785750D01*
X80535000Y-77785750D01*
X80535000Y-75509277D01*
X80600000Y-75522440D01*
X80900000Y-75522440D01*
X81003671Y-75502933D01*
X81100000Y-75522440D01*
X81400000Y-75522440D01*
X81471323Y-75509020D01*
X81473690Y-75510000D01*
X81516250Y-75510000D01*
X81527871Y-75498379D01*
X81635317Y-75478162D01*
X81738646Y-75411672D01*
X81740301Y-75413327D01*
X81973690Y-75510000D01*
X82026310Y-75510000D01*
X82259699Y-75413327D01*
X82325000Y-75348026D01*
X82325000Y-75351250D01*
G36*
X73077000Y-76373000D02*
X73097000Y-76373000D01*
X73097000Y-76627000D01*
X73077000Y-76627000D01*
X73077000Y-76647000D01*
X72823000Y-76647000D01*
X72823000Y-76627000D01*
X72803000Y-76627000D01*
X72803000Y-76373000D01*
X72823000Y-76373000D01*
X72823000Y-76353000D01*
X73077000Y-76353000D01*
X73077000Y-76373000D01*
X73077000Y-76373000D01*
G37*
X73077000Y-76373000D02*
X73097000Y-76373000D01*
X73097000Y-76627000D01*
X73077000Y-76627000D01*
X73077000Y-76647000D01*
X72823000Y-76647000D01*
X72823000Y-76627000D01*
X72803000Y-76627000D01*
X72803000Y-76373000D01*
X72823000Y-76373000D01*
X72823000Y-76353000D01*
X73077000Y-76353000D01*
X73077000Y-76373000D01*
G36*
X82397000Y-74227000D02*
X82103000Y-74227000D01*
X82103000Y-73973000D01*
X82397000Y-73973000D01*
X82397000Y-74227000D01*
X82397000Y-74227000D01*
G37*
X82397000Y-74227000D02*
X82103000Y-74227000D01*
X82103000Y-73973000D01*
X82397000Y-73973000D01*
X82397000Y-74227000D01*
G36*
X51952560Y-66700000D02*
X51996838Y-66935317D01*
X52135910Y-67151441D01*
X52348110Y-67296431D01*
X52600000Y-67347440D01*
X54600000Y-67347440D01*
X54835317Y-67303162D01*
X55051441Y-67164090D01*
X55196431Y-66951890D01*
X55247440Y-66700000D01*
X55247440Y-65185000D01*
X56577596Y-65185000D01*
X56514683Y-65196838D01*
X56298559Y-65335910D01*
X56153569Y-65548110D01*
X56102560Y-65800000D01*
X56102560Y-67800000D01*
X56146838Y-68035317D01*
X56285910Y-68251441D01*
X56498110Y-68396431D01*
X56750000Y-68447440D01*
X58450000Y-68447440D01*
X58640000Y-68411689D01*
X58640000Y-68864250D01*
X58798750Y-69023000D01*
X59773000Y-69023000D01*
X59773000Y-67923750D01*
X59614250Y-67765000D01*
X59148690Y-67765000D01*
X59097440Y-67786228D01*
X59097440Y-66935000D01*
X61390723Y-66935000D01*
X61377560Y-67000000D01*
X61377560Y-67300000D01*
X61397067Y-67403671D01*
X61377560Y-67500000D01*
X61377560Y-67800000D01*
X61397067Y-67903671D01*
X61377560Y-68000000D01*
X61377560Y-68300000D01*
X61397067Y-68403671D01*
X61377560Y-68500000D01*
X61377560Y-68800000D01*
X61390980Y-68871323D01*
X61390000Y-68873690D01*
X61390000Y-68916250D01*
X61401621Y-68927871D01*
X61406458Y-68953577D01*
X61194921Y-69094921D01*
X61160000Y-69129842D01*
X61160000Y-69022998D01*
X61001252Y-69022998D01*
X61160000Y-68864250D01*
X61160000Y-68273691D01*
X61063327Y-68040302D01*
X60884699Y-67861673D01*
X60651310Y-67765000D01*
X60185750Y-67765000D01*
X60027000Y-67923750D01*
X60027000Y-69023000D01*
X60047000Y-69023000D01*
X60047000Y-69277000D01*
X60027000Y-69277000D01*
X60027000Y-69297000D01*
X59773000Y-69297000D01*
X59773000Y-69277000D01*
X58809360Y-69277000D01*
X58701890Y-69203569D01*
X58450000Y-69152560D01*
X56750000Y-69152560D01*
X56514683Y-69196838D01*
X56298559Y-69335910D01*
X56153569Y-69548110D01*
X56102560Y-69800000D01*
X56102560Y-71024782D01*
X55247440Y-71879902D01*
X55247440Y-70700000D01*
X55203162Y-70464683D01*
X55064090Y-70248559D01*
X54851890Y-70103569D01*
X54600000Y-70052560D01*
X52600000Y-70052560D01*
X52364683Y-70096838D01*
X52148559Y-70235910D01*
X52003569Y-70448110D01*
X51952560Y-70700000D01*
X51952560Y-73852500D01*
X51312658Y-73852500D01*
X51072440Y-73612282D01*
X51072440Y-72700000D01*
X51028162Y-72464683D01*
X50889090Y-72248559D01*
X50819289Y-72200866D01*
X50876441Y-72164090D01*
X51021431Y-71951890D01*
X51072440Y-71700000D01*
X51072440Y-70200000D01*
X51028162Y-69964683D01*
X50889090Y-69748559D01*
X50676890Y-69603569D01*
X50585000Y-69584961D01*
X50585000Y-69220102D01*
X50761645Y-69043765D01*
X50934803Y-68626756D01*
X50935197Y-68175225D01*
X50762767Y-67757914D01*
X50585000Y-67579837D01*
X50585000Y-66817334D01*
X50660317Y-66803162D01*
X50876441Y-66664090D01*
X51021431Y-66451890D01*
X51072440Y-66200000D01*
X51072440Y-64700000D01*
X51028162Y-64464683D01*
X50889090Y-64248559D01*
X50819289Y-64200866D01*
X50876441Y-64164090D01*
X51021431Y-63951890D01*
X51072440Y-63700000D01*
X51072440Y-63547500D01*
X51952560Y-63547500D01*
X51952560Y-66700000D01*
X51952560Y-66700000D01*
G37*
X51952560Y-66700000D02*
X51996838Y-66935317D01*
X52135910Y-67151441D01*
X52348110Y-67296431D01*
X52600000Y-67347440D01*
X54600000Y-67347440D01*
X54835317Y-67303162D01*
X55051441Y-67164090D01*
X55196431Y-66951890D01*
X55247440Y-66700000D01*
X55247440Y-65185000D01*
X56577596Y-65185000D01*
X56514683Y-65196838D01*
X56298559Y-65335910D01*
X56153569Y-65548110D01*
X56102560Y-65800000D01*
X56102560Y-67800000D01*
X56146838Y-68035317D01*
X56285910Y-68251441D01*
X56498110Y-68396431D01*
X56750000Y-68447440D01*
X58450000Y-68447440D01*
X58640000Y-68411689D01*
X58640000Y-68864250D01*
X58798750Y-69023000D01*
X59773000Y-69023000D01*
X59773000Y-67923750D01*
X59614250Y-67765000D01*
X59148690Y-67765000D01*
X59097440Y-67786228D01*
X59097440Y-66935000D01*
X61390723Y-66935000D01*
X61377560Y-67000000D01*
X61377560Y-67300000D01*
X61397067Y-67403671D01*
X61377560Y-67500000D01*
X61377560Y-67800000D01*
X61397067Y-67903671D01*
X61377560Y-68000000D01*
X61377560Y-68300000D01*
X61397067Y-68403671D01*
X61377560Y-68500000D01*
X61377560Y-68800000D01*
X61390980Y-68871323D01*
X61390000Y-68873690D01*
X61390000Y-68916250D01*
X61401621Y-68927871D01*
X61406458Y-68953577D01*
X61194921Y-69094921D01*
X61160000Y-69129842D01*
X61160000Y-69022998D01*
X61001252Y-69022998D01*
X61160000Y-68864250D01*
X61160000Y-68273691D01*
X61063327Y-68040302D01*
X60884699Y-67861673D01*
X60651310Y-67765000D01*
X60185750Y-67765000D01*
X60027000Y-67923750D01*
X60027000Y-69023000D01*
X60047000Y-69023000D01*
X60047000Y-69277000D01*
X60027000Y-69277000D01*
X60027000Y-69297000D01*
X59773000Y-69297000D01*
X59773000Y-69277000D01*
X58809360Y-69277000D01*
X58701890Y-69203569D01*
X58450000Y-69152560D01*
X56750000Y-69152560D01*
X56514683Y-69196838D01*
X56298559Y-69335910D01*
X56153569Y-69548110D01*
X56102560Y-69800000D01*
X56102560Y-71024782D01*
X55247440Y-71879902D01*
X55247440Y-70700000D01*
X55203162Y-70464683D01*
X55064090Y-70248559D01*
X54851890Y-70103569D01*
X54600000Y-70052560D01*
X52600000Y-70052560D01*
X52364683Y-70096838D01*
X52148559Y-70235910D01*
X52003569Y-70448110D01*
X51952560Y-70700000D01*
X51952560Y-73852500D01*
X51312658Y-73852500D01*
X51072440Y-73612282D01*
X51072440Y-72700000D01*
X51028162Y-72464683D01*
X50889090Y-72248559D01*
X50819289Y-72200866D01*
X50876441Y-72164090D01*
X51021431Y-71951890D01*
X51072440Y-71700000D01*
X51072440Y-70200000D01*
X51028162Y-69964683D01*
X50889090Y-69748559D01*
X50676890Y-69603569D01*
X50585000Y-69584961D01*
X50585000Y-69220102D01*
X50761645Y-69043765D01*
X50934803Y-68626756D01*
X50935197Y-68175225D01*
X50762767Y-67757914D01*
X50585000Y-67579837D01*
X50585000Y-66817334D01*
X50660317Y-66803162D01*
X50876441Y-66664090D01*
X51021431Y-66451890D01*
X51072440Y-66200000D01*
X51072440Y-64700000D01*
X51028162Y-64464683D01*
X50889090Y-64248559D01*
X50819289Y-64200866D01*
X50876441Y-64164090D01*
X51021431Y-63951890D01*
X51072440Y-63700000D01*
X51072440Y-63547500D01*
X51952560Y-63547500D01*
X51952560Y-66700000D01*
M02*
